<svg width="24" height="24" viewBox="0 0 24 24" fill="none" xmlns="http://www.w3.org/2000/svg">
<g clip-path="url(#clip0_0_1692)">
<path d="M23.8071 9.77869C23.9137 9.77869 24.0002 9.86517 24.0002 9.97186V12C24.0002 12.7591 23.9297 13.5013 23.7945 14.2213C22.7484 19.8139 17.8214 24.0404 11.9156 23.9997C5.28895 23.954 -0.0143974 18.5997 0.00027451 11.973C0.0148526 5.35809 5.38195 0 12.0002 0C15.2427 0 18.1847 1.28634 20.3446 3.37584C20.4226 3.45127 20.4247 3.57558 20.3479 3.65227L17.4786 6.52153C17.4048 6.59541 17.2854 6.59733 17.2097 6.52528C15.8541 5.23486 14.0198 4.44263 12.0002 4.44263C7.82971 4.44263 4.47135 7.77712 4.44304 11.9475C4.41459 16.1453 7.80909 19.5573 12.0002 19.5573C15.4008 19.5573 18.2769 17.3109 19.2254 14.2213H12.1934C12.0867 14.2213 12.0002 14.1348 12.0002 14.0281V9.97181C12.0002 9.86512 12.0867 9.77864 12.1934 9.77864H23.8071V9.77869Z" fill="#2196F3"/>
<path d="M23.8066 9.77869H22.3579C22.4646 9.77869 22.5511 9.86517 22.5511 9.97186V12C22.5511 12.7591 22.4806 13.5013 22.3454 14.2213C21.3473 19.5567 16.8171 23.6487 11.2747 23.9783C11.4867 23.9909 11.7002 23.9982 11.9152 23.9997C17.8209 24.0404 22.7479 19.8139 23.794 14.2213C23.9293 13.5013 23.9998 12.7591 23.9998 12V9.97181C23.9998 9.86517 23.9133 9.77869 23.8066 9.77869Z" fill="#1E88E5"/>
<path d="M5.13614 8.83509L1.4917 6.20184C3.53629 2.50383 7.47623 0 12.0005 0C15.243 0 18.185 1.28634 20.3449 3.37584C20.4229 3.45127 20.4249 3.57558 20.3482 3.65227L17.4789 6.52153C17.4052 6.59527 17.2859 6.59756 17.2103 6.52566C15.8547 5.235 14.0203 4.44267 12.0005 4.44267C8.95682 4.44267 6.33323 6.24192 5.13614 8.83509Z" fill="#F44336"/>
<path d="M4.08325 8.07494L5.13536 8.83512C6.22802 6.46821 8.50933 4.76355 11.2135 4.48394C11.2339 4.48173 11.2534 4.47906 11.2742 4.47709C11.0362 4.4545 10.795 4.44269 10.5511 4.44269C7.80152 4.44269 5.40527 5.89221 4.08325 8.07494Z" fill="#E53935"/>
<path d="M18.8958 3.37584C18.9738 3.45127 18.9758 3.57558 18.8991 3.65231L16.5702 5.9812C16.7933 6.15089 17.0069 6.33239 17.2096 6.52533C17.2852 6.59737 17.4046 6.59545 17.4785 6.52158L20.3478 3.65231C20.4245 3.57558 20.4224 3.45131 20.3445 3.37584C18.1845 1.28634 15.2426 0 12.0001 0C11.7568 0 11.5154 0.00810937 11.2756 0.0224063C14.2306 0.198422 16.8979 1.44309 18.8958 3.37584Z" fill="#E53935"/>
<path d="M20.8022 20.1552C18.6108 22.5199 15.4778 24 11.9995 24C7.30138 24 3.23394 21.3002 1.26416 17.3669L4.98486 14.8172C6.10138 17.5953 8.82154 19.5573 11.9995 19.5573C13.9938 19.5573 15.8076 18.7847 17.1578 17.5224L20.8022 20.1552Z" fill="#4CAF50"/>
<path d="M4.98534 14.8173L3.88818 15.5691C5.16248 17.943 7.66837 19.5574 10.5512 19.5574C10.795 19.5574 11.036 19.5454 11.2739 19.5229C8.41223 19.25 6.01575 17.3813 4.98534 14.8173Z" fill="#43A047"/>
<path d="M12.0001 24C15.4784 24 18.6115 22.5199 20.8029 20.1552L19.9102 19.5103C17.8526 22.0711 14.7659 23.7699 11.2776 23.9782C11.5167 23.9924 11.7575 24 12.0001 24Z" fill="#43A047"/>
<path d="M4.44267 12C4.44267 12.9957 4.63533 13.9466 4.98544 14.8172L1.26469 17.3669C0.455391 15.7521 0 13.9292 0 12C0 9.897 0.540844 7.92047 1.49119 6.20184L5.13562 8.83509C4.69088 9.79748 4.44267 10.87 4.44267 12Z" fill="#FFC107"/>
<path d="M3.88846 15.569L4.98562 14.8172C4.63551 13.9466 4.44285 12.9957 4.44285 12C4.44285 10.87 4.69105 9.79746 5.1358 8.83506L4.08369 8.07489C3.40049 9.20294 3.00398 10.5266 2.99432 11.9476C2.98541 13.2579 3.31012 14.4917 3.88846 15.569Z" fill="#FFB300"/>
</g>
<defs>
<clipPath id="clip0_0_1692">
<rect width="24" height="24" fill="white"/>
</clipPath>
</defs>
</svg>
