<svg width="68" height="72" viewBox="0 0 68 72" fill="none" xmlns="http://www.w3.org/2000/svg">
<rect x="9.83424" y="0.115604" width="48.2564" height="48.2564" rx="8" fill="#F6F6F6"/>
<g filter="url(#filter0_dd_0_2591)">
<path d="M23.2834 12.2013H44.6861V20.2861C44.6861 23.9907 43.3067 31.846 34.0644 37.6935C34.0644 37.6935 24.0495 33.5109 23.2834 20.2861V12.2013Z" fill="#A62131"/>
<path d="M23.2387 12.1797H44.6631V20.2709C44.6631 23.9767 43.2824 31.8372 34.0312 37.6885C34.0312 37.6885 24.0061 33.5033 23.2387 20.2709V12.1797Z" stroke="#0D0140" stroke-width="0.23"/>
<path d="M39.4823 22.5898C39.4823 22.5898 39.2924 23.1979 38.4433 22.5733L35.5291 22.5032C35.5291 22.5032 35.1467 22.6306 35.0957 22.2265C35.0957 22.2265 35.1658 21.4285 35.1301 21.3597C35.1301 21.3597 35.148 21.134 34.7655 21.134C34.7655 21.134 34.1766 21.2029 34.1587 20.6827C34.1587 20.6827 34.0567 20.1269 34.8701 20.146C34.8701 20.146 35.125 20.2735 35.148 19.937C35.148 19.937 35.1136 17.6806 35.1301 17.5148C35.1301 17.5148 35.2002 17.3083 34.8012 17.2726C34.8012 17.2726 34.2288 17.4001 34.1638 17.0177C34.1638 17.0177 34.1294 16.4453 34.5118 16.4096C34.5118 16.4096 34.9797 16.4453 35.0664 16.3229C35.0664 16.3229 35.1709 16.3917 35.1531 15.9774L35.1709 15.2648C35.1709 15.2648 35.2206 15.0736 35.5164 15.0927C35.5164 15.0927 36.0544 15.1271 36.1245 15.0736C36.1815 15.0021 36.2335 14.9267 36.28 14.848C36.28 14.848 36.5579 14.8314 36.6102 14.9015C36.6102 14.9015 37.0258 15.1794 38.604 15.0736C38.604 15.0736 38.8474 15.0736 38.8984 15.1437C38.8984 15.1437 39.1942 15.3694 39.3676 15.1271C39.7092 15.08 40.0545 15.0651 40.3989 15.0825C40.3989 15.0825 41.2505 15.3069 41.8381 14.8276L42.0294 14.8633C42.0294 14.8633 42.2728 15.261 42.4462 15.1399C42.4462 15.1399 42.9663 15.0889 43.053 15.1922C43.053 15.1922 43.2251 15.4471 43.1397 16.1291C43.1397 16.1291 43.0365 16.4236 43.5387 16.4236C43.5387 16.4236 44.1124 16.3191 44.041 16.8558C44.041 16.8558 44.1978 17.4639 43.2442 17.3772C43.1811 17.4633 43.1447 17.5662 43.1397 17.6729C43.1397 17.6729 43.1219 19.6489 43.1053 19.8758C43.1053 19.8758 43.0874 20.1881 43.503 20.169C43.503 20.169 44.0588 20.1333 44.078 20.6368C44.078 20.6368 44.1455 21.2959 43.3475 21.1748C43.3475 21.1748 43.1053 21.2092 43.0683 21.366L43.0365 22.2329C43.0365 22.2329 43.053 22.6663 42.5686 22.5618C42.4985 22.5618 39.8635 22.6153 39.6366 22.5452C39.6366 22.5452 39.5091 22.5286 39.4797 22.5962" fill="white"/>
<path d="M33.8808 25.4886C33.9465 25.4618 34.0012 25.4138 34.0364 25.3522C34.0364 25.3522 34.4022 25.3165 34.4532 25.2643L35.6006 25.3522C35.6006 25.3522 36.7275 25.4376 37.2132 25.0883C37.3141 25.089 37.4142 25.1071 37.5089 25.1419C37.5089 25.1419 37.7511 25.1954 37.82 25.2974L38.4791 25.2796C38.4791 25.2796 38.8615 25.407 38.8258 25.6454V25.9565C38.8258 25.9565 38.7557 26.5811 38.9291 26.6168H39.439C39.439 26.6168 39.8558 26.8068 39.8023 27.0503C39.8053 27.1497 39.7719 27.2469 39.7083 27.3235C39.6446 27.4 39.5552 27.4506 39.4568 27.4658C39.2989 27.5136 39.1359 27.5427 38.9711 27.5525C38.8956 27.6543 38.8474 27.7736 38.8309 27.8993L38.7799 30.171C38.7799 30.171 38.7442 30.4145 39.1101 30.38C39.1101 30.38 39.6455 30.3278 39.8023 30.6235C39.8023 30.6235 39.9425 31.1258 39.6646 31.2125L39.4568 31.3145L39.0043 31.3871C39.0043 31.3871 38.8156 31.4024 38.7978 31.7326V32.3381C38.7978 32.3381 38.8156 32.7563 38.4842 32.7563L37.9985 32.7907C37.9449 32.8246 37.884 32.8453 37.8208 32.8511C37.7576 32.8568 37.694 32.8475 37.6351 32.8238C37.6351 32.8238 34.6865 32.8774 34.5833 32.8417L34.2352 32.9118C34.2352 32.9118 33.8528 33.2585 33.5417 32.9985L33.2995 32.8073C33.22 32.8245 33.1384 32.8301 33.0573 32.8238C32.9872 32.8073 29.7964 32.8595 29.7964 32.8595C29.7964 32.8595 29.1195 32.9296 29.0685 32.7027C29.0685 32.7027 28.9818 31.8193 29.0162 31.7135C29.0162 31.7135 29.0162 31.4585 28.8607 31.4381C28.8607 31.4381 28.1837 31.4024 28.1659 31.3323C28.1659 31.3323 27.8013 31.0774 27.9109 30.8135C27.9498 30.7118 28.0155 30.6226 28.101 30.5553C28.1866 30.4879 28.2887 30.445 28.3966 30.431C28.3966 30.431 28.9512 30.519 28.9512 30.3622C28.977 30.2723 28.989 30.179 28.9869 30.0856C28.9869 30.0856 29.0213 28.0204 29.0034 27.8827C29.0034 27.8827 29.0557 27.6277 28.8301 27.6277C28.6977 27.6658 28.5558 27.653 28.4323 27.592C28.4323 27.592 28.0155 27.6099 27.9224 27.2797C27.8836 27.1526 27.896 27.0154 27.9568 26.8973C27.9568 26.8973 28.1481 26.5148 28.7026 26.6423C28.7026 26.6423 29.0149 26.729 29.0493 26.5046L29.0328 25.6709C29.0328 25.6709 28.9627 25.4466 29.3961 25.3254C29.3961 25.3254 29.9519 25.481 30.124 25.198C30.124 25.198 30.3152 24.8155 30.4695 25.0705C30.4695 25.0705 30.8009 25.3841 31.7022 25.3509C31.7022 25.3509 33.2638 25.2235 33.2983 25.2961C33.2983 25.2961 33.6807 25.3509 33.784 25.4708L33.8808 25.4886Z" fill="white"/>
<path d="M29.1666 22.5896C29.1666 22.5896 28.9754 23.1977 28.1251 22.5731L25.2122 22.503C25.2122 22.503 24.8298 22.6304 24.7775 22.2263C24.7775 22.2263 24.8476 21.4283 24.8119 21.3595C24.8119 21.3595 24.8298 21.1325 24.4486 21.1325C24.4486 21.1325 23.8596 21.2039 23.8431 20.6825C23.8431 20.6825 23.7373 20.1267 24.5531 20.1458C24.5531 20.1458 24.8081 20.2733 24.8298 19.9368C24.8298 19.9368 24.7953 17.6829 24.8119 17.5147C24.8119 17.5147 24.882 17.3081 24.483 17.2724C24.483 17.2724 23.9106 17.3999 23.8456 17.0175C23.8456 17.0175 23.8099 16.4464 24.1911 16.4107C24.1911 16.4107 24.6589 16.4464 24.7456 16.3253C24.7456 16.3253 24.8502 16.3928 24.8323 15.976L24.8463 15.2544C24.8463 15.2544 24.8986 15.0632 25.1918 15.0811C25.1918 15.0811 25.7311 15.1155 25.8012 15.0632C25.8581 14.9919 25.9097 14.9165 25.9554 14.8376C25.9554 14.8376 26.2346 14.8223 26.2856 14.8898C26.2856 14.8898 26.7012 15.169 28.2819 15.0632C28.2819 15.0632 28.5229 15.0632 28.5751 15.1333C28.5751 15.1333 28.8696 15.359 29.043 15.1155C29.3884 15.0722 29.737 15.0607 30.0845 15.0811C30.0845 15.0811 30.9322 15.3067 31.5225 14.8261L31.7124 14.8605C31.7124 14.8605 31.9559 15.2583 32.1306 15.1371C32.1306 15.1371 32.6507 15.0849 32.7374 15.1894C32.7374 15.1894 32.9107 15.4444 32.8228 16.1264C32.8228 16.1264 32.7195 16.4209 33.2218 16.4209C33.2218 16.4209 33.7942 16.3176 33.7317 16.853C33.7317 16.853 33.8885 17.4611 32.935 17.3744C32.872 17.4608 32.8353 17.5635 32.8292 17.6702C32.8292 17.6702 32.8126 19.6461 32.796 19.873C32.796 19.873 32.7782 20.1828 33.195 20.1662C33.195 20.1662 33.7496 20.1305 33.7661 20.6354C33.7661 20.6354 33.835 21.2932 33.0382 21.1721C33.0382 21.1721 32.796 21.2078 32.7603 21.3633L32.7259 22.2301C32.7259 22.2301 32.7437 22.6636 32.2568 22.5603C32.1879 22.5603 29.5529 22.6113 29.3247 22.5425C29.3247 22.5425 29.1972 22.5259 29.1692 22.5935" fill="white"/>
<path d="M39.4823 22.5898C39.4823 22.5898 39.2924 23.1979 38.4433 22.5733L35.5291 22.5032C35.5291 22.5032 35.1467 22.6306 35.0957 22.2265C35.0957 22.2265 35.1658 21.4285 35.1301 21.3597C35.1301 21.3597 35.148 21.134 34.7655 21.134C34.7655 21.134 34.1766 21.2029 34.1587 20.6827C34.1587 20.6827 34.0567 20.1269 34.8701 20.146C34.8701 20.146 35.125 20.2735 35.148 19.937C35.148 19.937 35.1136 17.6806 35.1301 17.5148C35.1301 17.5148 35.2002 17.3083 34.8012 17.2726C34.8012 17.2726 34.2288 17.4001 34.1638 17.0177C34.1638 17.0177 34.1294 16.4453 34.5118 16.4096C34.5118 16.4096 34.9797 16.4453 35.0664 16.3229C35.0664 16.3229 35.1709 16.3917 35.1531 15.9774L35.1709 15.2648C35.1709 15.2648 35.2206 15.0736 35.5164 15.0927C35.5164 15.0927 36.0544 15.1271 36.1245 15.0736C36.1815 15.0021 36.2335 14.9267 36.28 14.848C36.28 14.848 36.5579 14.8314 36.6102 14.9015C36.6102 14.9015 37.0258 15.1794 38.604 15.0736C38.604 15.0736 38.8474 15.0736 38.8984 15.1437C38.8984 15.1437 39.1942 15.3694 39.3676 15.1271C39.7092 15.08 40.0545 15.0651 40.3989 15.0825C40.3989 15.0825 41.2505 15.3069 41.8381 14.8276L42.0294 14.8633C42.0294 14.8633 42.2728 15.261 42.4462 15.1399C42.4462 15.1399 42.9663 15.0889 43.053 15.1922C43.053 15.1922 43.2251 15.4471 43.1397 16.1291C43.1397 16.1291 43.0365 16.4236 43.5387 16.4236C43.5387 16.4236 44.1124 16.3191 44.041 16.8558C44.041 16.8558 44.1978 17.4639 43.2442 17.3772C43.1811 17.4633 43.1447 17.5662 43.1397 17.6729C43.1397 17.6729 43.1219 19.6489 43.1053 19.8758C43.1053 19.8758 43.0874 20.1881 43.503 20.169C43.503 20.169 44.0588 20.1333 44.078 20.6368C44.078 20.6368 44.1455 21.2959 43.3475 21.1748C43.3475 21.1748 43.1053 21.2092 43.0683 21.366L43.0365 22.2329C43.0365 22.2329 43.053 22.6663 42.5686 22.5618C42.4985 22.5618 39.8635 22.6153 39.6366 22.5452C39.6366 22.5452 39.5091 22.5286 39.4797 22.5962" fill="#0D0140"/>
<path d="M39.4822 22.5911C39.4822 22.5911 39.2922 23.1992 38.4432 22.5733L35.529 22.5032C35.529 22.5032 35.1466 22.6306 35.0956 22.2265C35.0956 22.2265 35.1657 21.4285 35.13 21.3597C35.13 21.3597 35.1478 21.134 34.7654 21.134C34.7654 21.134 34.1764 21.2041 34.1586 20.6827C34.1586 20.6827 34.0553 20.1282 34.8699 20.146C34.8699 20.146 35.1249 20.2735 35.1478 19.937C35.1478 19.937 35.1134 17.6818 35.13 17.5149C35.13 17.5149 35.2001 17.3071 34.8011 17.2726C34.8011 17.2726 34.2287 17.4001 34.1637 17.0177C34.1637 17.0177 34.1293 16.444 34.5117 16.4096C34.5117 16.4096 34.9796 16.444 35.0663 16.3229C35.0663 16.3229 35.1708 16.3917 35.1529 15.9762L35.1708 15.2635C35.1708 15.2635 35.2205 15.0736 35.5175 15.0927C35.5175 15.0927 36.0542 15.1271 36.1243 15.0736C36.1809 15.0018 36.2329 14.9264 36.2799 14.848C36.2799 14.848 36.5578 14.8314 36.61 14.9002C36.61 14.9002 37.0256 15.1781 38.6038 15.0736C38.6038 15.0736 38.8473 15.0736 38.8983 15.1437C38.8983 15.1437 39.1941 15.3681 39.3674 15.1271C39.7091 15.08 40.0544 15.0651 40.3988 15.0825C40.3988 15.0825 41.2503 15.3069 41.8393 14.8276L42.0305 14.862C42.0305 14.862 42.2727 15.2597 42.4461 15.1399C42.4461 15.1399 42.9662 15.0889 43.0529 15.1909C43.0529 15.1909 43.2263 15.4458 43.1396 16.1279C43.1396 16.1279 43.0363 16.4236 43.5399 16.4236C43.5399 16.4236 44.1123 16.3191 44.0409 16.8558C44.0409 16.8558 44.1977 17.4639 43.2441 17.3772C43.1815 17.4636 43.1452 17.5663 43.1396 17.6729C43.1396 17.6729 43.123 19.6489 43.1052 19.8745C43.1052 19.8745 43.0873 20.1868 43.5042 20.1703C43.5042 20.1703 44.06 20.1346 44.0778 20.6368C44.0778 20.6368 44.1454 21.2959 43.3474 21.1748C43.3474 21.1748 43.1052 21.2105 43.0695 21.366L43.0363 22.2329C43.0363 22.2329 43.0529 22.6663 42.5685 22.5618C42.4996 22.5618 39.8633 22.6153 39.6364 22.5452C39.6339 22.5388 39.5166 22.5223 39.4822 22.5911Z" stroke="#0D0140" stroke-width="0.01"/>
<path d="M36.206 15.4445C36.206 15.4445 36.2404 15.7925 36.2404 15.8805C36.2404 15.9684 36.1881 20.8904 36.1881 20.8904C36.2006 21.0024 36.1813 21.1156 36.1323 21.2171C36.0834 21.3185 36.0069 21.4041 35.9115 21.4641C35.9115 21.4641 35.8235 21.4972 35.807 21.255L35.8414 16.0538C35.8414 16.0538 35.8758 15.4101 36.206 15.4445Z" fill="white"/>
<path d="M36.206 15.4445C36.206 15.4445 36.2404 15.7912 36.2404 15.8792C36.2404 15.9671 36.1894 20.8917 36.1894 20.8917C36.2015 21.0036 36.1819 21.1166 36.1327 21.2178C36.0836 21.3191 36.0069 21.4044 35.9115 21.4641C35.9115 21.4641 35.8235 21.4985 35.807 21.255L35.8414 16.0538C35.8414 16.0538 35.8758 15.4101 36.206 15.4445Z" stroke="#0D0140" stroke-width="0.01"/>
<path d="M35.6337 21.515C35.6337 21.515 35.6681 16.6248 35.6515 16.5432C35.635 16.4616 35.6681 16.6133 35.6681 16.6133C35.6681 16.6133 35.6159 15.763 35.8415 15.415C35.8415 15.415 35.7714 15.1218 35.3736 15.4851L35.3558 16.1914C35.3558 16.1914 35.3558 16.5917 34.9925 16.5738C34.9925 16.5738 34.5756 16.556 34.3844 16.7472C34.3844 16.7472 34.2811 17.1296 34.6789 17.0608C34.6789 17.0608 35.3035 17.0608 35.3392 17.3158L35.2997 19.9367C35.2997 19.9367 35.4387 20.3727 34.9542 20.3727C34.9542 20.3727 34.3627 20.3358 34.3806 20.6991C34.3806 20.6991 34.5081 21.0114 35.0052 20.9081C35.0052 20.9081 35.3698 20.9757 35.352 21.325V21.9828C35.352 21.9828 35.3176 22.2454 35.6643 22.2607H38.3694C38.3694 22.2607 38.5071 22.2786 38.5071 22.1052C38.5071 22.1052 38.4905 21.9662 38.2827 21.9662L36.0327 21.928C36.0327 21.928 35.6681 22.0555 35.6337 21.5111" fill="white"/>
<path d="M36.1537 21.5074C36.1537 21.5074 36.0848 21.7496 36.3449 21.6986H38.1296L38.614 21.8006C38.614 21.8006 39.1163 21.6732 38.614 21.4003C38.614 21.4003 37.0193 21.4169 36.8803 21.3825L36.48 21.2792C36.48 21.2792 36.3079 21.2104 36.1524 21.5036" fill="white"/>
<path d="M36.1538 21.5073C36.1538 21.5073 36.0837 21.7508 36.3437 21.6998H38.1285L38.6142 21.8005C38.6142 21.8005 39.1241 21.673 38.6142 21.4002C38.6142 21.4002 37.0194 21.4155 36.8804 21.3824C36.8804 21.3824 36.5502 21.2957 36.4801 21.2791C36.4814 21.2829 36.3093 21.2128 36.1538 21.5073Z" stroke="#0D0140" stroke-width="0.01"/>
<path d="M39.1241 21.7509C39.1241 21.7509 38.7952 21.7509 38.8118 22.1843C38.8226 22.2771 38.868 22.3625 38.9388 22.4234C39.0097 22.4843 39.1009 22.5164 39.1942 22.5132C39.2835 22.4967 39.3628 22.4458 39.4148 22.3713C39.4668 22.2969 39.4874 22.205 39.4722 22.1155C39.4722 22.1155 39.2809 21.682 39.1254 21.7509" fill="white"/>
<path d="M39.3624 21.5775C39.3624 21.5775 39.5179 21.4041 39.6173 21.4041C39.6173 21.4041 41.3511 21.5596 41.6443 21.3518C41.6443 21.3518 41.9056 21.3008 41.9757 21.3518C41.9757 21.3518 42.2307 21.5596 42.2307 21.682C42.2307 21.682 42.2141 21.8388 41.9018 21.7496L39.8379 21.7687C39.8379 21.7687 39.2999 21.8962 39.3535 21.5775" fill="white"/>
<path d="M39.3611 21.5775C39.3611 21.5775 39.5167 21.4042 39.6161 21.4042C39.6161 21.4042 41.3498 21.5597 41.643 21.3519C41.643 21.3519 41.9056 21.2996 41.9745 21.3519C41.9745 21.3519 42.2294 21.5597 42.2294 21.6821C42.2294 21.6821 42.2129 21.8389 41.9005 21.7509L39.8354 21.7688C39.8354 21.7688 39.3076 21.8899 39.3611 21.5775Z" stroke="#0D0140" stroke-width="0.01"/>
<path d="M39.5868 22.1397C39.5868 22.1397 39.5868 21.9994 39.8303 21.9994L42.2524 21.9829C42.2524 21.9829 42.4781 22.104 42.4781 21.6884C42.4781 21.6884 42.5673 19.7979 42.575 17.7174C42.575 17.0978 42.6056 16.4426 42.5839 15.8447C42.5839 15.8447 42.5304 15.5897 42.4564 15.5311C42.4564 15.5311 42.4564 15.2545 42.7522 15.359C42.7522 15.359 43.0071 15.3768 42.9421 15.7758L42.9612 16.3814C42.9612 16.3814 42.9077 16.6363 43.3755 16.5726C43.3755 16.5726 43.8434 16.6427 43.8612 16.8148C43.8612 16.8148 44.0002 17.1628 43.4469 17.1271H43.0454C42.994 17.1592 42.954 17.2066 42.9311 17.2627C42.9083 17.3188 42.9036 17.3806 42.9179 17.4395L42.8669 19.9559C42.8669 19.9559 42.8312 20.3881 43.2493 20.3715C43.2493 20.3715 43.6828 20.3537 43.7695 20.4926C43.7695 20.4926 44.0665 20.9261 43.4227 20.8916C43.4227 20.8916 43.0237 20.8738 42.937 20.9439C42.937 20.9439 42.8682 21.0293 42.8095 21.8465C42.8095 21.8465 42.8452 22.3322 42.4806 22.2786C42.4806 22.2786 40.0687 22.313 39.8443 22.2608C39.8443 22.2608 39.6021 22.3322 39.5664 22.1333" fill="white"/>
<path d="M36.466 15.2877L36.4138 20.856C36.4138 20.856 36.3972 21.111 36.8306 21.1671C36.8306 21.1671 37.3329 21.2181 37.4527 21.1671C37.4527 21.1671 37.7842 21.1492 38.6332 21.1837C38.6332 21.1837 38.8423 21.394 38.8601 21.1314C38.8601 21.1314 38.9965 16.625 38.929 15.6854C38.929 15.6854 38.9098 15.2877 38.6166 15.2698C38.6166 15.2698 37.2985 15.3769 37.1774 15.2698L36.656 15.1322C36.656 15.1322 36.4482 15.15 36.466 15.2877Z" fill="white"/>
<path d="M39.2057 15.5655C39.2057 15.5655 39.1534 18.1852 39.1712 18.2719L39.1368 20.4735L39.0667 21.2384C39.0667 21.2384 39.1712 21.3939 39.2579 21.2906C39.2579 21.2906 39.8125 21.1504 40.1592 21.2039C40.1592 21.2039 41.2708 21.3072 41.4952 21.1326C41.4952 21.1326 41.6686 21.2192 41.7196 20.9426C41.7196 20.9426 41.7884 16.0882 41.7565 16.0015C41.7565 16.0015 41.8228 15.3054 41.7884 15.2366C41.7884 15.2366 41.7731 15.0811 41.4774 15.2187C41.4774 15.2187 41.5118 15.3577 39.8647 15.3042C39.8647 15.3042 39.2414 15.2876 39.2057 15.5655Z" fill="white"/>
<path d="M41.9644 15.4966L41.9465 20.9782C41.9465 20.9782 42.0855 21.4639 42.3111 21.4181C42.3364 21.3268 42.3531 21.2333 42.3608 21.1389L42.4309 15.9186C42.4309 15.9186 42.2576 15.0874 41.9644 15.5017" fill="white"/>
<path d="M41.9631 15.4967L41.9465 20.9783C41.9465 20.9783 42.0855 21.464 42.3111 21.4181C42.3373 21.327 42.3544 21.2335 42.3621 21.1389L42.4309 15.9123C42.4309 15.9123 42.2576 15.0824 41.9631 15.4967Z" stroke="#0D0140" stroke-width="0.01"/>
<path d="M39.8341 17.1374C39.7818 16.9997 40.1286 16.9818 40.1286 16.9818L40.3032 17.0163C40.3857 17.0087 40.4687 17.0209 40.5454 17.0519C40.5617 17.0762 40.5723 17.1037 40.5767 17.1326C40.5811 17.1614 40.5791 17.1909 40.5708 17.2189C40.5626 17.2469 40.5482 17.2727 40.5289 17.2945C40.5095 17.3163 40.4856 17.3336 40.4588 17.3452L40.3899 17.5721C40.3721 17.7633 40.3899 19.4103 40.3899 19.4103C40.4381 19.4971 40.4963 19.578 40.5633 19.6513C40.5633 19.8081 40.3721 19.7788 40.3721 19.7788L39.8698 19.7966C39.713 19.7788 39.7653 19.6054 39.7653 19.6054C39.9386 19.5187 39.9909 19.2064 39.9909 19.2064V17.4841L39.8341 17.1374Z" fill="#0D0140"/>
<path d="M37.5101 17.3797C37.5279 17.7621 37.5279 18.2822 37.5279 18.2822C37.5657 18.3179 37.6115 18.3439 37.6615 18.3582C37.7114 18.3725 37.7641 18.3747 37.815 18.3644C37.8659 18.3542 37.9137 18.3319 37.9542 18.2994C37.9948 18.2669 38.0269 18.2252 38.048 18.1777C38.4802 17.7621 38.048 17.3797 37.9792 17.2764C37.9104 17.1731 37.5623 17.2585 37.5623 17.2585L37.5101 17.3797ZM37.4935 18.7513L37.4591 19.288L37.6133 19.543C37.7191 19.682 37.5445 19.7865 37.5445 19.7865L36.9899 19.7342C36.8867 19.682 36.9899 19.5086 36.9899 19.5086C37.0355 19.4696 37.0729 19.4218 37.0998 19.3682C37.1267 19.3146 37.1427 19.2561 37.1467 19.1962L37.1289 18.1904L37.1467 17.4625C37.1467 17.3746 37.0078 17.2203 37.0078 17.2203C36.8803 17.2025 36.9211 17.0469 36.9211 17.0469C36.9555 16.959 37.25 17.0112 37.25 17.0112H37.9766C38.6701 17.2369 38.5656 17.7404 38.5656 17.7404C38.6191 18.2427 38.0812 18.4518 38.0812 18.4518L38.0455 18.7284L38.549 19.5251C38.5726 19.5397 38.5916 19.5605 38.604 19.5853C38.6164 19.6101 38.6216 19.6378 38.6191 19.6654C38.549 19.8566 38.2711 19.6654 38.2711 19.6654L37.6477 18.694C37.5942 18.6239 37.4909 18.7462 37.4909 18.7462" fill="#0D0140"/>
<path d="M33.8808 25.4886C33.9465 25.4618 34.0012 25.4138 34.0364 25.3522C34.0364 25.3522 34.4022 25.3165 34.4532 25.2643L35.6006 25.3522C35.6006 25.3522 36.7275 25.4376 37.2132 25.0883C37.3141 25.089 37.4142 25.1071 37.5089 25.1419C37.5089 25.1419 37.7511 25.1954 37.82 25.2974L38.4791 25.2796C38.4791 25.2796 38.8615 25.407 38.8258 25.6454V25.9565C38.8258 25.9565 38.7557 26.5811 38.9291 26.6168H39.439C39.439 26.6168 39.8558 26.8068 39.8023 27.0503C39.8053 27.1497 39.7719 27.2469 39.7083 27.3235C39.6446 27.4 39.5552 27.4506 39.4568 27.4658C39.2989 27.5136 39.1359 27.5427 38.9711 27.5525C38.8956 27.6543 38.8474 27.7736 38.8309 27.8993L38.7799 30.171C38.7799 30.171 38.7442 30.4145 39.1101 30.38C39.1101 30.38 39.6455 30.3278 39.8023 30.6235C39.8023 30.6235 39.9425 31.1258 39.6646 31.2125L39.4568 31.3145L39.0043 31.3871C39.0043 31.3871 38.8156 31.4024 38.7978 31.7326V32.3381C38.7978 32.3381 38.8156 32.7563 38.4842 32.7563L37.9985 32.7907C37.9449 32.8246 37.884 32.8453 37.8208 32.8511C37.7576 32.8568 37.694 32.8475 37.6351 32.8238C37.6351 32.8238 34.6865 32.8774 34.5833 32.8417L34.2352 32.9118C34.2352 32.9118 33.8528 33.2585 33.5417 32.9985L33.2995 32.8073C33.22 32.8245 33.1384 32.8301 33.0573 32.8238C32.9872 32.8073 29.7964 32.8595 29.7964 32.8595C29.7964 32.8595 29.1195 32.9296 29.0685 32.7027C29.0685 32.7027 28.9818 31.8193 29.0162 31.7135C29.0162 31.7135 29.0162 31.4585 28.8607 31.4381C28.8607 31.4381 28.1837 31.4024 28.1659 31.3323C28.1659 31.3323 27.8013 31.0774 27.9109 30.8135C27.9498 30.7118 28.0155 30.6226 28.101 30.5553C28.1866 30.4879 28.2887 30.445 28.3966 30.431C28.3966 30.431 28.9512 30.519 28.9512 30.3622C28.977 30.2723 28.989 30.179 28.9869 30.0856C28.9869 30.0856 29.0213 28.0204 29.0034 27.8827C29.0034 27.8827 29.0557 27.6277 28.8301 27.6277C28.6977 27.6658 28.5558 27.653 28.4323 27.592C28.4323 27.592 28.0155 27.6099 27.9224 27.2797C27.8836 27.1526 27.896 27.0154 27.9568 26.8973C27.9568 26.8973 28.1481 26.5148 28.7026 26.6423C28.7026 26.6423 29.0149 26.729 29.0493 26.5046L29.0328 25.6709C29.0328 25.6709 28.9627 25.4466 29.3961 25.3254C29.3961 25.3254 29.9519 25.481 30.124 25.198C30.124 25.198 30.3152 24.8155 30.4695 25.0705C30.4695 25.0705 30.8009 25.3841 31.7022 25.3509C31.7022 25.3509 33.2638 25.2235 33.2983 25.2961C33.2983 25.2961 33.6807 25.3509 33.784 25.4708L33.8808 25.4886Z" fill="#0D0140"/>
<path d="M33.8809 25.4671C33.9466 25.4397 34.0013 25.3913 34.0364 25.3294C34.0364 25.3294 34.401 25.295 34.4533 25.2427L35.6006 25.3294C35.6006 25.3294 36.7275 25.4161 37.2132 25.0681C37.3142 25.0687 37.4142 25.0868 37.509 25.1216C37.509 25.1216 37.7512 25.1739 37.82 25.2758L38.4804 25.2593C38.4804 25.2593 38.8628 25.3868 38.8258 25.6239V25.9362C38.8258 25.9362 38.757 26.5609 38.9304 26.5953H39.4339C39.4339 26.5953 39.8495 26.7865 39.7985 27.0287C39.8015 27.1285 39.768 27.226 39.7041 27.3028C39.6402 27.3796 39.5505 27.4304 39.4518 27.4456C39.2938 27.4933 39.1308 27.5224 38.9661 27.5323C38.8914 27.6344 38.8432 27.7536 38.8258 27.879L38.7749 30.1507C38.7749 30.1507 38.7392 30.3929 39.1037 30.3585C39.1037 30.3585 39.6404 30.3075 39.7985 30.602C39.7985 30.602 39.9375 31.1042 39.6596 31.1922L39.4518 31.2955L38.9967 31.3618C38.9967 31.3618 38.8067 31.3783 38.7901 31.7072V32.3153C38.7901 32.3153 38.8067 32.7309 38.4778 32.7309L37.9921 32.7666C37.9384 32.8008 37.8774 32.8218 37.814 32.8278C37.7506 32.8338 37.6867 32.8246 37.6275 32.801C37.6275 32.801 34.6789 32.8533 34.5756 32.8163L34.2276 32.8877C34.2276 32.8877 33.8452 33.2344 33.5341 32.9731L33.2919 32.7819C33.2124 32.799 33.1309 32.8054 33.0497 32.801C32.9796 32.7819 29.7888 32.8354 29.7888 32.8354C29.7888 32.8354 29.1118 32.9055 29.0596 32.6786C29.0596 32.6786 28.9742 31.7939 29.0086 31.6894C29.0086 31.6894 29.0086 31.4344 28.8518 31.4128C28.8518 31.4128 28.1761 31.3783 28.1583 31.3095C28.1583 31.3095 27.7937 31.0482 27.9033 30.7894C27.9422 30.6877 28.0079 30.5985 28.0934 30.5312C28.179 30.4638 28.2811 30.4209 28.389 30.4069C28.389 30.4069 28.9436 30.4962 28.9436 30.3381C28.9693 30.2486 28.9813 30.1558 28.9793 30.0627C28.9793 30.0627 29.0137 27.9976 28.9958 27.8586C28.9958 27.8586 29.0481 27.6036 28.8225 27.6036C28.6898 27.6417 28.5477 27.6294 28.4234 27.5692C28.4234 27.5692 28.0079 27.5858 27.9212 27.2569C27.8824 27.1298 27.8947 26.9926 27.9556 26.8745C27.9556 26.8745 28.1455 26.492 28.7014 26.6195C28.7014 26.6195 29.0137 26.7075 29.0481 26.4831L29.0303 25.6494C29.0303 25.6494 28.9614 25.4237 29.3948 25.3026C29.3948 25.3026 29.9494 25.4581 30.1228 25.1751C30.1228 25.1751 30.314 24.7927 30.4682 25.0477C30.4682 25.0477 30.7997 25.3613 31.701 25.3268C31.701 25.3268 33.2626 25.1994 33.297 25.2733C33.297 25.2733 33.6795 25.3268 33.7827 25.4479L33.8809 25.4671Z" stroke="#0D0140" stroke-width="0.01"/>
<path d="M34.3321 32.3049C34.4392 32.249 34.5599 32.2247 34.6802 32.2348C34.8191 32.2692 36.8473 32.2182 36.8473 32.2182C36.8473 32.2182 37.732 32.2871 37.8672 32.1647L38.0737 32.0958C38.1276 32.0263 38.1579 31.9415 38.1604 31.8536C38.1604 31.7134 38.1782 31.2455 38.1782 31.2455L38.2318 31.0734C38.2318 31.0734 38.2139 30.9001 38.2318 26.2687C38.2318 26.2687 38.2993 25.9067 38.0737 25.6798C38.0737 25.6798 38.0737 25.5421 38.1425 25.5523C38.2114 25.5625 38.1782 25.5701 38.1782 25.5701C38.1782 25.5701 38.4905 25.4822 38.5415 25.6033C38.5415 25.6033 38.6818 26.0189 38.5594 26.2623C38.5594 26.2623 38.525 26.7723 38.7863 26.7723C38.8295 26.8065 38.8807 26.8293 38.9351 26.8385C38.9895 26.8476 39.0453 26.8428 39.0974 26.8245C39.0974 26.8245 39.5486 26.8768 39.5486 27.0145C39.5496 27.0534 39.5417 27.092 39.5255 27.1274C39.5093 27.1627 39.4851 27.1939 39.455 27.2185C39.4248 27.2432 39.3895 27.2605 39.3516 27.2694C39.3136 27.2782 39.2742 27.2782 39.2363 27.2694L38.8194 27.3026C38.7371 27.322 38.6657 27.373 38.6204 27.4444C38.5751 27.5159 38.5596 27.6023 38.5772 27.685C38.6129 28.0139 38.5594 30.3736 38.5594 30.3736C38.5594 30.3736 38.5594 30.6515 38.9941 30.6285C38.9941 30.6285 39.5308 30.6107 39.5308 30.7662C39.5308 30.7662 39.6697 31.113 39.2886 31.1308C39.2886 31.1308 38.5594 31.113 38.6129 31.3208C38.5942 31.513 38.5648 31.7041 38.525 31.8931C38.525 31.8931 38.5951 32.2934 38.5071 32.3623C38.5071 32.3623 38.4561 32.5866 37.9883 32.5535C37.9883 32.5535 35.0052 32.5356 34.5374 32.5701C34.5374 32.5701 34.2595 32.5356 34.3283 32.2934" fill="white"/>
<path d="M33.7953 31.9748C33.8749 31.9876 33.9476 32.0275 34.0012 32.0876C34.0548 32.1477 34.0861 32.2245 34.0898 32.305C34.0898 32.5816 34.1076 32.7372 33.933 32.7716C33.89 32.7858 33.8444 32.7908 33.7994 32.7861C33.7543 32.7814 33.7107 32.7672 33.6716 32.7444C33.6324 32.7216 33.5985 32.6908 33.5722 32.654C33.5458 32.6171 33.5276 32.5751 33.5187 32.5306C33.4651 32.305 33.5518 32.0207 33.7953 31.9748Z" fill="white"/>
<path d="M34.1421 31.8371C34.1421 31.8371 34.4532 31.6268 34.5756 31.6637C34.5756 31.6637 36.1525 31.7657 36.6395 31.6816C37.1265 31.5974 36.8294 31.6637 36.8294 31.6637C36.8294 31.6637 37.2463 31.6637 37.3661 31.5057C37.4034 31.4972 37.4424 31.5013 37.4772 31.5172C37.512 31.5331 37.5406 31.5599 37.5586 31.5936L37.8136 31.8728C37.8136 31.8728 37.8327 32.0449 37.5369 32.0271C37.5369 32.0271 34.7094 32.0271 34.624 32.0449C34.624 32.0449 34.0861 32.1303 34.1383 31.8371" fill="white"/>
<path d="M34.1409 31.837C34.1409 31.837 34.4532 31.6267 34.5743 31.6624C34.5743 31.6624 36.1538 31.7656 36.6395 31.6815C37.1252 31.5974 36.8294 31.6624 36.8294 31.6624C36.8294 31.6624 37.2463 31.6624 37.3674 31.5056C37.4045 31.4972 37.4433 31.5013 37.4779 31.5172C37.5124 31.5331 37.5408 31.5599 37.5586 31.5936L37.8136 31.8727C37.8136 31.8727 37.8327 32.0448 37.5369 32.027C37.5369 32.027 34.7094 32.027 34.6227 32.0448C34.6266 32.0448 34.0899 32.1264 34.1409 31.837Z" stroke="#0D0140" stroke-width="0.01"/>
<path d="M30.0322 25.6799C30.0322 25.6799 30.1533 25.6799 30.1354 25.8877L30.101 31.1259C30.1129 31.234 30.0968 31.3434 30.0544 31.4436C30.012 31.5438 29.9447 31.6314 29.8588 31.6983C29.8588 31.6983 29.702 31.8882 29.702 31.5937L29.7721 26.2523C29.7721 26.2523 29.7887 25.8533 30.0271 25.6799" fill="white"/>
<path d="M30.0322 25.6799C30.0322 25.6799 30.1533 25.6799 30.1368 25.8877L30.1011 31.1259C30.1128 31.2341 30.0965 31.3436 30.0539 31.4438C30.0113 31.544 29.9437 31.6316 29.8576 31.6983C29.8576 31.6983 29.7008 31.8882 29.7008 31.595L29.7709 26.2523C29.7709 26.2523 29.7887 25.8533 30.0322 25.6799Z" stroke="#0D0140" stroke-width="0.01"/>
<path d="M29.7543 25.7144C29.7543 25.7144 29.5465 26.0968 29.563 26.1848L29.5465 27.3448C29.5465 27.3448 29.5286 28.0906 29.5465 28.1773C29.5643 28.264 29.5286 30.449 29.5286 30.449C29.5286 30.449 29.5108 30.8646 29.5286 31.0048V31.9405C29.5286 31.9405 29.4942 32.3574 29.8053 32.2515C29.8053 32.2515 32.8584 32.1827 33.0496 32.2362C33.0496 32.2362 33.3263 32.2872 33.223 32.4262C33.223 32.4262 33.223 32.5537 33.0318 32.5129C32.121 32.5944 31.2063 32.6234 30.2922 32.5996C30.2922 32.5996 29.4241 32.6506 29.3718 32.5486C29.3718 32.5486 29.2341 32.5307 29.2341 32.0272C29.2374 31.8417 29.2259 31.6563 29.1997 31.4726C29.1997 31.4726 29.2341 31.2279 28.8007 31.1769C28.8007 31.1769 28.1939 31.2814 28.1761 30.9219C28.1761 30.9219 28.2627 30.667 28.853 30.695C28.853 30.695 29.2864 30.7651 29.1997 30.4171L29.2507 27.8522C29.2507 27.8522 29.3043 27.3996 29.0085 27.3818C28.8867 27.3735 28.7643 27.3795 28.6439 27.3996C28.6439 27.3996 28.1416 27.3996 28.1761 27.1064C28.1761 27.1064 28.3494 26.7941 28.853 26.863C28.853 26.863 29.2354 26.9318 29.2507 26.4996C29.2507 26.4996 29.2341 25.6149 29.4419 25.5805C29.4419 25.5805 29.8754 25.5971 29.7543 25.7182" fill="white"/>
<path d="M30.2744 31.4547C30.3592 31.5355 30.4592 31.5986 30.5686 31.6404C30.6781 31.6822 30.7947 31.7018 30.9118 31.6982L33.2676 31.7326C33.2676 31.7326 33.5302 31.7505 33.5136 31.8882C33.5136 31.8882 33.4767 32.096 33.1656 32.0258L30.3279 31.9991L30.0143 32.0169C30.0143 32.0169 29.8065 31.9812 30.1418 31.5835L30.2744 31.4547Z" fill="white"/>
<path d="M30.273 31.4535C30.3588 31.5349 30.4598 31.5985 30.5704 31.6405C30.6809 31.6825 30.7986 31.7022 30.9168 31.6983L33.2739 31.7327C33.2739 31.7327 33.5289 31.7505 33.5187 31.8882C33.5187 31.8882 33.483 32.096 33.1719 32.0272L30.3279 31.9991L30.0155 32.017C30.0155 32.017 29.8077 31.9825 30.143 31.5823L30.273 31.4535Z" stroke="#0D0140" stroke-width="0.01"/>
<path d="M37.5587 31.2342C37.5587 31.2342 37.7665 31.6332 37.871 31.688C37.871 31.688 38.061 31.9124 38.01 31.5133L38.0444 26.5187C38.0107 26.3701 38.0107 26.2159 38.0444 26.0674L37.8366 25.6849C37.8366 25.6849 37.6097 25.5116 37.6097 25.7882L37.5753 31.1067L37.5587 31.2342Z" fill="white"/>
<path d="M37.5572 31.2342C37.5572 31.2342 37.7663 31.6332 37.8708 31.6893C37.8708 31.6893 38.062 31.9124 38.0098 31.5133L38.0442 26.5174C38.0111 26.3692 38.0111 26.2156 38.0442 26.0674L37.8364 25.6849C37.8364 25.6849 37.6095 25.5116 37.6095 25.7882L37.5751 31.1067L37.5572 31.2342Z" stroke="#0D0140" stroke-width="0.01"/>
<path d="M33.7088 28.8528C33.717 29.1244 33.705 29.3962 33.6731 29.6661C33.645 29.8854 33.7432 30.8988 33.6552 31.419C33.6552 31.419 33.6399 31.5923 33.2728 31.4368C33.2728 31.4368 31.0533 31.4878 30.9781 31.419C30.9781 31.419 30.3713 31.4368 30.3191 31.1245C30.3191 31.1245 30.4057 28.7482 30.3535 28.6603C30.3535 28.6603 30.3191 27.36 30.3535 27.2389C30.3535 27.2389 30.4057 26.0418 30.3713 25.9042C30.3809 25.7642 30.3689 25.6236 30.3356 25.4873C30.3356 25.4873 30.3356 25.3139 30.6314 25.4172C30.6314 25.4172 30.7346 25.6084 31.307 25.523C31.5772 25.5633 31.8514 25.5689 32.1229 25.5396C32.1229 25.5396 33.0063 25.4707 33.2333 25.5396C33.3344 25.5221 33.4384 25.5452 33.5227 25.6039C33.6069 25.6626 33.6646 25.7522 33.6833 25.8532L33.6654 26.9278L33.7687 27.2746L33.8962 27.1879L33.9471 26.9329L33.965 25.7856C33.9947 25.7167 34.043 25.6574 34.1044 25.6144C34.1659 25.5714 34.2381 25.5464 34.313 25.5421C34.313 25.5421 34.7464 25.4898 34.8229 25.5255C35.2425 25.5824 35.6669 25.5935 36.0888 25.5587C36.3438 25.5077 36.3986 25.7321 37.1813 25.3343C37.1813 25.3343 37.3891 25.3522 37.3891 25.4898C37.3891 25.4898 37.3177 26.9661 37.3891 27.2414C37.3891 27.2414 37.3891 29.9466 37.3356 30.1378L37.37 31.0046C37.37 31.0046 37.4044 31.3871 36.7989 31.4215C36.7989 31.4215 37.1813 31.4738 34.786 31.4037C34.511 31.403 34.2391 31.4621 33.9892 31.577C33.9892 31.577 33.9025 31.5592 33.9025 31.3348C33.9425 30.7976 33.9425 30.2581 33.9025 29.7209L33.8681 28.8362L33.7088 28.8528Z" fill="white"/>
<path d="M32.147 27.6226C32.147 27.6226 32.1992 28.9051 32.147 29.0785L32.1304 29.3564C32.1665 29.4543 32.226 29.5418 32.3038 29.6113C32.3038 29.6113 32.3905 29.8536 32.1763 29.837C31.9979 29.8209 31.8187 29.8145 31.6396 29.8179C31.6396 29.8179 31.3961 29.8179 31.6396 29.5081C31.7065 29.3737 31.7306 29.2219 31.7084 29.0734C31.7084 29.0734 31.7084 27.6175 31.7441 27.5321C31.7441 27.5321 31.7786 27.3396 31.6562 27.2874L31.4484 27.3052L31.1934 27.5474C31.1934 27.5474 31.1412 27.8024 31.02 27.5321V27.3919L31.1768 26.975L31.2801 26.9572C31.3712 27.0176 31.4703 27.0648 31.5746 27.0974H32.3905L32.6849 26.9572C32.6849 26.9572 32.8124 26.975 32.7729 27.1318C32.7729 27.1318 32.8239 27.5321 32.5983 27.5819C32.5485 27.5583 32.5044 27.5246 32.4685 27.4829C32.4327 27.4412 32.4061 27.3923 32.3905 27.3396C32.3905 27.3396 32.1648 27.2198 32.147 27.6175" fill="#0D0140"/>
<path d="M35.9791 27.1549C35.8899 27.147 35.8002 27.1585 35.7159 27.1885C35.6316 27.2185 35.5548 27.2664 35.4908 27.3289C35.4267 27.3914 35.3769 27.4669 35.3448 27.5504C35.3127 27.6339 35.299 27.7234 35.3047 27.8127C35.3047 27.8127 35.2333 28.2997 35.9625 28.612C35.9625 28.612 36.5005 28.867 36.4648 29.201C36.4648 29.201 36.3959 29.7899 35.8274 29.4954C35.8274 29.4954 35.5507 29.3565 35.5724 29.201C35.5724 29.201 35.4844 29.0097 35.3812 29.0442C35.3812 29.0442 35.2537 29.0786 35.3123 29.651C35.3123 29.651 35.3123 29.8766 35.5673 29.651L35.7037 29.6867C35.7037 29.6867 36.1728 30.0691 36.5706 29.5987C36.5706 29.5987 37.0053 29.201 36.6981 28.7153C36.5392 28.4908 36.3243 28.3119 36.0747 28.1964C36.0747 28.1964 35.6922 28.0205 35.6068 27.726C35.6068 27.726 35.7343 27.2059 36.1945 27.4825C36.2719 27.5796 36.366 27.662 36.4724 27.726C36.4724 27.726 36.6114 27.726 36.5757 27.4124L36.5438 27.1575C36.5438 27.1575 36.5081 26.9637 36.2646 27.1575C36.2646 27.1575 36.039 27.2429 35.9867 27.1575" fill="#0D0140"/>
<path d="M33.5875 27.9337C33.5696 28.0204 33.4472 28.5061 33.4472 28.5061L33.5518 28.682C33.5518 28.682 33.8297 28.6973 33.9342 28.6973C34.0387 28.6973 34.0617 28.6119 34.0617 28.524C34.0106 28.3179 33.9467 28.1153 33.8705 27.9172L33.7825 27.8139L33.5875 27.9337ZM33.8641 26.7864C33.9412 26.8533 33.9907 26.9464 34.0031 27.0477C34.2585 27.7866 34.4713 28.5396 34.6405 29.3029C34.704 29.4192 34.7862 29.5243 34.8839 29.6139C35.1784 29.7185 34.8839 29.8039 34.8839 29.8039C34.7565 29.8574 34.3638 29.7886 34.3638 29.7886C34.1548 29.7516 34.2363 29.684 34.2363 29.684C34.3243 29.5973 34.2555 29.2493 34.2555 29.2493C34.2183 29.1194 34.1597 28.9966 34.0821 28.886C34.0132 28.8503 33.8909 29.0135 33.8909 29.0135C33.8909 29.0135 33.7009 29.0823 33.6831 29.0135C33.6652 28.9446 33.5441 28.8771 33.5441 28.8771C33.3363 28.8771 33.2496 29.3934 33.2496 29.3934C33.3771 29.8281 33.2496 29.758 33.2496 29.758C33.1464 29.8982 32.8162 29.7949 32.8162 29.7949C32.6594 29.758 32.7652 29.6369 32.7652 29.6369C32.8236 29.6217 32.8767 29.5911 32.9191 29.5482C32.9615 29.5054 32.9916 29.4519 33.0062 29.3934C33.0941 29.2735 33.6436 27.0184 33.6436 27.0184C33.6971 26.9139 33.7315 26.7061 33.8526 26.7928" fill="#0D0140"/>
<path d="M29.1666 22.5896C29.1666 22.5896 28.9754 23.1977 28.1251 22.5731L25.2122 22.503C25.2122 22.503 24.8298 22.6304 24.7775 22.2263C24.7775 22.2263 24.8476 21.4283 24.8119 21.3595C24.8119 21.3595 24.8298 21.1325 24.4486 21.1325C24.4486 21.1325 23.8596 21.2039 23.8431 20.6825C23.8431 20.6825 23.7373 20.1267 24.5531 20.1458C24.5531 20.1458 24.8081 20.2733 24.8298 19.9368C24.8298 19.9368 24.7953 17.6829 24.8119 17.5147C24.8119 17.5147 24.882 17.3081 24.483 17.2724C24.483 17.2724 23.9106 17.3999 23.8456 17.0175C23.8456 17.0175 23.8099 16.4464 24.1911 16.4107C24.1911 16.4107 24.6589 16.4464 24.7456 16.3253C24.7456 16.3253 24.8502 16.3928 24.8323 15.976L24.8463 15.2544C24.8463 15.2544 24.8986 15.0632 25.1918 15.0811C25.1918 15.0811 25.7311 15.1155 25.8012 15.0632C25.8581 14.9919 25.9097 14.9165 25.9554 14.8376C25.9554 14.8376 26.2346 14.8223 26.2856 14.8898C26.2856 14.8898 26.7012 15.169 28.2819 15.0632C28.2819 15.0632 28.5229 15.0632 28.5751 15.1333C28.5751 15.1333 28.8696 15.359 29.043 15.1155C29.3884 15.0722 29.737 15.0607 30.0845 15.0811C30.0845 15.0811 30.9322 15.3067 31.5225 14.8261L31.7124 14.8605C31.7124 14.8605 31.9559 15.2583 32.1306 15.1371C32.1306 15.1371 32.6507 15.0849 32.7374 15.1894C32.7374 15.1894 32.9107 15.4444 32.8228 16.1264C32.8228 16.1264 32.7195 16.4209 33.2218 16.4209C33.2218 16.4209 33.7942 16.3176 33.7317 16.853C33.7317 16.853 33.8885 17.4611 32.935 17.3744C32.872 17.4608 32.8353 17.5635 32.8292 17.6702C32.8292 17.6702 32.8126 19.6461 32.796 19.873C32.796 19.873 32.7782 20.1828 33.195 20.1662C33.195 20.1662 33.7496 20.1305 33.7661 20.6354C33.7661 20.6354 33.835 21.2932 33.0382 21.1721C33.0382 21.1721 32.796 21.2078 32.7603 21.3633L32.7259 22.2301C32.7259 22.2301 32.7437 22.6636 32.2568 22.5603C32.1879 22.5603 29.5529 22.6113 29.3247 22.5425C29.3247 22.5425 29.1972 22.5259 29.1692 22.5935" fill="#0D0140"/>
<path d="M29.1666 22.5909C29.1666 22.5909 28.9753 23.199 28.125 22.5731L25.2108 22.503C25.2108 22.503 24.8284 22.6304 24.7774 22.2263C24.7774 22.2263 24.8475 21.4283 24.8118 21.3595C24.8118 21.3595 24.8297 21.1338 24.4472 21.1338C24.4472 21.1338 23.8583 21.2039 23.8417 20.6838C23.8417 20.6838 23.7372 20.1267 24.553 20.1458C24.553 20.1458 24.808 20.2733 24.8297 19.9368C24.8297 19.9368 24.7953 17.6817 24.8118 17.5147C24.8118 17.5147 24.8819 17.3081 24.4829 17.2724C24.4829 17.2724 23.9105 17.3999 23.8455 17.0175C23.8455 17.0175 23.8098 16.4464 24.1923 16.4119C24.1923 16.4119 24.6601 16.4464 24.7468 16.3265C24.7468 16.3265 24.8513 16.3941 24.8335 15.9772L24.8462 15.2544C24.8462 15.2544 24.8985 15.0632 25.1917 15.0811C25.1917 15.0811 25.731 15.1155 25.7998 15.0632C25.8573 14.992 25.9093 14.9166 25.9553 14.8376C25.9553 14.8376 26.2332 14.821 26.2855 14.8898C26.2855 14.8898 26.7011 15.1677 28.2818 15.0632C28.2818 15.0632 28.5228 15.0632 28.575 15.1333C28.575 15.1333 28.8695 15.3577 29.0429 15.1155C29.3883 15.0722 29.7369 15.0607 30.0844 15.0811C30.0844 15.0811 30.9322 15.3054 31.5224 14.8261L31.7136 14.8618C31.7136 14.8618 31.9558 15.2595 32.1305 15.1384C32.1305 15.1384 32.6506 15.0862 32.7386 15.1894C32.7386 15.1894 32.9107 15.4444 32.824 16.1264C32.824 16.1264 32.7194 16.4221 33.2217 16.4221C33.2217 16.4221 33.7954 16.3189 33.7316 16.8543C33.7316 16.8543 33.8884 17.4624 32.9349 17.3757C32.8717 17.4619 32.8353 17.5647 32.8303 17.6715C32.8303 17.6715 32.8125 19.6474 32.7959 19.873C32.7959 19.873 32.7781 20.1841 33.1949 20.1688C33.1949 20.1688 33.7495 20.1318 33.7673 20.6366C33.7673 20.6366 33.8349 21.2944 33.0381 21.1733C33.0381 21.1733 32.7959 21.209 32.7602 21.3646L32.7258 22.2314C32.7258 22.2314 32.7449 22.6649 32.2567 22.5616C32.1878 22.5616 29.5528 22.6126 29.3246 22.5438C29.3221 22.5387 29.201 22.5221 29.1666 22.5909Z" stroke="#0D0140" stroke-width="0.01"/>
<path d="M25.8879 15.4458C25.8879 15.4458 25.9236 15.7926 25.9236 15.8793C25.9236 15.966 25.8662 20.8905 25.8662 20.8905C25.8792 21.0024 25.8601 21.1156 25.8111 21.2169C25.7621 21.3183 25.6853 21.4036 25.5896 21.4629C25.5896 21.4629 25.5029 21.4986 25.485 21.2564L25.5207 16.0539C25.5207 16.0539 25.5551 15.4165 25.884 15.4458" fill="white"/>
<path d="M25.8889 15.4457C25.8889 15.4457 25.9234 15.7912 25.9234 15.8779C25.9234 15.9645 25.866 20.8904 25.866 20.8904C25.8787 21.0025 25.8593 21.1159 25.8101 21.2174C25.7609 21.319 25.6839 21.4045 25.5881 21.464C25.5881 21.464 25.5014 21.4997 25.4836 21.2563L25.518 16.0538C25.518 16.0538 25.5575 15.4113 25.8889 15.4457Z" stroke="#0D0140" stroke-width="0.01"/>
<path d="M25.3154 21.515C25.3154 21.515 25.3499 16.6248 25.3333 16.5369C25.3167 16.4489 25.3499 16.607 25.3499 16.607C25.3499 16.607 25.2989 15.7592 25.5245 15.4112C25.5245 15.4112 25.4544 15.1167 25.0554 15.4801L25.0401 16.1914C25.0401 16.1914 25.0401 16.5904 24.6742 16.5738C24.6742 16.5738 24.2574 16.556 24.0661 16.7485C24.0661 16.7485 23.9629 17.1309 24.3606 17.0608C24.3606 17.0608 24.9865 17.0608 25.021 17.3158L24.9865 19.9368C24.9865 19.9368 25.1255 20.3702 24.6385 20.3702C24.6385 20.3702 24.0496 20.3371 24.0661 20.7016C24.0661 20.7016 24.1936 21.014 24.6921 20.9082C24.6921 20.9082 25.0554 20.9783 25.0401 21.3238V21.9841C25.0401 21.9841 25.0031 22.2391 25.3499 22.2607H28.0563C28.0563 22.2607 28.194 22.2786 28.194 22.1039C28.194 22.1039 28.1774 21.9675 27.9696 21.9675L25.7157 21.928C25.7157 21.928 25.3562 22.0555 25.3154 21.515Z" fill="white"/>
<path d="M25.7844 21.5456C25.7844 21.5456 25.7156 21.7891 25.9744 21.7355H27.7591L28.2448 21.8388C28.2448 21.8388 28.7547 21.7113 28.2448 21.4398C28.2448 21.4398 26.65 21.4589 26.5111 21.4232C26.5111 21.4232 26.1822 21.3365 26.112 21.3199C26.112 21.3199 25.9387 21.2511 25.7831 21.5456" fill="white"/>
<path d="M25.7831 21.5458C25.7831 21.5458 25.7143 21.7905 25.9744 21.737H27.7591L28.2461 21.8415C28.2461 21.8415 28.756 21.7204 28.2461 21.4413C28.2461 21.4413 26.65 21.4604 26.5111 21.4247L26.112 21.3214C26.112 21.3214 25.9387 21.2551 25.7831 21.5458Z" stroke="#0D0140" stroke-width="0.01"/>
<path d="M28.7496 21.8007C28.7496 21.8007 28.4156 21.8007 28.4373 22.2252C28.4478 22.3184 28.4929 22.4042 28.5638 22.4656C28.6346 22.527 28.726 22.5595 28.8197 22.5567C28.9089 22.5396 28.988 22.4883 29.0399 22.4137C29.0918 22.3392 29.1125 22.2473 29.0976 22.1577C29.0976 22.1577 28.9064 21.7229 28.7509 21.7943" fill="white"/>
<path d="M28.992 21.6197C28.992 21.6197 29.1475 21.4463 29.247 21.4463C29.247 21.4463 30.9807 21.6018 31.2752 21.394C31.2752 21.394 31.5301 21.343 31.6041 21.394C31.6041 21.394 31.859 21.6018 31.859 21.7229C31.859 21.7229 31.8425 21.881 31.5314 21.7943L29.4662 21.8109C29.4662 21.8109 28.9283 21.9384 28.9805 21.6197" fill="white"/>
<path d="M28.9919 21.6195C28.9919 21.6195 29.1474 21.4449 29.2469 21.4449C29.2469 21.4449 30.9819 21.6017 31.2763 21.3939C31.2763 21.3939 31.5313 21.3416 31.6065 21.3939C31.6065 21.3939 31.8615 21.6017 31.8615 21.724C31.8615 21.724 31.8436 21.8808 31.5326 21.7941L29.4674 21.8107C29.4674 21.8107 28.9396 21.928 28.9919 21.6195Z" stroke="#0D0140" stroke-width="0.01"/>
<path d="M29.2697 22.1398C29.2697 22.1398 29.2697 22.0021 29.5107 22.0021L31.9404 21.9843C31.9404 21.9843 32.1648 22.1041 32.1648 21.6885C32.1648 21.6885 32.254 19.798 32.2617 17.7162C32.2617 17.098 32.2923 16.4414 32.2693 15.8448C32.2693 15.8448 32.2171 15.5899 32.1419 15.5325C32.1419 15.5325 32.1419 15.2546 32.4376 15.3604C32.4376 15.3604 32.6926 15.377 32.6276 15.7747L32.6441 16.3815C32.6441 16.3815 32.5919 16.6365 33.061 16.5727C33.061 16.5727 33.5288 16.6416 33.5454 16.815C33.5454 16.815 33.6856 17.163 33.1311 17.1273H32.7385C32.6869 17.1592 32.6469 17.2066 32.6239 17.2627C32.601 17.3188 32.5965 17.3808 32.611 17.4396L32.5587 19.9548C32.5587 19.9548 32.523 20.3882 32.9412 20.3717C32.9412 20.3717 33.3746 20.3538 33.46 20.4928C33.46 20.4928 33.757 20.9262 33.1145 20.8918C33.1145 20.8918 32.7155 20.8739 32.6288 20.9428C32.6288 20.9428 32.56 21.0307 32.5013 21.8453C32.5013 21.8453 32.5358 22.331 32.1712 22.2788C32.1712 22.2788 29.7605 22.3119 29.5362 22.2609C29.5362 22.2609 29.2927 22.331 29.2582 22.1334" fill="white"/>
<path d="M26.1478 15.289L26.0968 20.856C26.0968 20.856 26.0789 21.111 26.5124 21.1671C26.5124 21.1671 27.0223 21.2193 27.137 21.1671C27.137 21.1671 27.4646 21.1492 28.3162 21.1849C28.3162 21.1849 28.524 21.3914 28.5406 21.1327C28.5406 21.1327 28.6795 16.6224 28.6107 15.6867C28.6107 15.6867 28.5941 15.289 28.2971 15.2711C28.2971 15.2711 26.9802 15.3744 26.8591 15.2711L26.339 15.1322C26.339 15.1322 26.1299 15.1487 26.1478 15.289Z" fill="white"/>
<path d="M31.6448 15.4968L31.6283 20.9785C31.6283 20.9785 31.7672 21.4654 31.9929 21.4144C32.0192 21.3233 32.0367 21.2298 32.0451 21.1353L32.1152 15.9086C32.1152 15.9086 31.9406 15.0761 31.6448 15.493" fill="white"/>
<path d="M31.6448 15.4968L31.6283 20.9785C31.6283 20.9785 31.7672 21.4654 31.9929 21.4144C32.0192 21.3233 32.0367 21.2298 32.0451 21.1353L32.1152 15.9086C32.1152 15.9086 31.9406 15.0761 31.6448 15.493" stroke="#0D0140" stroke-width="0.01"/>
<path d="M31.6448 15.4968L31.6283 20.9785C31.6283 20.9785 31.7672 21.4655 31.9929 21.4145C32.0192 21.3233 32.0367 21.2298 32.0451 21.1353L32.1152 15.9086C32.1152 15.9086 31.9406 15.08 31.6448 15.4968Z" stroke="#0D0140" stroke-width="0.01"/>
<path d="M28.8886 15.5439C28.8886 15.5439 28.8364 18.161 28.8529 18.249L28.8211 20.4519L28.7497 21.2167C28.7497 21.2167 28.8529 21.3748 28.9409 21.2703C28.9409 21.2703 29.4954 21.1326 29.8422 21.1836C29.8422 21.1836 30.9525 21.2881 31.1782 21.1148C31.1782 21.1148 31.3516 21.2014 31.4038 20.9235C31.4038 20.9235 31.4727 16.0678 31.4382 15.9811C31.4382 15.9811 31.5071 15.2889 31.4727 15.2162C31.4727 15.2162 31.4548 15.0582 31.1616 15.1958C31.1616 15.1958 31.1948 15.3361 29.5477 15.2851C29.5477 15.2851 28.9231 15.266 28.8886 15.54" fill="white"/>
<path d="M28.3532 17.1475L28.1964 17.4777C28.1964 17.4777 27.8165 19.1591 27.6087 19.5059C27.6087 19.5059 27.5743 19.8539 27.2785 19.576C27.2785 19.576 26.6016 17.4432 26.5672 17.3731L26.3416 17.2176C26.3416 17.2176 26.2051 17.0264 26.4461 17.0098L27.0835 17.0264C27.0835 17.0264 27.2913 17.1998 27.0134 17.3923C27.0134 17.3923 27.0478 17.6689 27.4124 18.7257C27.4124 18.7257 27.5156 19.1247 27.638 18.8302L27.9899 17.5937L27.8853 17.2291C27.8853 17.2291 27.7808 17.0557 27.9376 17.0391C27.9376 17.0391 28.3022 17.0047 28.3532 17.1424" fill="#0D0140"/>
<path d="M29.3602 17.4256L29.3411 19.2638L29.2914 19.4028C29.2914 19.4028 29.1167 19.6272 29.2378 19.645C29.2378 19.645 29.0836 19.7495 30.3469 19.7725C30.3469 19.7725 30.8339 19.8592 30.7128 19.2345C30.7128 19.2345 30.6605 19.0102 30.4859 19.3391C30.4859 19.3391 30.4336 19.6157 29.8115 19.529C29.7356 19.4639 29.6861 19.3732 29.6725 19.274V18.5092C29.6725 18.5092 29.6534 18.3179 29.9492 18.3371C29.9492 18.3371 30.2781 18.5449 30.3316 18.4569C30.3316 18.4569 30.4591 18.1803 30.3316 18.0069C30.3316 18.0069 30.1748 17.9903 30.1582 18.0592C30.1582 18.0592 30.055 18.267 29.7592 18.1446C29.6825 17.9887 29.6644 17.8104 29.7082 17.6423C29.7082 17.6423 29.6738 17.2089 29.9632 17.2433C29.9632 17.2433 30.3099 17.3121 30.3456 17.4179C30.3456 17.4179 30.4323 17.627 30.5203 17.3835L30.4336 17.0839C30.4336 17.0839 30.3839 16.9565 30.2959 16.9972C30.2959 16.9972 29.7069 17.0839 29.6356 17.0125L29.1677 17.0661C29.1594 17.092 29.1564 17.1194 29.159 17.1465C29.1616 17.1736 29.1697 17.1999 29.1829 17.2238C29.196 17.2477 29.2139 17.2686 29.2354 17.2853C29.2569 17.302 29.2816 17.3142 29.3079 17.321C29.3245 17.3332 29.3379 17.3491 29.347 17.3675C29.3561 17.386 29.3607 17.4063 29.3602 17.4269" fill="#0D0140"/>
</g>
<defs>
<filter id="filter0_dd_0_2591" x="-5.24589" y="-3.90576" width="78.4167" height="78.4167" filterUnits="userSpaceOnUse" color-interpolation-filters="sRGB">
<feFlood flood-opacity="0" result="BackgroundImageFix"/>
<feColorMatrix in="SourceAlpha" type="matrix" values="0 0 0 0 0 0 0 0 0 0 0 0 0 0 0 0 0 0 127 0" result="hardAlpha"/>
<feOffset dy="11"/>
<feGaussianBlur stdDeviation="11.5"/>
<feComposite in2="hardAlpha" operator="out"/>
<feColorMatrix type="matrix" values="0 0 0 0 0.65098 0 0 0 0 0.129412 0 0 0 0 0.192157 0 0 0 0.13 0"/>
<feBlend mode="normal" in2="BackgroundImageFix" result="effect1_dropShadow_0_2591"/>
<feColorMatrix in="SourceAlpha" type="matrix" values="0 0 0 0 0 0 0 0 0 0 0 0 0 0 0 0 0 0 127 0" result="hardAlpha"/>
<feOffset dy="4"/>
<feGaussianBlur stdDeviation="2"/>
<feComposite in2="hardAlpha" operator="out"/>
<feColorMatrix type="matrix" values="0 0 0 0 0.65098 0 0 0 0 0.129412 0 0 0 0 0.192157 0 0 0 0.12 0"/>
<feBlend mode="normal" in2="effect1_dropShadow_0_2591" result="effect2_dropShadow_0_2591"/>
<feBlend mode="normal" in="SourceGraphic" in2="effect2_dropShadow_0_2591" result="shape"/>
</filter>
</defs>
</svg>
