<svg width="68" height="72" viewBox="0 0 68 72" fill="none" xmlns="http://www.w3.org/2000/svg">
<rect x="9.83411" y="0.115604" width="48.2564" height="48.2564" rx="8" fill="#F6F6F6"/>
<g filter="url(#filter0_dd_0_2457)">
<path d="M23.2834 12.2013H44.6861V20.2861C44.6861 23.9907 43.3067 31.846 34.0644 37.6935C34.0644 37.6935 24.0495 33.5109 23.2834 20.2861V12.2013Z" fill="#A62131"/>
<path d="M23.2387 12.1797H44.6631V20.2709C44.6631 23.9767 43.2824 31.8372 34.0312 37.6885C34.0312 37.6885 24.0061 33.5033 23.2387 20.2709V12.1797Z" stroke="#0D0140" stroke-width="0.23"/>
<path d="M39.4823 22.5898C39.4823 22.5898 39.2924 23.1979 38.4433 22.5733L35.5291 22.5032C35.5291 22.5032 35.1467 22.6306 35.0957 22.2265C35.0957 22.2265 35.1658 21.4285 35.1301 21.3597C35.1301 21.3597 35.148 21.134 34.7655 21.134C34.7655 21.134 34.1766 21.2029 34.1587 20.6827C34.1587 20.6827 34.0567 20.1269 34.8701 20.146C34.8701 20.146 35.125 20.2735 35.148 19.937C35.148 19.937 35.1136 17.6806 35.1301 17.5148C35.1301 17.5148 35.2002 17.3083 34.8012 17.2726C34.8012 17.2726 34.2288 17.4001 34.1638 17.0177C34.1638 17.0177 34.1294 16.4453 34.5118 16.4096C34.5118 16.4096 34.9797 16.4453 35.0664 16.3229C35.0664 16.3229 35.1709 16.3917 35.1531 15.9774L35.1709 15.2648C35.1709 15.2648 35.2206 15.0736 35.5164 15.0927C35.5164 15.0927 36.0544 15.1271 36.1245 15.0736C36.1815 15.0021 36.2335 14.9267 36.28 14.848C36.28 14.848 36.5579 14.8314 36.6102 14.9015C36.6102 14.9015 37.0258 15.1794 38.604 15.0736C38.604 15.0736 38.8474 15.0736 38.8984 15.1437C38.8984 15.1437 39.1942 15.3694 39.3676 15.1271C39.7092 15.08 40.0545 15.0651 40.3989 15.0825C40.3989 15.0825 41.2505 15.3069 41.8381 14.8276L42.0294 14.8633C42.0294 14.8633 42.2728 15.261 42.4462 15.1399C42.4462 15.1399 42.9663 15.0889 43.053 15.1922C43.053 15.1922 43.2251 15.4471 43.1397 16.1291C43.1397 16.1291 43.0365 16.4236 43.5387 16.4236C43.5387 16.4236 44.1124 16.3191 44.041 16.8558C44.041 16.8558 44.1978 17.4639 43.2442 17.3772C43.1811 17.4633 43.1447 17.5662 43.1397 17.6729C43.1397 17.6729 43.1219 19.6489 43.1053 19.8758C43.1053 19.8758 43.0874 20.1881 43.503 20.169C43.503 20.169 44.0588 20.1333 44.078 20.6368C44.078 20.6368 44.1455 21.2959 43.3475 21.1748C43.3475 21.1748 43.1053 21.2092 43.0683 21.366L43.0365 22.2329C43.0365 22.2329 43.053 22.6663 42.5686 22.5618C42.4985 22.5618 39.8635 22.6153 39.6366 22.5452C39.6366 22.5452 39.5091 22.5286 39.4797 22.5962" fill="white"/>
<path d="M33.8807 25.4886C33.9463 25.4618 34.0011 25.4138 34.0362 25.3522C34.0362 25.3522 34.4021 25.3165 34.4531 25.2643L35.6004 25.3522C35.6004 25.3522 36.7274 25.4376 37.2131 25.0883C37.314 25.089 37.414 25.1071 37.5088 25.1419C37.5088 25.1419 37.751 25.1954 37.8199 25.2974L38.4789 25.2796C38.4789 25.2796 38.8614 25.407 38.8257 25.6454V25.9565C38.8257 25.9565 38.7556 26.5811 38.9289 26.6168H39.4389C39.4389 26.6168 39.8557 26.8068 39.8022 27.0503C39.8052 27.1497 39.7718 27.2469 39.7081 27.3235C39.6445 27.4 39.5551 27.4506 39.4567 27.4658C39.2987 27.5136 39.1357 27.5427 38.971 27.5525C38.8955 27.6543 38.8473 27.7736 38.8308 27.8993L38.7798 30.171C38.7798 30.171 38.7441 30.4145 39.11 30.38C39.11 30.38 39.6454 30.3278 39.8022 30.6235C39.8022 30.6235 39.9424 31.1258 39.6645 31.2125L39.4567 31.3145L39.0042 31.3871C39.0042 31.3871 38.8155 31.4024 38.7976 31.7326V32.3381C38.7976 32.3381 38.8155 32.7563 38.484 32.7563L37.9983 32.7907C37.9447 32.8246 37.8838 32.8453 37.8207 32.8511C37.7575 32.8568 37.6939 32.8475 37.635 32.8238C37.635 32.8238 34.6864 32.8774 34.5831 32.8417L34.2351 32.9118C34.2351 32.9118 33.8527 33.2585 33.5416 32.9985L33.2994 32.8073C33.2199 32.8245 33.1383 32.8301 33.0572 32.8238C32.9871 32.8073 29.7962 32.8595 29.7962 32.8595C29.7962 32.8595 29.1193 32.9296 29.0683 32.7027C29.0683 32.7027 28.9817 31.8193 29.0161 31.7135C29.0161 31.7135 29.0161 31.4585 28.8605 31.4381C28.8605 31.4381 28.1836 31.4024 28.1658 31.3323C28.1658 31.3323 27.8012 31.0774 27.9108 30.8135C27.9497 30.7118 28.0154 30.6226 28.1009 30.5553C28.1864 30.4879 28.2886 30.445 28.3965 30.431C28.3965 30.431 28.9511 30.519 28.9511 30.3622C28.9769 30.2723 28.9889 30.179 28.9868 30.0856C28.9868 30.0856 29.0212 28.0204 29.0033 27.8827C29.0033 27.8827 29.0556 27.6277 28.8299 27.6277C28.6975 27.6658 28.5557 27.653 28.4322 27.592C28.4322 27.592 28.0153 27.6099 27.9223 27.2797C27.8835 27.1526 27.8958 27.0154 27.9567 26.8973C27.9567 26.8973 28.1479 26.5148 28.7025 26.6423C28.7025 26.6423 29.0148 26.729 29.0492 26.5046L29.0326 25.6709C29.0326 25.6709 28.9625 25.4466 29.396 25.3254C29.396 25.3254 29.9518 25.481 30.1239 25.198C30.1239 25.198 30.3151 24.8155 30.4693 25.0705C30.4693 25.0705 30.8008 25.3841 31.7021 25.3509C31.7021 25.3509 33.2637 25.2235 33.2981 25.2961C33.2981 25.2961 33.6806 25.3509 33.7838 25.4708L33.8807 25.4886Z" fill="white"/>
<path d="M29.1665 22.5896C29.1665 22.5896 28.9753 23.1977 28.125 22.5731L25.2121 22.503C25.2121 22.503 24.8296 22.6304 24.7774 22.2263C24.7774 22.2263 24.8475 21.4283 24.8118 21.3595C24.8118 21.3595 24.8296 21.1325 24.4485 21.1325C24.4485 21.1325 23.8595 21.2039 23.8429 20.6825C23.8429 20.6825 23.7371 20.1267 24.553 20.1458C24.553 20.1458 24.808 20.2733 24.8296 19.9368C24.8296 19.9368 24.7952 17.6829 24.8118 17.5147C24.8118 17.5147 24.8819 17.3081 24.4829 17.2724C24.4829 17.2724 23.9105 17.3999 23.8455 17.0175C23.8455 17.0175 23.8098 16.4464 24.191 16.4107C24.191 16.4107 24.6588 16.4464 24.7455 16.3253C24.7455 16.3253 24.85 16.3928 24.8322 15.976L24.8462 15.2544C24.8462 15.2544 24.8985 15.0632 25.1917 15.0811C25.1917 15.0811 25.7309 15.1155 25.801 15.0632C25.858 14.9919 25.9095 14.9165 25.9553 14.8376C25.9553 14.8376 26.2345 14.8223 26.2855 14.8898C26.2855 14.8898 26.7011 15.169 28.2818 15.0632C28.2818 15.0632 28.5227 15.0632 28.575 15.1333C28.575 15.1333 28.8695 15.359 29.0429 15.1155C29.3883 15.0722 29.7369 15.0607 30.0844 15.0811C30.0844 15.0811 30.9321 15.3067 31.5224 14.8261L31.7123 14.8605C31.7123 14.8605 31.9558 15.2583 32.1304 15.1371C32.1304 15.1371 32.6506 15.0849 32.7372 15.1894C32.7372 15.1894 32.9106 15.4444 32.8227 16.1264C32.8227 16.1264 32.7194 16.4209 33.2217 16.4209C33.2217 16.4209 33.7941 16.3176 33.7316 16.853C33.7316 16.853 33.8884 17.4611 32.9348 17.3744C32.8719 17.4608 32.8351 17.5635 32.829 17.6702C32.829 17.6702 32.8125 19.6461 32.7959 19.873C32.7959 19.873 32.778 20.1828 33.1949 20.1662C33.1949 20.1662 33.7494 20.1305 33.766 20.6354C33.766 20.6354 33.8349 21.2932 33.0381 21.1721C33.0381 21.1721 32.7959 21.2078 32.7602 21.3633L32.7258 22.2301C32.7258 22.2301 32.7436 22.6636 32.2566 22.5603C32.1878 22.5603 29.5528 22.6113 29.3246 22.5425C29.3246 22.5425 29.1971 22.5259 29.1691 22.5935" fill="white"/>
<path d="M39.4823 22.5898C39.4823 22.5898 39.2924 23.1979 38.4433 22.5733L35.5291 22.5032C35.5291 22.5032 35.1467 22.6306 35.0957 22.2265C35.0957 22.2265 35.1658 21.4285 35.1301 21.3597C35.1301 21.3597 35.148 21.134 34.7655 21.134C34.7655 21.134 34.1766 21.2029 34.1587 20.6827C34.1587 20.6827 34.0567 20.1269 34.8701 20.146C34.8701 20.146 35.125 20.2735 35.148 19.937C35.148 19.937 35.1136 17.6806 35.1301 17.5148C35.1301 17.5148 35.2002 17.3083 34.8012 17.2726C34.8012 17.2726 34.2288 17.4001 34.1638 17.0177C34.1638 17.0177 34.1294 16.4453 34.5118 16.4096C34.5118 16.4096 34.9797 16.4453 35.0664 16.3229C35.0664 16.3229 35.1709 16.3917 35.1531 15.9774L35.1709 15.2648C35.1709 15.2648 35.2206 15.0736 35.5164 15.0927C35.5164 15.0927 36.0544 15.1271 36.1245 15.0736C36.1815 15.0021 36.2335 14.9267 36.28 14.848C36.28 14.848 36.5579 14.8314 36.6102 14.9015C36.6102 14.9015 37.0258 15.1794 38.604 15.0736C38.604 15.0736 38.8474 15.0736 38.8984 15.1437C38.8984 15.1437 39.1942 15.3694 39.3676 15.1271C39.7092 15.08 40.0545 15.0651 40.3989 15.0825C40.3989 15.0825 41.2505 15.3069 41.8381 14.8276L42.0294 14.8633C42.0294 14.8633 42.2728 15.261 42.4462 15.1399C42.4462 15.1399 42.9663 15.0889 43.053 15.1922C43.053 15.1922 43.2251 15.4471 43.1397 16.1291C43.1397 16.1291 43.0365 16.4236 43.5387 16.4236C43.5387 16.4236 44.1124 16.3191 44.041 16.8558C44.041 16.8558 44.1978 17.4639 43.2442 17.3772C43.1811 17.4633 43.1447 17.5662 43.1397 17.6729C43.1397 17.6729 43.1219 19.6489 43.1053 19.8758C43.1053 19.8758 43.0874 20.1881 43.503 20.169C43.503 20.169 44.0588 20.1333 44.078 20.6368C44.078 20.6368 44.1455 21.2959 43.3475 21.1748C43.3475 21.1748 43.1053 21.2092 43.0683 21.366L43.0365 22.2329C43.0365 22.2329 43.053 22.6663 42.5686 22.5618C42.4985 22.5618 39.8635 22.6153 39.6366 22.5452C39.6366 22.5452 39.5091 22.5286 39.4797 22.5962" fill="#0D0140"/>
<path d="M39.4823 22.5911C39.4823 22.5911 39.2924 23.1992 38.4433 22.5733L35.5291 22.5032C35.5291 22.5032 35.1467 22.6306 35.0957 22.2265C35.0957 22.2265 35.1658 21.4285 35.1301 21.3597C35.1301 21.3597 35.148 21.134 34.7655 21.134C34.7655 21.134 34.1766 21.2041 34.1587 20.6827C34.1587 20.6827 34.0555 20.1282 34.8701 20.146C34.8701 20.146 35.125 20.2735 35.148 19.937C35.148 19.937 35.1136 17.6818 35.1301 17.5149C35.1301 17.5149 35.2002 17.3071 34.8012 17.2726C34.8012 17.2726 34.2288 17.4001 34.1638 17.0177C34.1638 17.0177 34.1294 16.444 34.5118 16.4096C34.5118 16.4096 34.9797 16.444 35.0664 16.3229C35.0664 16.3229 35.1709 16.3917 35.1531 15.9762L35.1709 15.2635C35.1709 15.2635 35.2206 15.0736 35.5177 15.0927C35.5177 15.0927 36.0544 15.1271 36.1245 15.0736C36.1811 15.0018 36.233 14.9264 36.28 14.848C36.28 14.848 36.5579 14.8314 36.6102 14.9002C36.6102 14.9002 37.0258 15.1781 38.604 15.0736C38.604 15.0736 38.8475 15.0736 38.8984 15.1437C38.8984 15.1437 39.1942 15.3681 39.3676 15.1271C39.7092 15.08 40.0545 15.0651 40.3989 15.0825C40.3989 15.0825 41.2505 15.3069 41.8394 14.8276L42.0306 14.862C42.0306 14.862 42.2728 15.2597 42.4462 15.1399C42.4462 15.1399 42.9663 15.0889 43.053 15.1909C43.053 15.1909 43.2264 15.4458 43.1397 16.1279C43.1397 16.1279 43.0365 16.4236 43.54 16.4236C43.54 16.4236 44.1124 16.3191 44.041 16.8558C44.041 16.8558 44.1978 17.4639 43.2442 17.3772C43.1816 17.4636 43.1453 17.5663 43.1397 17.6729C43.1397 17.6729 43.1231 19.6489 43.1053 19.8745C43.1053 19.8745 43.0874 20.1868 43.5043 20.1703C43.5043 20.1703 44.0601 20.1346 44.078 20.6368C44.078 20.6368 44.1455 21.2959 43.3475 21.1748C43.3475 21.1748 43.1053 21.2105 43.0696 21.366L43.0365 22.2329C43.0365 22.2329 43.053 22.6663 42.5686 22.5618C42.4998 22.5618 39.8635 22.6153 39.6366 22.5452C39.634 22.5388 39.5167 22.5223 39.4823 22.5911Z" stroke="#0D0140" stroke-width="0.01"/>
<path d="M36.206 15.4445C36.206 15.4445 36.2404 15.7925 36.2404 15.8805C36.2404 15.9684 36.1881 20.8904 36.1881 20.8904C36.2006 21.0024 36.1813 21.1156 36.1323 21.2171C36.0834 21.3185 36.0069 21.4041 35.9115 21.4641C35.9115 21.4641 35.8235 21.4972 35.807 21.255L35.8414 16.0538C35.8414 16.0538 35.8758 15.4101 36.206 15.4445Z" fill="white"/>
<path d="M36.206 15.4445C36.206 15.4445 36.2404 15.7912 36.2404 15.8792C36.2404 15.9671 36.1894 20.8917 36.1894 20.8917C36.2015 21.0036 36.1819 21.1166 36.1327 21.2178C36.0836 21.3191 36.0069 21.4044 35.9115 21.4641C35.9115 21.4641 35.8235 21.4985 35.807 21.255L35.8414 16.0538C35.8414 16.0538 35.8758 15.4101 36.206 15.4445Z" stroke="#0D0140" stroke-width="0.01"/>
<path d="M35.6336 21.515C35.6336 21.515 35.668 16.6248 35.6514 16.5432C35.6349 16.4616 35.668 16.6133 35.668 16.6133C35.668 16.6133 35.6157 15.763 35.8414 15.415C35.8414 15.415 35.7713 15.1218 35.3735 15.4851L35.3557 16.1914C35.3557 16.1914 35.3557 16.5917 34.9924 16.5738C34.9924 16.5738 34.5755 16.556 34.3843 16.7472C34.3843 16.7472 34.281 17.1296 34.6788 17.0608C34.6788 17.0608 35.3034 17.0608 35.3391 17.3158L35.2996 19.9367C35.2996 19.9367 35.4385 20.3727 34.9541 20.3727C34.9541 20.3727 34.3626 20.3358 34.3804 20.6991C34.3804 20.6991 34.5079 21.0114 35.0051 20.9081C35.0051 20.9081 35.3697 20.9757 35.3518 21.325V21.9828C35.3518 21.9828 35.3174 22.2454 35.6642 22.2607H38.3693C38.3693 22.2607 38.507 22.2786 38.507 22.1052C38.507 22.1052 38.4904 21.9662 38.2826 21.9662L36.0326 21.928C36.0326 21.928 35.668 22.0555 35.6336 21.5111" fill="white"/>
<path d="M36.1538 21.5074C36.1538 21.5074 36.085 21.7496 36.345 21.6986H38.1297L38.6142 21.8006C38.6142 21.8006 39.1164 21.6732 38.6142 21.4003C38.6142 21.4003 37.0194 21.4169 36.8804 21.3825L36.4801 21.2792C36.4801 21.2792 36.308 21.2104 36.1525 21.5036" fill="white"/>
<path d="M36.1538 21.5073C36.1538 21.5073 36.0837 21.7508 36.3437 21.6998H38.1285L38.6142 21.8005C38.6142 21.8005 39.1241 21.673 38.6142 21.4002C38.6142 21.4002 37.0194 21.4155 36.8804 21.3824C36.8804 21.3824 36.5502 21.2957 36.4801 21.2791C36.4814 21.2829 36.3093 21.2128 36.1538 21.5073Z" stroke="#0D0140" stroke-width="0.01"/>
<path d="M39.124 21.7509C39.124 21.7509 38.7951 21.7509 38.8117 22.1843C38.8225 22.2771 38.8679 22.3625 38.9387 22.4234C39.0096 22.4843 39.1007 22.5164 39.1941 22.5132C39.2834 22.4967 39.3626 22.4458 39.4147 22.3713C39.4667 22.2969 39.4873 22.205 39.472 22.1155C39.472 22.1155 39.2808 21.682 39.1253 21.7509" fill="white"/>
<path d="M39.3624 21.5775C39.3624 21.5775 39.5179 21.4041 39.6173 21.4041C39.6173 21.4041 41.3511 21.5596 41.6443 21.3518C41.6443 21.3518 41.9056 21.3008 41.9757 21.3518C41.9757 21.3518 42.2307 21.5596 42.2307 21.682C42.2307 21.682 42.2141 21.8388 41.9018 21.7496L39.8379 21.7687C39.8379 21.7687 39.2999 21.8962 39.3535 21.5775" fill="white"/>
<path d="M39.3611 21.5775C39.3611 21.5775 39.5167 21.4042 39.6161 21.4042C39.6161 21.4042 41.3498 21.5597 41.643 21.3519C41.643 21.3519 41.9056 21.2996 41.9745 21.3519C41.9745 21.3519 42.2294 21.5597 42.2294 21.6821C42.2294 21.6821 42.2129 21.8389 41.9005 21.7509L39.8354 21.7688C39.8354 21.7688 39.3076 21.8899 39.3611 21.5775Z" stroke="#0D0140" stroke-width="0.01"/>
<path d="M39.5868 22.1397C39.5868 22.1397 39.5868 21.9994 39.8303 21.9994L42.2524 21.9829C42.2524 21.9829 42.4781 22.104 42.4781 21.6884C42.4781 21.6884 42.5673 19.7979 42.575 17.7174C42.575 17.0978 42.6056 16.4426 42.5839 15.8447C42.5839 15.8447 42.5304 15.5897 42.4564 15.5311C42.4564 15.5311 42.4564 15.2545 42.7522 15.359C42.7522 15.359 43.0071 15.3768 42.9421 15.7758L42.9612 16.3814C42.9612 16.3814 42.9077 16.6363 43.3755 16.5726C43.3755 16.5726 43.8434 16.6427 43.8612 16.8148C43.8612 16.8148 44.0002 17.1628 43.4469 17.1271H43.0454C42.994 17.1592 42.954 17.2066 42.9311 17.2627C42.9083 17.3188 42.9036 17.3806 42.9179 17.4395L42.8669 19.9559C42.8669 19.9559 42.8312 20.3881 43.2493 20.3715C43.2493 20.3715 43.6828 20.3537 43.7695 20.4926C43.7695 20.4926 44.0665 20.9261 43.4227 20.8916C43.4227 20.8916 43.0237 20.8738 42.937 20.9439C42.937 20.9439 42.8682 21.0293 42.8095 21.8465C42.8095 21.8465 42.8452 22.3322 42.4806 22.2786C42.4806 22.2786 40.0687 22.313 39.8443 22.2608C39.8443 22.2608 39.6021 22.3322 39.5664 22.1333" fill="white"/>
<path d="M36.466 15.2877L36.4138 20.856C36.4138 20.856 36.3972 21.111 36.8306 21.1671C36.8306 21.1671 37.3329 21.2181 37.4527 21.1671C37.4527 21.1671 37.7842 21.1492 38.6332 21.1837C38.6332 21.1837 38.8423 21.394 38.8601 21.1314C38.8601 21.1314 38.9965 16.625 38.929 15.6854C38.929 15.6854 38.9098 15.2877 38.6166 15.2698C38.6166 15.2698 37.2985 15.3769 37.1774 15.2698L36.656 15.1322C36.656 15.1322 36.4482 15.15 36.466 15.2877Z" fill="white"/>
<path d="M39.2057 15.5655C39.2057 15.5655 39.1534 18.1852 39.1712 18.2719L39.1368 20.4735L39.0667 21.2384C39.0667 21.2384 39.1712 21.3939 39.2579 21.2906C39.2579 21.2906 39.8125 21.1504 40.1592 21.2039C40.1592 21.2039 41.2708 21.3072 41.4952 21.1326C41.4952 21.1326 41.6686 21.2192 41.7196 20.9426C41.7196 20.9426 41.7884 16.0882 41.7565 16.0015C41.7565 16.0015 41.8228 15.3054 41.7884 15.2366C41.7884 15.2366 41.7731 15.0811 41.4774 15.2187C41.4774 15.2187 41.5118 15.3577 39.8647 15.3042C39.8647 15.3042 39.2414 15.2876 39.2057 15.5655Z" fill="white"/>
<path d="M41.9642 15.4966L41.9464 20.9782C41.9464 20.9782 42.0853 21.4639 42.311 21.4181C42.3363 21.3268 42.3529 21.2333 42.3607 21.1389L42.4308 15.9186C42.4308 15.9186 42.2574 15.0874 41.9642 15.5017" fill="white"/>
<path d="M41.963 15.4967L41.9464 20.9783C41.9464 20.9783 42.0853 21.464 42.311 21.4181C42.3372 21.327 42.3543 21.2335 42.362 21.1389L42.4308 15.9123C42.4308 15.9123 42.2574 15.0824 41.963 15.4967Z" stroke="#0D0140" stroke-width="0.01"/>
<path d="M39.8341 17.1374C39.7818 16.9997 40.1286 16.9818 40.1286 16.9818L40.3032 17.0163C40.3857 17.0087 40.4687 17.0209 40.5454 17.0519C40.5617 17.0762 40.5723 17.1037 40.5767 17.1326C40.5811 17.1614 40.5791 17.1909 40.5708 17.2189C40.5626 17.2469 40.5482 17.2727 40.5289 17.2945C40.5095 17.3163 40.4856 17.3336 40.4588 17.3452L40.3899 17.5721C40.3721 17.7633 40.3899 19.4103 40.3899 19.4103C40.4381 19.4971 40.4963 19.578 40.5633 19.6513C40.5633 19.8081 40.3721 19.7788 40.3721 19.7788L39.8698 19.7966C39.713 19.7788 39.7653 19.6054 39.7653 19.6054C39.9386 19.5187 39.9909 19.2064 39.9909 19.2064V17.4841L39.8341 17.1374Z" fill="#0D0140"/>
<path d="M37.5102 17.3797C37.528 17.7621 37.528 18.2822 37.528 18.2822C37.5658 18.3179 37.6116 18.3439 37.6616 18.3582C37.7115 18.3725 37.7642 18.3747 37.8151 18.3644C37.8661 18.3542 37.9138 18.3319 37.9544 18.2994C37.9949 18.2669 38.0271 18.2252 38.0482 18.1777C38.4803 17.7621 38.0482 17.3797 37.9793 17.2764C37.9105 17.1731 37.5625 17.2585 37.5625 17.2585L37.5102 17.3797ZM37.4936 18.7513L37.4592 19.288L37.6134 19.543C37.7193 19.682 37.5446 19.7865 37.5446 19.7865L36.9901 19.7342C36.8868 19.682 36.9901 19.5086 36.9901 19.5086C37.0357 19.4696 37.073 19.4218 37.0999 19.3682C37.1269 19.3146 37.1428 19.2561 37.1469 19.1962L37.129 18.1904L37.1469 17.4625C37.1469 17.3746 37.0079 17.2203 37.0079 17.2203C36.8804 17.2025 36.9212 17.0469 36.9212 17.0469C36.9557 16.959 37.2501 17.0112 37.2501 17.0112H37.9768C38.6703 17.2369 38.5657 17.7404 38.5657 17.7404C38.6193 18.2427 38.0813 18.4518 38.0813 18.4518L38.0456 18.7284L38.5492 19.5251C38.5727 19.5397 38.5917 19.5605 38.6041 19.5853C38.6165 19.6101 38.6217 19.6378 38.6193 19.6654C38.5492 19.8566 38.2712 19.6654 38.2712 19.6654L37.6479 18.694C37.5943 18.6239 37.4911 18.7462 37.4911 18.7462" fill="#0D0140"/>
<path d="M33.8807 25.4886C33.9463 25.4618 34.0011 25.4138 34.0362 25.3522C34.0362 25.3522 34.4021 25.3165 34.4531 25.2643L35.6004 25.3522C35.6004 25.3522 36.7274 25.4376 37.2131 25.0883C37.314 25.089 37.414 25.1071 37.5088 25.1419C37.5088 25.1419 37.751 25.1954 37.8199 25.2974L38.4789 25.2796C38.4789 25.2796 38.8614 25.407 38.8257 25.6454V25.9565C38.8257 25.9565 38.7556 26.5811 38.9289 26.6168H39.4389C39.4389 26.6168 39.8557 26.8068 39.8022 27.0503C39.8052 27.1497 39.7718 27.2469 39.7081 27.3235C39.6445 27.4 39.5551 27.4506 39.4567 27.4658C39.2987 27.5136 39.1357 27.5427 38.971 27.5525C38.8955 27.6543 38.8473 27.7736 38.8308 27.8993L38.7798 30.171C38.7798 30.171 38.7441 30.4145 39.11 30.38C39.11 30.38 39.6454 30.3278 39.8022 30.6235C39.8022 30.6235 39.9424 31.1258 39.6645 31.2125L39.4567 31.3145L39.0042 31.3871C39.0042 31.3871 38.8155 31.4024 38.7976 31.7326V32.3381C38.7976 32.3381 38.8155 32.7563 38.484 32.7563L37.9983 32.7907C37.9447 32.8246 37.8838 32.8453 37.8207 32.8511C37.7575 32.8568 37.6939 32.8475 37.635 32.8238C37.635 32.8238 34.6864 32.8774 34.5831 32.8417L34.2351 32.9118C34.2351 32.9118 33.8527 33.2585 33.5416 32.9985L33.2994 32.8073C33.2199 32.8245 33.1383 32.8301 33.0572 32.8238C32.9871 32.8073 29.7962 32.8595 29.7962 32.8595C29.7962 32.8595 29.1193 32.9296 29.0683 32.7027C29.0683 32.7027 28.9817 31.8193 29.0161 31.7135C29.0161 31.7135 29.0161 31.4585 28.8605 31.4381C28.8605 31.4381 28.1836 31.4024 28.1658 31.3323C28.1658 31.3323 27.8012 31.0774 27.9108 30.8135C27.9497 30.7118 28.0154 30.6226 28.1009 30.5553C28.1864 30.4879 28.2886 30.445 28.3965 30.431C28.3965 30.431 28.9511 30.519 28.9511 30.3622C28.9769 30.2723 28.9889 30.179 28.9868 30.0856C28.9868 30.0856 29.0212 28.0204 29.0033 27.8827C29.0033 27.8827 29.0556 27.6277 28.8299 27.6277C28.6975 27.6658 28.5557 27.653 28.4322 27.592C28.4322 27.592 28.0153 27.6099 27.9223 27.2797C27.8835 27.1526 27.8958 27.0154 27.9567 26.8973C27.9567 26.8973 28.1479 26.5148 28.7025 26.6423C28.7025 26.6423 29.0148 26.729 29.0492 26.5046L29.0326 25.6709C29.0326 25.6709 28.9625 25.4466 29.396 25.3254C29.396 25.3254 29.9518 25.481 30.1239 25.198C30.1239 25.198 30.3151 24.8155 30.4693 25.0705C30.4693 25.0705 30.8008 25.3841 31.7021 25.3509C31.7021 25.3509 33.2637 25.2235 33.2981 25.2961C33.2981 25.2961 33.6806 25.3509 33.7838 25.4708L33.8807 25.4886Z" fill="#0D0140"/>
<path d="M33.8808 25.4671C33.9465 25.4397 34.0012 25.3913 34.0363 25.3294C34.0363 25.3294 34.4009 25.295 34.4531 25.2427L35.6005 25.3294C35.6005 25.3294 36.7274 25.4161 37.2131 25.0681C37.314 25.0687 37.4141 25.0868 37.5088 25.1216C37.5088 25.1216 37.7511 25.1739 37.8199 25.2758L38.4802 25.2593C38.4802 25.2593 38.8627 25.3868 38.8257 25.6239V25.9362C38.8257 25.9362 38.7569 26.5609 38.9303 26.5953H39.4338C39.4338 26.5953 39.8494 26.7865 39.7984 27.0287C39.8014 27.1285 39.7678 27.226 39.704 27.3028C39.6401 27.3796 39.5504 27.4304 39.4516 27.4456C39.2937 27.4933 39.1307 27.5224 38.9659 27.5323C38.8912 27.6344 38.843 27.7536 38.8257 27.879L38.7747 30.1507C38.7747 30.1507 38.739 30.3929 39.1036 30.3585C39.1036 30.3585 39.6403 30.3075 39.7984 30.602C39.7984 30.602 39.9373 31.1042 39.6594 31.1922L39.4516 31.2955L38.9965 31.3618C38.9965 31.3618 38.8066 31.3783 38.79 31.7072V32.3153C38.79 32.3153 38.8066 32.7309 38.4777 32.7309L37.992 32.7666C37.9383 32.8008 37.8772 32.8218 37.8139 32.8278C37.7505 32.8338 37.6866 32.8246 37.6274 32.801C37.6274 32.801 34.6788 32.8533 34.5755 32.8163L34.2275 32.8877C34.2275 32.8877 33.8451 33.2344 33.534 32.9731L33.2918 32.7819C33.2123 32.799 33.1308 32.8054 33.0496 32.801C32.9795 32.7819 29.7886 32.8354 29.7886 32.8354C29.7886 32.8354 29.1117 32.9055 29.0595 32.6786C29.0595 32.6786 28.974 31.7939 29.0085 31.6894C29.0085 31.6894 29.0085 31.4344 28.8517 31.4128C28.8517 31.4128 28.176 31.3783 28.1582 31.3095C28.1582 31.3095 27.7936 31.0482 27.9032 30.7894C27.9421 30.6877 28.0078 30.5985 28.0933 30.5312C28.1788 30.4638 28.281 30.4209 28.3889 30.4069C28.3889 30.4069 28.9434 30.4962 28.9434 30.3381C28.9692 30.2486 28.9812 30.1558 28.9791 30.0627C28.9791 30.0627 29.0136 27.9976 28.9957 27.8586C28.9957 27.8586 29.048 27.6036 28.8223 27.6036C28.6896 27.6417 28.5476 27.6294 28.4233 27.5692C28.4233 27.5692 28.0077 27.5858 27.9211 27.2569C27.8823 27.1298 27.8946 26.9926 27.9555 26.8745C27.9555 26.8745 28.1454 26.492 28.7012 26.6195C28.7012 26.6195 29.0136 26.7075 29.048 26.4831L29.0301 25.6494C29.0301 25.6494 28.9613 25.4237 29.3947 25.3026C29.3947 25.3026 29.9493 25.4581 30.1226 25.1751C30.1226 25.1751 30.3139 24.7927 30.4681 25.0477C30.4681 25.0477 30.7996 25.3613 31.7008 25.3268C31.7008 25.3268 33.2625 25.1994 33.2969 25.2733C33.2969 25.2733 33.6793 25.3268 33.7826 25.4479L33.8808 25.4671Z" stroke="#0D0140" stroke-width="0.01"/>
<path d="M34.332 32.3049C34.439 32.249 34.5597 32.2247 34.68 32.2348C34.819 32.2692 36.8472 32.2182 36.8472 32.2182C36.8472 32.2182 37.7319 32.2871 37.867 32.1647L38.0736 32.0958C38.1274 32.0263 38.1578 31.9415 38.1603 31.8536C38.1603 31.7134 38.1781 31.2455 38.1781 31.2455L38.2316 31.0734C38.2316 31.0734 38.2138 30.9001 38.2316 26.2687C38.2316 26.2687 38.2992 25.9067 38.0736 25.6798C38.0736 25.6798 38.0736 25.5421 38.1424 25.5523C38.2112 25.5625 38.1781 25.5701 38.1781 25.5701C38.1781 25.5701 38.4904 25.4822 38.5414 25.6033C38.5414 25.6033 38.6816 26.0189 38.5593 26.2623C38.5593 26.2623 38.5248 26.7723 38.7862 26.7723C38.8294 26.8065 38.8806 26.8293 38.935 26.8385C38.9894 26.8476 39.0452 26.8428 39.0972 26.8245C39.0972 26.8245 39.5485 26.8768 39.5485 27.0145C39.5495 27.0534 39.5416 27.092 39.5254 27.1274C39.5091 27.1627 39.485 27.1939 39.4549 27.2185C39.4247 27.2432 39.3893 27.2605 39.3514 27.2694C39.3135 27.2782 39.2741 27.2782 39.2362 27.2694L38.8193 27.3026C38.737 27.322 38.6655 27.373 38.6203 27.4444C38.575 27.5159 38.5595 27.6023 38.5771 27.685C38.6128 28.0139 38.5593 30.3736 38.5593 30.3736C38.5593 30.3736 38.5593 30.6515 38.994 30.6285C38.994 30.6285 39.5307 30.6107 39.5307 30.7662C39.5307 30.7662 39.6696 31.113 39.2885 31.1308C39.2885 31.1308 38.5593 31.113 38.6128 31.3208C38.5941 31.513 38.5647 31.7041 38.5248 31.8931C38.5248 31.8931 38.595 32.2934 38.507 32.3623C38.507 32.3623 38.456 32.5866 37.9882 32.5535C37.9882 32.5535 35.0051 32.5356 34.5373 32.5701C34.5373 32.5701 34.2594 32.5356 34.3282 32.2934" fill="white"/>
<path d="M33.7953 31.9748C33.8749 31.9876 33.9476 32.0275 34.0012 32.0876C34.0548 32.1477 34.0861 32.2245 34.0898 32.305C34.0898 32.5816 34.1076 32.7372 33.933 32.7716C33.89 32.7858 33.8444 32.7908 33.7994 32.7861C33.7543 32.7814 33.7107 32.7672 33.6716 32.7444C33.6324 32.7216 33.5985 32.6908 33.5722 32.654C33.5458 32.6171 33.5276 32.5751 33.5187 32.5306C33.4651 32.305 33.5518 32.0207 33.7953 31.9748Z" fill="white"/>
<path d="M34.1421 31.8371C34.1421 31.8371 34.4532 31.6268 34.5756 31.6637C34.5756 31.6637 36.1525 31.7657 36.6395 31.6816C37.1265 31.5974 36.8294 31.6637 36.8294 31.6637C36.8294 31.6637 37.2463 31.6637 37.3661 31.5057C37.4034 31.4972 37.4424 31.5013 37.4772 31.5172C37.512 31.5331 37.5406 31.5599 37.5586 31.5936L37.8136 31.8728C37.8136 31.8728 37.8327 32.0449 37.5369 32.0271C37.5369 32.0271 34.7094 32.0271 34.624 32.0449C34.624 32.0449 34.0861 32.1303 34.1383 31.8371" fill="white"/>
<path d="M34.1409 31.837C34.1409 31.837 34.4532 31.6267 34.5743 31.6624C34.5743 31.6624 36.1538 31.7656 36.6395 31.6815C37.1252 31.5974 36.8294 31.6624 36.8294 31.6624C36.8294 31.6624 37.2463 31.6624 37.3674 31.5056C37.4045 31.4972 37.4433 31.5013 37.4779 31.5172C37.5124 31.5331 37.5408 31.5599 37.5586 31.5936L37.8136 31.8727C37.8136 31.8727 37.8327 32.0448 37.5369 32.027C37.5369 32.027 34.7094 32.027 34.6227 32.0448C34.6266 32.0448 34.0899 32.1264 34.1409 31.837Z" stroke="#0D0140" stroke-width="0.01"/>
<path d="M30.0322 25.6799C30.0322 25.6799 30.1533 25.6799 30.1354 25.8877L30.101 31.1259C30.1129 31.234 30.0968 31.3434 30.0544 31.4436C30.012 31.5438 29.9447 31.6314 29.8588 31.6983C29.8588 31.6983 29.702 31.8882 29.702 31.5937L29.7721 26.2523C29.7721 26.2523 29.7887 25.8533 30.0271 25.6799" fill="white"/>
<path d="M30.0321 25.6799C30.0321 25.6799 30.1532 25.6799 30.1366 25.8877L30.1009 31.1259C30.1126 31.2341 30.0964 31.3436 30.0538 31.4438C30.0111 31.544 29.9436 31.6316 29.8575 31.6983C29.8575 31.6983 29.7007 31.8882 29.7007 31.595L29.7708 26.2523C29.7708 26.2523 29.7886 25.8533 30.0321 25.6799Z" stroke="#0D0140" stroke-width="0.01"/>
<path d="M29.7543 25.7144C29.7543 25.7144 29.5465 26.0968 29.563 26.1848L29.5465 27.3448C29.5465 27.3448 29.5286 28.0906 29.5465 28.1773C29.5643 28.264 29.5286 30.449 29.5286 30.449C29.5286 30.449 29.5108 30.8646 29.5286 31.0048V31.9405C29.5286 31.9405 29.4942 32.3574 29.8053 32.2515C29.8053 32.2515 32.8584 32.1827 33.0496 32.2362C33.0496 32.2362 33.3263 32.2872 33.223 32.4262C33.223 32.4262 33.223 32.5537 33.0318 32.5129C32.121 32.5944 31.2063 32.6234 30.2922 32.5996C30.2922 32.5996 29.4241 32.6506 29.3718 32.5486C29.3718 32.5486 29.2341 32.5307 29.2341 32.0272C29.2374 31.8417 29.2259 31.6563 29.1997 31.4726C29.1997 31.4726 29.2341 31.2279 28.8007 31.1769C28.8007 31.1769 28.1939 31.2814 28.1761 30.9219C28.1761 30.9219 28.2627 30.667 28.853 30.695C28.853 30.695 29.2864 30.7651 29.1997 30.4171L29.2507 27.8522C29.2507 27.8522 29.3043 27.3996 29.0085 27.3818C28.8867 27.3735 28.7643 27.3795 28.6439 27.3996C28.6439 27.3996 28.1416 27.3996 28.1761 27.1064C28.1761 27.1064 28.3494 26.7941 28.853 26.863C28.853 26.863 29.2354 26.9318 29.2507 26.4996C29.2507 26.4996 29.2341 25.6149 29.4419 25.5805C29.4419 25.5805 29.8754 25.5971 29.7543 25.7182" fill="white"/>
<path d="M30.2744 31.4547C30.3592 31.5355 30.4592 31.5986 30.5686 31.6404C30.6781 31.6822 30.7947 31.7018 30.9118 31.6982L33.2676 31.7326C33.2676 31.7326 33.5302 31.7505 33.5136 31.8882C33.5136 31.8882 33.4767 32.096 33.1656 32.0258L30.3279 31.9991L30.0143 32.0169C30.0143 32.0169 29.8065 31.9812 30.1418 31.5835L30.2744 31.4547Z" fill="white"/>
<path d="M30.273 31.4535C30.3588 31.5349 30.4598 31.5985 30.5704 31.6405C30.6809 31.6825 30.7986 31.7022 30.9168 31.6983L33.2739 31.7327C33.2739 31.7327 33.5289 31.7505 33.5187 31.8882C33.5187 31.8882 33.483 32.096 33.1719 32.0272L30.3279 31.9991L30.0155 32.017C30.0155 32.017 29.8077 31.9825 30.143 31.5823L30.273 31.4535Z" stroke="#0D0140" stroke-width="0.01"/>
<path d="M37.5586 31.2342C37.5586 31.2342 37.7664 31.6332 37.8709 31.688C37.8709 31.688 38.0608 31.9124 38.0099 31.5133L38.0443 26.5187C38.0106 26.3701 38.0106 26.2159 38.0443 26.0674L37.8365 25.6849C37.8365 25.6849 37.6096 25.5116 37.6096 25.7882L37.5751 31.1067L37.5586 31.2342Z" fill="white"/>
<path d="M37.5573 31.2342C37.5573 31.2342 37.7664 31.6332 37.8709 31.6893C37.8709 31.6893 38.0622 31.9124 38.0099 31.5133L38.0443 26.5174C38.0112 26.3692 38.0112 26.2156 38.0443 26.0674L37.8365 25.6849C37.8365 25.6849 37.6096 25.5116 37.6096 25.7882L37.5752 31.1067L37.5573 31.2342Z" stroke="#0D0140" stroke-width="0.01"/>
<path d="M33.7086 28.8528C33.7168 29.1244 33.7049 29.3962 33.6729 29.6661C33.6449 29.8854 33.7431 30.8988 33.6551 31.419C33.6551 31.419 33.6398 31.5923 33.2727 31.4368C33.2727 31.4368 31.0532 31.4878 30.978 31.419C30.978 31.419 30.3712 31.4368 30.3189 31.1245C30.3189 31.1245 30.4056 28.7482 30.3534 28.6603C30.3534 28.6603 30.3189 27.36 30.3534 27.2389C30.3534 27.2389 30.4056 26.0418 30.3712 25.9042C30.3808 25.7642 30.3688 25.6236 30.3355 25.4873C30.3355 25.4873 30.3355 25.3139 30.6313 25.4172C30.6313 25.4172 30.7345 25.6084 31.3069 25.523C31.577 25.5633 31.8512 25.5689 32.1228 25.5396C32.1228 25.5396 33.0062 25.4707 33.2331 25.5396C33.3343 25.5221 33.4383 25.5452 33.5226 25.6039C33.6068 25.6626 33.6645 25.7522 33.6831 25.8532L33.6653 26.9278L33.7686 27.2746L33.896 27.1879L33.947 26.9329L33.9649 25.7856C33.9946 25.7167 34.0428 25.6574 34.1043 25.6144C34.1658 25.5714 34.238 25.5464 34.3129 25.5421C34.3129 25.5421 34.7463 25.4898 34.8228 25.5255C35.2423 25.5824 35.6668 25.5935 36.0887 25.5587C36.3437 25.5077 36.3985 25.7321 37.1812 25.3343C37.1812 25.3343 37.389 25.3522 37.389 25.4898C37.389 25.4898 37.3176 26.9661 37.389 27.2414C37.389 27.2414 37.389 29.9466 37.3355 30.1378L37.3699 31.0046C37.3699 31.0046 37.4043 31.3871 36.7988 31.4215C36.7988 31.4215 37.1812 31.4738 34.7858 31.4037C34.5108 31.403 34.239 31.4621 33.9891 31.577C33.9891 31.577 33.9024 31.5592 33.9024 31.3348C33.9423 30.7976 33.9423 30.2581 33.9024 29.7209L33.868 28.8362L33.7086 28.8528Z" fill="white"/>
<path d="M32.1471 27.6226C32.1471 27.6226 32.1994 28.9051 32.1471 29.0785L32.1305 29.3564C32.1666 29.4543 32.2261 29.5418 32.3039 29.6113C32.3039 29.6113 32.3906 29.8536 32.1764 29.837C31.998 29.8209 31.8188 29.8145 31.6397 29.8179C31.6397 29.8179 31.3962 29.8179 31.6397 29.5081C31.7067 29.3737 31.7307 29.2219 31.7086 29.0734C31.7086 29.0734 31.7086 27.6175 31.7443 27.5321C31.7443 27.5321 31.7787 27.3396 31.6563 27.2874L31.4485 27.3052L31.1935 27.5474C31.1935 27.5474 31.1413 27.8024 31.0202 27.5321V27.3919L31.177 26.975L31.2802 26.9572C31.3713 27.0176 31.4704 27.0648 31.5747 27.0974H32.3906L32.6851 26.9572C32.6851 26.9572 32.8125 26.975 32.773 27.1318C32.773 27.1318 32.824 27.5321 32.5984 27.5819C32.5487 27.5583 32.5045 27.5246 32.4687 27.4829C32.4329 27.4412 32.4063 27.3923 32.3906 27.3396C32.3906 27.3396 32.1649 27.2198 32.1471 27.6175" fill="#0D0140"/>
<path d="M35.9791 27.1549C35.8899 27.147 35.8002 27.1585 35.7159 27.1885C35.6316 27.2185 35.5548 27.2664 35.4908 27.3289C35.4267 27.3914 35.3769 27.4669 35.3448 27.5504C35.3127 27.6339 35.299 27.7234 35.3047 27.8127C35.3047 27.8127 35.2333 28.2997 35.9625 28.612C35.9625 28.612 36.5005 28.867 36.4648 29.201C36.4648 29.201 36.3959 29.7899 35.8274 29.4954C35.8274 29.4954 35.5507 29.3565 35.5724 29.201C35.5724 29.201 35.4844 29.0097 35.3812 29.0442C35.3812 29.0442 35.2537 29.0786 35.3123 29.651C35.3123 29.651 35.3123 29.8766 35.5673 29.651L35.7037 29.6867C35.7037 29.6867 36.1728 30.0691 36.5706 29.5987C36.5706 29.5987 37.0053 29.201 36.6981 28.7153C36.5392 28.4908 36.3243 28.3119 36.0747 28.1964C36.0747 28.1964 35.6922 28.0205 35.6068 27.726C35.6068 27.726 35.7343 27.2059 36.1945 27.4825C36.2719 27.5796 36.366 27.662 36.4724 27.726C36.4724 27.726 36.6114 27.726 36.5757 27.4124L36.5438 27.1575C36.5438 27.1575 36.5081 26.9637 36.2646 27.1575C36.2646 27.1575 36.039 27.2429 35.9867 27.1575" fill="#0D0140"/>
<path d="M33.5876 27.9337C33.5697 28.0204 33.4474 28.5061 33.4474 28.5061L33.5519 28.682C33.5519 28.682 33.8298 28.6973 33.9343 28.6973C34.0389 28.6973 34.0618 28.6119 34.0618 28.524C34.0107 28.3179 33.9468 28.1153 33.8706 27.9172L33.7826 27.8139L33.5876 27.9337ZM33.8642 26.7864C33.9413 26.8533 33.9908 26.9464 34.0032 27.0477C34.2586 27.7866 34.4714 28.5396 34.6406 29.3029C34.7041 29.4192 34.7864 29.5243 34.8841 29.6139C35.1785 29.7185 34.8841 29.8039 34.8841 29.8039C34.7566 29.8574 34.3639 29.7886 34.3639 29.7886C34.1549 29.7516 34.2365 29.684 34.2365 29.684C34.3244 29.5973 34.2556 29.2493 34.2556 29.2493C34.2184 29.1194 34.1598 28.9966 34.0822 28.886C34.0134 28.8503 33.891 29.0135 33.891 29.0135C33.891 29.0135 33.701 29.0823 33.6832 29.0135C33.6654 28.9446 33.5442 28.8771 33.5442 28.8771C33.3365 28.8771 33.2498 29.3934 33.2498 29.3934C33.3772 29.8281 33.2498 29.758 33.2498 29.758C33.1465 29.8982 32.8163 29.7949 32.8163 29.7949C32.6595 29.758 32.7653 29.6369 32.7653 29.6369C32.8237 29.6217 32.8768 29.5911 32.9193 29.5482C32.9617 29.5054 32.9917 29.4519 33.0063 29.3934C33.0942 29.2735 33.6437 27.0184 33.6437 27.0184C33.6972 26.9139 33.7316 26.7061 33.8527 26.7928" fill="#0D0140"/>
<path d="M29.1665 22.5896C29.1665 22.5896 28.9753 23.1977 28.125 22.5731L25.2121 22.503C25.2121 22.503 24.8296 22.6304 24.7774 22.2263C24.7774 22.2263 24.8475 21.4283 24.8118 21.3595C24.8118 21.3595 24.8296 21.1325 24.4485 21.1325C24.4485 21.1325 23.8595 21.2039 23.8429 20.6825C23.8429 20.6825 23.7371 20.1267 24.553 20.1458C24.553 20.1458 24.808 20.2733 24.8296 19.9368C24.8296 19.9368 24.7952 17.6829 24.8118 17.5147C24.8118 17.5147 24.8819 17.3081 24.4829 17.2724C24.4829 17.2724 23.9105 17.3999 23.8455 17.0175C23.8455 17.0175 23.8098 16.4464 24.191 16.4107C24.191 16.4107 24.6588 16.4464 24.7455 16.3253C24.7455 16.3253 24.85 16.3928 24.8322 15.976L24.8462 15.2544C24.8462 15.2544 24.8985 15.0632 25.1917 15.0811C25.1917 15.0811 25.7309 15.1155 25.801 15.0632C25.858 14.9919 25.9095 14.9165 25.9553 14.8376C25.9553 14.8376 26.2345 14.8223 26.2855 14.8898C26.2855 14.8898 26.7011 15.169 28.2818 15.0632C28.2818 15.0632 28.5227 15.0632 28.575 15.1333C28.575 15.1333 28.8695 15.359 29.0429 15.1155C29.3883 15.0722 29.7369 15.0607 30.0844 15.0811C30.0844 15.0811 30.9321 15.3067 31.5224 14.8261L31.7123 14.8605C31.7123 14.8605 31.9558 15.2583 32.1304 15.1371C32.1304 15.1371 32.6506 15.0849 32.7372 15.1894C32.7372 15.1894 32.9106 15.4444 32.8227 16.1264C32.8227 16.1264 32.7194 16.4209 33.2217 16.4209C33.2217 16.4209 33.7941 16.3176 33.7316 16.853C33.7316 16.853 33.8884 17.4611 32.9348 17.3744C32.8719 17.4608 32.8351 17.5635 32.829 17.6702C32.829 17.6702 32.8125 19.6461 32.7959 19.873C32.7959 19.873 32.778 20.1828 33.1949 20.1662C33.1949 20.1662 33.7494 20.1305 33.766 20.6354C33.766 20.6354 33.8349 21.2932 33.0381 21.1721C33.0381 21.1721 32.7959 21.2078 32.7602 21.3633L32.7258 22.2301C32.7258 22.2301 32.7436 22.6636 32.2566 22.5603C32.1878 22.5603 29.5528 22.6113 29.3246 22.5425C29.3246 22.5425 29.1971 22.5259 29.1691 22.5935" fill="#0D0140"/>
<path d="M29.1666 22.5909C29.1666 22.5909 28.9753 23.199 28.125 22.5731L25.2108 22.503C25.2108 22.503 24.8284 22.6304 24.7774 22.2263C24.7774 22.2263 24.8475 21.4283 24.8118 21.3595C24.8118 21.3595 24.8297 21.1338 24.4472 21.1338C24.4472 21.1338 23.8583 21.2039 23.8417 20.6838C23.8417 20.6838 23.7372 20.1267 24.553 20.1458C24.553 20.1458 24.808 20.2733 24.8297 19.9368C24.8297 19.9368 24.7953 17.6817 24.8118 17.5147C24.8118 17.5147 24.8819 17.3081 24.4829 17.2724C24.4829 17.2724 23.9105 17.3999 23.8455 17.0175C23.8455 17.0175 23.8098 16.4464 24.1923 16.4119C24.1923 16.4119 24.6601 16.4464 24.7468 16.3265C24.7468 16.3265 24.8513 16.3941 24.8335 15.9772L24.8462 15.2544C24.8462 15.2544 24.8985 15.0632 25.1917 15.0811C25.1917 15.0811 25.731 15.1155 25.7998 15.0632C25.8573 14.992 25.9093 14.9166 25.9553 14.8376C25.9553 14.8376 26.2332 14.821 26.2855 14.8898C26.2855 14.8898 26.7011 15.1677 28.2818 15.0632C28.2818 15.0632 28.5228 15.0632 28.575 15.1333C28.575 15.1333 28.8695 15.3577 29.0429 15.1155C29.3883 15.0722 29.7369 15.0607 30.0844 15.0811C30.0844 15.0811 30.9322 15.3054 31.5224 14.8261L31.7136 14.8618C31.7136 14.8618 31.9558 15.2595 32.1305 15.1384C32.1305 15.1384 32.6506 15.0862 32.7386 15.1894C32.7386 15.1894 32.9107 15.4444 32.824 16.1264C32.824 16.1264 32.7194 16.4221 33.2217 16.4221C33.2217 16.4221 33.7954 16.3189 33.7316 16.8543C33.7316 16.8543 33.8884 17.4624 32.9349 17.3757C32.8717 17.4619 32.8353 17.5647 32.8303 17.6715C32.8303 17.6715 32.8125 19.6474 32.7959 19.873C32.7959 19.873 32.7781 20.1841 33.1949 20.1688C33.1949 20.1688 33.7495 20.1318 33.7673 20.6366C33.7673 20.6366 33.8349 21.2944 33.0381 21.1733C33.0381 21.1733 32.7959 21.209 32.7602 21.3646L32.7258 22.2314C32.7258 22.2314 32.7449 22.6649 32.2567 22.5616C32.1878 22.5616 29.5528 22.6126 29.3246 22.5438C29.3221 22.5387 29.201 22.5221 29.1666 22.5909Z" stroke="#0D0140" stroke-width="0.01"/>
<path d="M25.8877 15.4458C25.8877 15.4458 25.9234 15.7926 25.9234 15.8793C25.9234 15.966 25.8661 20.8905 25.8661 20.8905C25.8791 21.0024 25.86 21.1156 25.811 21.2169C25.762 21.3183 25.6851 21.4036 25.5894 21.4629C25.5894 21.4629 25.5027 21.4986 25.4849 21.2564L25.5206 16.0539C25.5206 16.0539 25.555 15.4165 25.8839 15.4458" fill="white"/>
<path d="M25.8891 15.4457C25.8891 15.4457 25.9235 15.7912 25.9235 15.8779C25.9235 15.9645 25.8661 20.8904 25.8661 20.8904C25.8788 21.0025 25.8594 21.1159 25.8102 21.2174C25.761 21.319 25.684 21.4045 25.5882 21.464C25.5882 21.464 25.5015 21.4997 25.4837 21.2563L25.5181 16.0538C25.5181 16.0538 25.5576 15.4113 25.8891 15.4457Z" stroke="#0D0140" stroke-width="0.01"/>
<path d="M25.3153 21.515C25.3153 21.515 25.3497 16.6248 25.3332 16.5369C25.3166 16.4489 25.3497 16.607 25.3497 16.607C25.3497 16.607 25.2988 15.7592 25.5244 15.4112C25.5244 15.4112 25.4543 15.1167 25.0553 15.4801L25.04 16.1914C25.04 16.1914 25.04 16.5904 24.6741 16.5738C24.6741 16.5738 24.2572 16.556 24.066 16.7485C24.066 16.7485 23.9628 17.1309 24.3605 17.0608C24.3605 17.0608 24.9864 17.0608 25.0208 17.3158L24.9864 19.9368C24.9864 19.9368 25.1254 20.3702 24.6384 20.3702C24.6384 20.3702 24.0494 20.3371 24.066 20.7016C24.066 20.7016 24.1935 21.014 24.6919 20.9082C24.6919 20.9082 25.0553 20.9783 25.04 21.3238V21.9841C25.04 21.9841 25.003 22.2391 25.3497 22.2607H28.0562C28.0562 22.2607 28.1938 22.2786 28.1938 22.1039C28.1938 22.1039 28.1773 21.9675 27.9695 21.9675L25.7156 21.928C25.7156 21.928 25.3561 22.0555 25.3153 21.515Z" fill="white"/>
<path d="M25.7845 21.5456C25.7845 21.5456 25.7157 21.7891 25.9745 21.7355H27.7592L28.2449 21.8388C28.2449 21.8388 28.7548 21.7113 28.2449 21.4398C28.2449 21.4398 26.6501 21.4589 26.5112 21.4232C26.5112 21.4232 26.1823 21.3365 26.1122 21.3199C26.1122 21.3199 25.9388 21.2511 25.7833 21.5456" fill="white"/>
<path d="M25.7833 21.5458C25.7833 21.5458 25.7144 21.7905 25.9745 21.737H27.7592L28.2462 21.8415C28.2462 21.8415 28.7561 21.7204 28.2462 21.4413C28.2462 21.4413 26.6501 21.4604 26.5112 21.4247L26.1122 21.3214C26.1122 21.3214 25.9388 21.2551 25.7833 21.5458Z" stroke="#0D0140" stroke-width="0.01"/>
<path d="M28.7497 21.8007C28.7497 21.8007 28.4157 21.8007 28.4374 22.2252C28.4479 22.3184 28.4931 22.4042 28.5639 22.4656C28.6348 22.527 28.7261 22.5595 28.8198 22.5567C28.9091 22.5396 28.9881 22.4883 29.04 22.4137C29.092 22.3392 29.1127 22.2473 29.0977 22.1577C29.0977 22.1577 28.9065 21.7229 28.751 21.7943" fill="white"/>
<path d="M28.9919 21.6197C28.9919 21.6197 29.1474 21.4463 29.2469 21.4463C29.2469 21.4463 30.9806 21.6018 31.2751 21.394C31.2751 21.394 31.53 21.343 31.604 21.394C31.604 21.394 31.8589 21.6018 31.8589 21.7229C31.8589 21.7229 31.8424 21.881 31.5313 21.7943L29.4661 21.8109C29.4661 21.8109 28.9282 21.9384 28.9804 21.6197" fill="white"/>
<path d="M28.9919 21.6195C28.9919 21.6195 29.1474 21.4449 29.2469 21.4449C29.2469 21.4449 30.9819 21.6017 31.2763 21.3939C31.2763 21.3939 31.5313 21.3416 31.6065 21.3939C31.6065 21.3939 31.8615 21.6017 31.8615 21.724C31.8615 21.724 31.8436 21.8808 31.5326 21.7941L29.4674 21.8107C29.4674 21.8107 28.9396 21.928 28.9919 21.6195Z" stroke="#0D0140" stroke-width="0.01"/>
<path d="M29.2698 22.1398C29.2698 22.1398 29.2698 22.0021 29.5108 22.0021L31.9406 21.9843C31.9406 21.9843 32.1649 22.1041 32.1649 21.6885C32.1649 21.6885 32.2542 19.798 32.2618 17.7162C32.2618 17.098 32.2924 16.4414 32.2695 15.8448C32.2695 15.8448 32.2172 15.5899 32.142 15.5325C32.142 15.5325 32.142 15.2546 32.4377 15.3604C32.4377 15.3604 32.6927 15.377 32.6277 15.7747L32.6442 16.3815C32.6442 16.3815 32.592 16.6365 33.0611 16.5727C33.0611 16.5727 33.529 16.6416 33.5455 16.815C33.5455 16.815 33.6858 17.163 33.1312 17.1273H32.7386C32.6871 17.1592 32.647 17.2066 32.6241 17.2627C32.6012 17.3188 32.5966 17.3808 32.6111 17.4396L32.5588 19.9548C32.5588 19.9548 32.5231 20.3882 32.9413 20.3717C32.9413 20.3717 33.3747 20.3538 33.4601 20.4928C33.4601 20.4928 33.7571 20.9262 33.1146 20.8918C33.1146 20.8918 32.7156 20.8739 32.6289 20.9428C32.6289 20.9428 32.5601 21.0307 32.5015 21.8453C32.5015 21.8453 32.5359 22.331 32.1713 22.2788C32.1713 22.2788 29.7606 22.3119 29.5363 22.2609C29.5363 22.2609 29.2928 22.331 29.2584 22.1334" fill="white"/>
<path d="M26.1478 15.289L26.0968 20.856C26.0968 20.856 26.0789 21.111 26.5124 21.1671C26.5124 21.1671 27.0223 21.2193 27.137 21.1671C27.137 21.1671 27.4646 21.1492 28.3162 21.1849C28.3162 21.1849 28.524 21.3914 28.5406 21.1327C28.5406 21.1327 28.6795 16.6224 28.6107 15.6867C28.6107 15.6867 28.5941 15.289 28.2971 15.2711C28.2971 15.2711 26.9802 15.3744 26.8591 15.2711L26.339 15.1322C26.339 15.1322 26.1299 15.1487 26.1478 15.289Z" fill="white"/>
<path d="M31.6447 15.4968L31.6281 20.9785C31.6281 20.9785 31.7671 21.4654 31.9927 21.4144C32.019 21.3233 32.0366 21.2298 32.045 21.1353L32.1151 15.9086C32.1151 15.9086 31.9405 15.0761 31.6447 15.493" fill="white"/>
<path d="M31.6447 15.4968L31.6281 20.9785C31.6281 20.9785 31.7671 21.4654 31.9927 21.4144C32.019 21.3233 32.0366 21.2298 32.045 21.1353L32.1151 15.9086C32.1151 15.9086 31.9405 15.0761 31.6447 15.493" stroke="#0D0140" stroke-width="0.01"/>
<path d="M31.6447 15.4968L31.6281 20.9785C31.6281 20.9785 31.7671 21.4655 31.9927 21.4145C32.019 21.3233 32.0366 21.2298 32.045 21.1353L32.1151 15.9086C32.1151 15.9086 31.9405 15.08 31.6447 15.4968Z" stroke="#0D0140" stroke-width="0.01"/>
<path d="M28.8886 15.5439C28.8886 15.5439 28.8364 18.161 28.8529 18.249L28.8211 20.4519L28.7497 21.2167C28.7497 21.2167 28.8529 21.3748 28.9409 21.2703C28.9409 21.2703 29.4954 21.1326 29.8422 21.1836C29.8422 21.1836 30.9525 21.2881 31.1782 21.1148C31.1782 21.1148 31.3516 21.2014 31.4038 20.9235C31.4038 20.9235 31.4727 16.0678 31.4382 15.9811C31.4382 15.9811 31.5071 15.2889 31.4727 15.2162C31.4727 15.2162 31.4548 15.0582 31.1616 15.1958C31.1616 15.1958 31.1948 15.3361 29.5477 15.2851C29.5477 15.2851 28.9231 15.266 28.8886 15.54" fill="white"/>
<path d="M28.3532 17.1475L28.1964 17.4777C28.1964 17.4777 27.8165 19.1591 27.6087 19.5059C27.6087 19.5059 27.5743 19.8539 27.2785 19.576C27.2785 19.576 26.6016 17.4432 26.5672 17.3731L26.3416 17.2176C26.3416 17.2176 26.2051 17.0264 26.4461 17.0098L27.0835 17.0264C27.0835 17.0264 27.2913 17.1998 27.0134 17.3923C27.0134 17.3923 27.0478 17.6689 27.4124 18.7257C27.4124 18.7257 27.5156 19.1247 27.638 18.8302L27.9899 17.5937L27.8853 17.2291C27.8853 17.2291 27.7808 17.0557 27.9376 17.0391C27.9376 17.0391 28.3022 17.0047 28.3532 17.1424" fill="#0D0140"/>
<path d="M29.3603 17.4256L29.3412 19.2638L29.2915 19.4028C29.2915 19.4028 29.1168 19.6272 29.2379 19.645C29.2379 19.645 29.0837 19.7495 30.347 19.7725C30.347 19.7725 30.834 19.8592 30.7129 19.2345C30.7129 19.2345 30.6606 19.0102 30.486 19.3391C30.486 19.3391 30.4337 19.6157 29.8116 19.529C29.7357 19.4639 29.6862 19.3732 29.6726 19.274V18.5092C29.6726 18.5092 29.6535 18.3179 29.9493 18.3371C29.9493 18.3371 30.2782 18.5449 30.3317 18.4569C30.3317 18.4569 30.4592 18.1803 30.3317 18.0069C30.3317 18.0069 30.1749 17.9903 30.1583 18.0592C30.1583 18.0592 30.0551 18.267 29.7593 18.1446C29.6826 17.9887 29.6645 17.8104 29.7083 17.6423C29.7083 17.6423 29.6739 17.2089 29.9633 17.2433C29.9633 17.2433 30.3101 17.3121 30.3457 17.4179C30.3457 17.4179 30.4324 17.627 30.5204 17.3835L30.4337 17.0839C30.4337 17.0839 30.384 16.9565 30.296 16.9972C30.296 16.9972 29.7071 17.0839 29.6357 17.0125L29.1678 17.0661C29.1595 17.092 29.1565 17.1194 29.1591 17.1465C29.1618 17.1736 29.1699 17.1999 29.183 17.2238C29.1961 17.2477 29.214 17.2686 29.2355 17.2853C29.257 17.302 29.2817 17.3142 29.3081 17.321C29.3247 17.3332 29.3381 17.3491 29.3472 17.3675C29.3563 17.386 29.3608 17.4063 29.3603 17.4269" fill="#0D0140"/>
</g>
<defs>
<filter id="filter0_dd_0_2457" x="-5.24601" y="-3.90576" width="78.4167" height="78.4167" filterUnits="userSpaceOnUse" color-interpolation-filters="sRGB">
<feFlood flood-opacity="0" result="BackgroundImageFix"/>
<feColorMatrix in="SourceAlpha" type="matrix" values="0 0 0 0 0 0 0 0 0 0 0 0 0 0 0 0 0 0 127 0" result="hardAlpha"/>
<feOffset dy="11"/>
<feGaussianBlur stdDeviation="11.5"/>
<feComposite in2="hardAlpha" operator="out"/>
<feColorMatrix type="matrix" values="0 0 0 0 0.65098 0 0 0 0 0.129412 0 0 0 0 0.192157 0 0 0 0.13 0"/>
<feBlend mode="normal" in2="BackgroundImageFix" result="effect1_dropShadow_0_2457"/>
<feColorMatrix in="SourceAlpha" type="matrix" values="0 0 0 0 0 0 0 0 0 0 0 0 0 0 0 0 0 0 127 0" result="hardAlpha"/>
<feOffset dy="4"/>
<feGaussianBlur stdDeviation="2"/>
<feComposite in2="hardAlpha" operator="out"/>
<feColorMatrix type="matrix" values="0 0 0 0 0.65098 0 0 0 0 0.129412 0 0 0 0 0.192157 0 0 0 0.12 0"/>
<feBlend mode="normal" in2="effect1_dropShadow_0_2457" result="effect2_dropShadow_0_2457"/>
<feBlend mode="normal" in="SourceGraphic" in2="effect2_dropShadow_0_2457" result="shape"/>
</filter>
</defs>
</svg>
