<svg width="24" height="24" viewBox="0 0 24 24" fill="none" xmlns="http://www.w3.org/2000/svg">
<path fill-rule="evenodd" clip-rule="evenodd" d="M16.6416 3C19.9486 3 22.6386 5.69 22.6386 8.998V16.175C22.6386 19.482 19.9486 22.173 16.6416 22.173H7.99763C4.69063 22.173 1.99963 19.482 1.99963 16.175V8.998C1.99963 5.69 4.69063 3 7.99763 3H16.6416ZM16.6416 4.5H7.99763C5.51763 4.5 3.49963 6.518 3.49963 8.998V16.175C3.49963 18.655 5.51763 20.673 7.99763 20.673H16.6416C19.1216 20.673 21.1386 18.655 21.1386 16.175V15.895L17.8407 15.8956C15.9437 15.8956 14.3997 14.3526 14.3987 12.4566C14.3987 10.5586 15.9427 9.0146 17.8407 9.0136L21.1386 9.013V8.998C21.1386 6.518 19.1216 4.5 16.6416 4.5ZM21.1386 10.513L17.8407 10.5136C16.7697 10.5146 15.8987 11.3856 15.8987 12.4556C15.8987 13.5246 16.7707 14.3956 17.8407 14.3956L21.1386 14.395V10.513ZM18.2983 11.6436C18.7123 11.6436 19.0483 11.9796 19.0483 12.3936C19.0483 12.8076 18.7123 13.1436 18.2983 13.1436H17.9863C17.5723 13.1436 17.2363 12.8076 17.2363 12.3936C17.2363 11.9796 17.5723 11.6436 17.9863 11.6436H18.2983ZM12.6846 7.5381C13.0986 7.5381 13.4346 7.8741 13.4346 8.2881C13.4346 8.7021 13.0986 9.0381 12.6846 9.0381H7.28563C6.87163 9.0381 6.53563 8.7021 6.53563 8.2881C6.53563 7.8741 6.87163 7.5381 7.28563 7.5381H12.6846Z" fill="#00CC9A"/>
</svg>
