<svg width="32" height="32" viewBox="0 0 32 32" fill="none" xmlns="http://www.w3.org/2000/svg">
<path fill-rule="evenodd" clip-rule="evenodd" d="M26.4532 24.2575C26.4532 28.6521 20.4265 29.1601 15.8945 29.1601L15.5702 29.1598C12.6828 29.1528 5.33321 28.9705 5.33321 24.2308C5.33321 19.9258 11.1177 19.3505 15.6152 19.3288L16.2188 19.3284C19.1061 19.3354 26.4532 19.5177 26.4532 24.2575ZM15.8945 21.3281C10.2132 21.3281 7.33321 22.3041 7.33321 24.2308C7.33321 26.1748 10.2132 27.1601 15.8945 27.1601C21.5745 27.1601 24.4532 26.1841 24.4532 24.2575C24.4532 22.3135 21.5745 21.3281 15.8945 21.3281ZM15.8945 2.66626C19.7985 2.66626 22.9732 5.84226 22.9732 9.74626C22.9732 13.6503 19.7985 16.8249 15.8945 16.8249H15.8519C11.9559 16.8129 8.79987 13.6356 8.81316 9.74226C8.81316 5.84226 11.9892 2.66626 15.8945 2.66626ZM15.8945 4.57026C13.0399 4.57026 10.7172 6.89159 10.7172 9.74626C10.7079 12.5916 13.0132 14.9116 15.8559 14.9223L15.8945 15.8743V14.9223C18.7479 14.9223 21.0692 12.5996 21.0692 9.74626C21.0692 6.89159 18.7479 4.57026 15.8945 4.57026Z" fill="#FE970F"/>
</svg>
