<svg width="24" height="24" viewBox="0 0 24 24" fill="none" xmlns="http://www.w3.org/2000/svg">
<path fill-rule="evenodd" clip-rule="evenodd" d="M21.2729 14.7352C21.6859 14.7662 21.9949 15.1272 21.9639 15.5402L21.7739 18.0492C21.6169 20.1192 19.8699 21.7402 17.7949 21.7402H6.19494C4.11994 21.7402 2.37294 20.1192 2.21594 18.0492L2.02594 15.5402C1.99494 15.1272 2.30494 14.7662 2.71794 14.7352C3.13294 14.7202 3.49094 15.0132 3.52294 15.4272L3.71194 17.9352C3.80994 19.2272 4.89994 20.2402 6.19494 20.2402H17.7949C19.0899 20.2402 20.1809 19.2272 20.2779 17.9352L20.4679 15.4272C20.4999 15.0132 20.8669 14.7192 21.2729 14.7352ZM13.2851 2.00012C14.7881 2.00012 16.0332 3.12639 16.2207 4.57915L18.1902 4.58002C20.2862 4.58002 21.9902 6.28902 21.9902 8.39102V11.83C21.9902 12.097 21.8482 12.343 21.6192 12.477C19.1509 13.9225 16.0242 14.7656 12.7448 14.8781L12.7451 16.6767C12.7451 17.0907 12.4091 17.4267 11.9951 17.4267C11.5811 17.4267 11.2451 17.0907 11.2451 16.6767L11.2445 14.8783C7.96843 14.7669 4.8414 13.9236 2.37124 12.477C2.14124 12.343 2.00024 12.097 2.00024 11.83V8.38102C2.00024 6.28502 3.70924 4.58002 5.81024 4.58002L7.76955 4.57915C7.95709 3.12639 9.20221 2.00012 10.7051 2.00012H13.2851ZM18.1902 6.08002H5.81024C4.53624 6.08002 3.50024 7.11202 3.50024 8.38102V11.393C5.87396 12.6828 8.86648 13.3897 11.9812 13.391L11.9951 13.3897L12.0062 13.3901L12.4824 13.3852C15.4282 13.315 18.2383 12.6161 20.4902 11.393V8.39102C20.4902 7.11602 19.4592 6.08002 18.1902 6.08002ZM13.2851 3.50012H10.7051C10.0318 3.50012 9.4634 3.9584 9.29549 4.5794H14.6948C14.5269 3.9584 13.9585 3.50012 13.2851 3.50012Z" fill="#7850AD"/>
</svg>
