<svg width="25" height="24" viewBox="0 0 25 24" fill="none" xmlns="http://www.w3.org/2000/svg">
<g opacity="0.5">
<path d="M19.0431 8.53429C19.0477 8.32648 18.9874 8.12242 18.8705 7.95046C18.7537 7.77851 18.586 7.6472 18.3911 7.57481C18.1961 7.50242 17.9834 7.49253 17.7826 7.54652C17.5817 7.60052 17.4027 7.71571 17.2704 7.87608L12.0245 13.9952L6.78051 7.87608C6.69891 7.76514 6.59533 7.67224 6.47614 7.60318C6.35695 7.53412 6.22473 7.49039 6.08785 7.47474C5.95097 7.45909 5.81236 7.47186 5.68064 7.51223C5.54892 7.5526 5.42692 7.61972 5.32236 7.70938C5.2178 7.79903 5.13299 7.9093 5.07305 8.03326C5.01311 8.15723 4.97944 8.29223 4.97413 8.42981C4.96882 8.56738 4.99191 8.70457 5.04212 8.83278C5.09232 8.961 5.16847 9.07747 5.26581 9.17491L11.2642 16.1808C11.3582 16.2908 11.4748 16.3791 11.6062 16.4397C11.7377 16.5003 11.8807 16.5317 12.0255 16.5317C12.1702 16.5317 12.3133 16.5003 12.4447 16.4397C12.5761 16.3791 12.6928 16.2908 12.7868 16.1808L18.791 9.17491C18.9483 8.99793 19.0378 8.77093 19.0433 8.53429H19.0431Z" fill="#171725"/>
</g>
</svg>
