<svg width="18" height="18" viewBox="0 0 18 18" fill="none" xmlns="http://www.w3.org/2000/svg">
<g clip-path="url(#clip0_0_686)">
<path d="M7.39506 13.5C7.29223 13.4997 7.19056 13.4782 7.09637 13.4369C7.00218 13.3956 6.91749 13.3354 6.84756 13.26L3.20256 9.38249C3.06631 9.23729 2.99332 9.0439 2.99965 8.84488C3.00598 8.64586 3.09111 8.4575 3.23631 8.32124C3.38152 8.18499 3.57491 8.112 3.77393 8.11833C3.97295 8.12466 4.16131 8.20979 4.29756 8.35499L7.38756 11.6475L13.6951 4.74749C13.7591 4.66779 13.8387 4.602 13.9291 4.55419C14.0194 4.50638 14.1186 4.47754 14.2205 4.46945C14.3224 4.46136 14.4249 4.4742 14.5217 4.50716C14.6184 4.54012 14.7074 4.59252 14.7832 4.66113C14.859 4.72974 14.92 4.81312 14.9623 4.90615C15.0047 4.99918 15.0276 5.09989 15.0297 5.2021C15.0317 5.30431 15.0129 5.40585 14.9742 5.5005C14.9356 5.59515 14.878 5.6809 14.8051 5.75249L7.95006 13.2525C7.8808 13.3293 7.7964 13.3909 7.70218 13.4335C7.60796 13.4761 7.50596 13.4987 7.40256 13.5H7.39506Z" fill="#FDFDFD"/>
</g>
<defs>
<clipPath id="clip0_0_686">
<rect width="18" height="18" fill="white"/>
</clipPath>
</defs>
</svg>
