<svg width="32" height="32" viewBox="0 0 32 32" fill="none" xmlns="http://www.w3.org/2000/svg">
<g filter="url(#filter0_dd_0_2663)">
<path d="M5.69989 28.9173C5.59943 28.8531 5.56803 28.7247 5.6371 28.6254C5.70617 28.532 5.8443 28.5028 5.95104 28.567C6.01382 28.6079 6.08289 28.6488 6.15823 28.6896C6.67309 28.9815 7.15655 29.1275 7.5521 29.1275C7.90999 29.1275 8.20509 28.9991 8.38717 28.748C8.39973 28.7305 8.41229 28.7188 8.41229 28.7071C8.46252 28.6254 8.50647 28.5437 8.53158 28.4619C8.58181 28.2926 8.57553 28.1175 8.50019 27.9599C8.42484 27.7905 8.26788 27.6329 8.02929 27.4986C7.87232 27.4111 7.6714 27.3293 7.43281 27.2651C6.82378 27.1075 6.37799 26.8798 6.13312 26.582C5.86941 26.2492 5.85058 25.8522 6.13312 25.3677C6.32148 25.0466 6.70448 24.8481 7.19422 24.813C7.61489 24.7838 8.12347 24.8772 8.63832 25.1225C8.75134 25.175 8.79529 25.3034 8.73878 25.4027C8.68227 25.5078 8.54414 25.5486 8.4374 25.4961C7.99789 25.2859 7.57722 25.21 7.23189 25.2334C6.89912 25.2567 6.64169 25.3793 6.53495 25.572C6.34659 25.8931 6.34659 26.1442 6.50356 26.3368C6.67936 26.5587 7.04981 26.7338 7.55838 26.8681C7.83465 26.9382 8.06696 27.0374 8.2616 27.1483C8.58181 27.3293 8.79529 27.557 8.9083 27.8022C9.0276 28.0533 9.04016 28.3277 8.95853 28.5845C8.92086 28.7013 8.86435 28.8239 8.78901 28.9348C8.77017 28.9582 8.75762 28.9815 8.75134 28.9932C8.48135 29.3669 8.0544 29.5537 7.53955 29.5537C7.06237 29.5537 6.50356 29.3902 5.91336 29.0574C5.85685 29.0107 5.78151 28.9699 5.69989 28.9173Z" fill="#EA501F"/>
<path d="M9.71191 25.0115C9.71191 24.9006 9.81237 24.813 9.93795 24.813C10.0635 24.813 10.164 24.9006 10.164 25.0115V29.3493C10.164 29.4602 10.0635 29.5478 9.93795 29.5478C9.81237 29.5478 9.71191 29.4602 9.71191 29.3493V25.0115Z" fill="#EA501F"/>
<path d="M10.1766 27.7145C10.095 27.8021 9.95686 27.8196 9.8564 27.7437C9.76222 27.6678 9.74338 27.5394 9.825 27.446C10.1703 27.0548 10.5596 26.8154 10.9426 26.7103C11.2189 26.6344 11.4889 26.6286 11.7212 26.687C11.966 26.7512 12.1795 26.8796 12.3302 27.0781C12.4746 27.265 12.5562 27.5043 12.5562 27.7904V29.3434C12.5562 29.4602 12.4558 29.5536 12.3302 29.5536C12.2046 29.5536 12.1042 29.4602 12.1042 29.3434V27.7904C12.1042 27.5919 12.0539 27.4343 11.966 27.3175C11.8781 27.2066 11.7588 27.1307 11.6082 27.0898C11.4512 27.049 11.2691 27.0548 11.0745 27.1073C10.7731 27.1949 10.4592 27.3934 10.1766 27.7145Z" fill="#EA501F"/>
<path d="M14.7726 26.6462C15.2059 26.6462 15.5951 26.8097 15.8777 27.0724C16.1602 27.3352 16.336 27.6971 16.336 28.1C16.336 28.5028 16.1602 28.8648 15.8777 29.1275C15.5951 29.3902 15.2059 29.5537 14.7726 29.5537C14.3394 29.5537 13.9501 29.3902 13.6676 29.1275C13.385 28.8648 13.2092 28.5028 13.2092 28.1C13.2092 27.6971 13.385 27.3352 13.6676 27.0724C13.9501 26.8097 14.3457 26.6462 14.7726 26.6462ZM15.5637 27.3643C15.3628 27.1775 15.0803 27.0608 14.7726 27.0608C14.465 27.0608 14.1887 27.1775 13.9815 27.3643C13.7806 27.5512 13.655 27.8139 13.655 28.1C13.655 28.386 13.7806 28.6488 13.9815 28.8356C14.1824 29.0224 14.465 29.1392 14.7726 29.1392C15.0803 29.1392 15.3565 29.0224 15.5637 28.8356C15.7647 28.6488 15.8902 28.386 15.8902 28.1C15.8902 27.8139 15.7647 27.5512 15.5637 27.3643Z" fill="#EA501F"/>
<path d="M16.9763 26.8564C16.9763 26.7397 17.0768 26.6462 17.2024 26.6462C17.3279 26.6462 17.4284 26.7397 17.4284 26.8564V27.1191C17.4472 27.1016 17.4598 27.0841 17.4786 27.0724C17.7612 26.8097 18.1504 26.6462 18.5837 26.6462C19.0169 26.6462 19.4062 26.8097 19.6887 27.0724C19.9713 27.3352 20.1471 27.6971 20.1471 28.1C20.1471 28.5028 19.9713 28.8648 19.6887 29.1275C19.4062 29.3902 19.0169 29.5537 18.5837 29.5537C18.1504 29.5537 17.7612 29.3902 17.4786 29.1275C17.4598 29.11 17.4472 29.0925 17.4284 29.0808V30.9899C17.4284 31.1067 17.3279 31.2001 17.2024 31.2001C17.0768 31.2001 16.9763 31.1067 16.9763 30.9899V26.8564ZM19.3685 27.3643C19.1676 27.1775 18.885 27.0608 18.5774 27.0608C18.2697 27.0608 17.9935 27.1775 17.7863 27.3643C17.5854 27.5512 17.4598 27.8139 17.4598 28.1C17.4598 28.386 17.5854 28.6488 17.7863 28.8356C17.9872 29.0224 18.2697 29.1392 18.5774 29.1392C18.885 29.1392 19.1613 29.0224 19.3685 28.8356C19.5694 28.6488 19.695 28.386 19.695 28.1C19.695 27.8139 19.5694 27.5512 19.3685 27.3643Z" fill="#EA501F"/>
<path d="M22.2694 26.6462C22.6524 26.6462 23.004 26.7864 23.2614 27.0316C23.4749 27.2301 23.5628 27.4286 23.6381 27.6387C23.8328 28.2284 23.4623 28.2051 23.3493 28.2051H21.2711C21.2899 28.3452 21.3276 28.4736 21.3715 28.5904C21.4531 28.7714 21.5724 28.9056 21.7231 28.9991C21.8801 29.0925 22.081 29.1392 22.3133 29.1392C22.5645 29.1392 22.8596 29.075 23.1861 28.9465C23.2991 28.8998 23.4309 28.9524 23.4812 29.0574C23.5314 29.1625 23.4749 29.2851 23.3619 29.3318C22.9852 29.4778 22.6335 29.5479 22.3196 29.5537C21.9994 29.5595 21.7169 29.4895 21.4845 29.3494C21.2522 29.2092 21.0513 29.0166 20.9571 28.748C20.7437 28.1584 20.7374 27.5745 21.2773 27.0316C21.5285 26.7805 21.8864 26.6462 22.2694 26.6462ZM22.9475 27.3293C22.7654 27.1658 22.5268 27.0666 22.2694 27.0666C22.012 27.0666 21.7734 27.1658 21.5913 27.3293C21.4594 27.4519 21.3527 27.6037 21.2962 27.7789H23.2489C23.1798 27.6037 23.0793 27.4519 22.9475 27.3293Z" fill="#EA501F"/>
<path d="M25.6976 26.6462C26.0806 26.6462 26.4322 26.7864 26.6896 27.0316C26.9031 27.2301 26.991 27.4286 27.0664 27.6387C27.261 28.2284 26.8906 28.2051 26.7775 28.2051H24.6993C24.7181 28.3452 24.7558 28.4736 24.7997 28.5904C24.8814 28.7714 25.0007 28.9056 25.1514 28.9991C25.3083 29.0925 25.5092 29.1392 25.7416 29.1392C25.9927 29.1392 26.2878 29.075 26.6143 28.9465C26.7273 28.8998 26.8592 28.9524 26.9094 29.0574C26.9596 29.1625 26.9031 29.2851 26.7901 29.3318C26.4134 29.4778 26.0618 29.5479 25.7478 29.5537C25.4276 29.5595 25.1451 29.4895 24.9128 29.3494C24.6805 29.2092 24.4795 29.0166 24.3854 28.748C24.1719 28.1584 24.1656 27.5745 24.7056 27.0316C24.9567 26.7805 25.3146 26.6462 25.6976 26.6462ZM26.3757 27.3293C26.1936 27.1658 25.955 27.0666 25.6976 27.0666C25.4402 27.0666 25.2016 27.1658 25.0195 27.3293C24.8877 27.4519 24.7809 27.6037 24.7244 27.7789H26.6771C26.608 27.6037 26.5076 27.4519 26.3757 27.3293Z" fill="#EA501F"/>
<path d="M7.28821 7.66606H12.0161C12.1605 6.1773 12.6063 4.84033 13.2467 3.80696C14.0943 2.44081 15.2998 1.6001 16.6623 1.6001C18.0248 1.6001 19.224 2.44665 20.0779 3.80696C20.7184 4.8345 21.1641 6.1773 21.3086 7.66606H26.0301C26.5889 7.66606 27.0912 8.09225 27.0473 8.61185L26.0992 20.9131C25.9799 22.4544 24.9376 23.336 23.4245 23.336H9.90015C8.21746 23.336 7.32588 22.2442 7.22542 20.9131L6.27106 8.61769C6.23339 8.09809 6.7294 7.66606 7.28821 7.66606ZM13.1965 7.66606H20.1156C19.9775 6.3758 19.5945 5.2315 19.0482 4.35576C18.4203 3.33406 17.5664 2.69769 16.6623 2.69769C15.7519 2.69769 14.9043 3.33406 14.2638 4.3616C13.7176 5.2315 13.3409 6.38164 13.1965 7.66606Z" fill="#EA501F"/>
<path d="M13.2281 19.0216C13.0083 18.8814 12.9518 18.607 13.1025 18.4027C13.2532 18.1984 13.5483 18.1458 13.768 18.2859C13.9062 18.3735 14.0506 18.4611 14.2076 18.5487C15.3126 19.1733 16.3298 19.4828 17.1774 19.4828C17.9434 19.4828 18.565 19.2142 18.9605 18.6713C18.9856 18.6304 19.0108 18.607 19.017 18.5895C19.1301 18.4202 19.2117 18.2392 19.2682 18.0641C19.3812 17.7021 19.3624 17.3285 19.2054 16.9898C19.0359 16.6337 18.7094 16.2892 18.2008 16.0032C17.8618 15.8105 17.4411 15.6412 16.9325 15.5128C15.6391 15.1741 14.6847 14.6954 14.1699 14.0532C13.6048 13.3468 13.5609 12.4944 14.1636 11.461C14.5654 10.7779 15.388 10.3517 16.4302 10.2758C17.3281 10.2116 18.408 10.4101 19.5068 10.9297C19.7454 11.0406 19.8396 11.3092 19.714 11.5311C19.5884 11.7529 19.3059 11.8405 19.0673 11.7237C18.1317 11.28 17.2402 11.1107 16.4993 11.1632C15.7898 11.2158 15.2498 11.4727 15.0112 11.8814C14.6094 12.5644 14.6157 13.1016 14.9422 13.5102C15.3189 13.9831 16.1037 14.3509 17.1962 14.637C17.7864 14.7946 18.2887 14.9931 18.7031 15.2267C19.3875 15.612 19.8458 16.0966 20.0907 16.622C20.3418 17.165 20.3732 17.7371 20.2037 18.2976C20.1284 18.5487 20.0091 18.7997 19.8458 19.0449C19.8082 19.0975 19.783 19.1383 19.7642 19.1675C19.1803 19.9674 18.2824 20.3644 17.1899 20.3702C16.1665 20.3702 14.9736 20.0199 13.7178 19.3076C13.5609 19.2259 13.3976 19.1325 13.2281 19.0216Z" fill="white"/>
</g>
<defs>
<filter id="filter0_dd_0_2663" x="-23" y="-12" width="78" height="78" filterUnits="userSpaceOnUse" color-interpolation-filters="sRGB">
<feFlood flood-opacity="0" result="BackgroundImageFix"/>
<feColorMatrix in="SourceAlpha" type="matrix" values="0 0 0 0 0 0 0 0 0 0 0 0 0 0 0 0 0 0 127 0" result="hardAlpha"/>
<feOffset dy="11"/>
<feGaussianBlur stdDeviation="11.5"/>
<feComposite in2="hardAlpha" operator="out"/>
<feColorMatrix type="matrix" values="0 0 0 0 0.917647 0 0 0 0 0.313726 0 0 0 0 0.121569 0 0 0 0.12 0"/>
<feBlend mode="normal" in2="BackgroundImageFix" result="effect1_dropShadow_0_2663"/>
<feColorMatrix in="SourceAlpha" type="matrix" values="0 0 0 0 0 0 0 0 0 0 0 0 0 0 0 0 0 0 127 0" result="hardAlpha"/>
<feOffset dy="4"/>
<feGaussianBlur stdDeviation="2"/>
<feComposite in2="hardAlpha" operator="out"/>
<feColorMatrix type="matrix" values="0 0 0 0 0.917647 0 0 0 0 0.313726 0 0 0 0 0.121569 0 0 0 0.13 0"/>
<feBlend mode="normal" in2="effect1_dropShadow_0_2663" result="effect2_dropShadow_0_2663"/>
<feBlend mode="normal" in="SourceGraphic" in2="effect2_dropShadow_0_2663" result="shape"/>
</filter>
</defs>
</svg>
