<svg width="40" height="40" viewBox="0 0 40 40" fill="none" xmlns="http://www.w3.org/2000/svg">
<g clip-path="url(#clip0_0_1328)">
<g filter="url(#filter0_dd_0_1328)">
<path d="M19.5091 0.118062C20.3809 -0.373929 21.4451 0.767413 20.9819 1.71005C20.7129 2.47845 19.6929 2.68278 19.1719 2.09707C18.6199 1.53495 18.7999 0.423907 19.5091 0.118062ZM10.1321 1.212C10.6617 0.976071 11.3321 1.50118 11.2781 2.12585C11.3343 2.80399 10.5681 3.30313 10.0283 2.98083C9.31312 2.68105 9.39492 1.42456 10.1321 1.212ZM29.3373 2.99988C28.5097 2.89166 28.3787 1.48343 29.1755 1.19988C29.7935 0.87369 30.3605 1.48538 30.4509 2.11936C30.3213 2.6607 29.9025 3.15637 29.3373 2.99988ZM12.2657 5.53127C13.1511 4.9252 14.4145 5.8278 14.2783 6.94079C14.2323 8.0646 12.8531 8.71568 12.0749 7.95594C11.3225 7.35919 11.4365 5.99014 12.2657 5.53127ZM25.7819 6.17434C26.1769 5.07261 27.7775 5.03927 28.2271 6.11178C28.6715 6.94642 28.1249 7.97997 27.3331 8.26373C26.2843 8.47564 25.2881 7.24858 25.7819 6.17434ZM18.3799 8.20118C18.3713 7.25421 19.1683 6.54858 19.9999 6.48408C20.5515 6.60378 21.1527 6.85811 21.3893 7.46049C21.8303 8.29144 21.4387 9.43559 20.6419 9.81698C20.2775 10.038 19.8467 9.95507 19.4499 9.92932C18.8433 9.60702 18.3325 8.97499 18.3799 8.20118ZM4.43492 9.58105C5.24372 9.04295 6.33492 10.025 6.02872 10.9759C5.86012 11.7984 4.83852 12.133 4.25452 11.6079C3.63112 11.1159 3.72992 9.933 4.43492 9.58105ZM34.3799 9.57932C35.0661 9.00269 36.1985 9.66417 36.1167 10.6018C36.1627 11.4568 35.1837 12.1016 34.5025 11.6614C33.7523 11.2964 33.6757 10.0473 34.3799 9.57932ZM22.3015 11.2817C23.4339 10.8414 24.7789 11.3683 25.4243 12.4609C26.2757 13.7966 25.8227 15.8308 24.5015 16.5973C23.1325 17.5038 21.1335 16.7354 20.6279 15.0808C20.0539 13.5997 20.8901 11.746 22.3015 11.2817ZM15.6575 11.4274C16.9125 10.7862 18.6015 11.3241 19.2077 12.7135C19.9211 14.0659 19.3695 15.949 18.0941 16.6473C16.8171 17.4321 15.0155 16.8371 14.3975 15.3852C13.7045 13.981 14.3199 12.0739 15.6575 11.4274ZM9.00492 13.8888C9.10032 13.0137 9.86312 12.4443 10.6327 12.3854C11.4619 12.4936 12.1243 13.1906 12.2145 14.0988C12.1601 14.9979 11.5181 15.8767 10.6377 15.8713C9.66912 15.9616 8.81992 14.9187 9.00492 13.8888ZM28.6545 12.5756C29.6489 11.9492 31.0297 12.8611 30.9855 14.0975C31.0537 15.4075 29.5255 16.3306 28.5353 15.5622C27.5067 14.9224 27.5869 13.1204 28.6545 12.5756ZM12.9537 17.1925C14.1167 16.8462 15.4465 17.4395 16.0169 18.5964C16.6417 19.7609 16.3863 21.3787 15.4159 22.2328C14.1713 23.4856 11.8759 22.9826 11.2135 21.2728C10.4523 19.7055 11.3769 17.6051 12.9537 17.1925ZM25.5555 17.186C26.6861 16.836 28.0143 17.3077 28.6221 18.4224C29.4257 19.6973 29.0421 21.5988 27.8457 22.4207C26.5925 23.375 24.6513 22.8739 23.9617 21.3817C23.1257 19.8382 23.9669 17.6568 25.5555 17.186ZM5.47352 18.6406C6.47812 18.2293 7.59172 19.4291 7.18472 20.507C6.93612 21.4891 5.65732 21.852 4.99672 21.128C4.22372 20.4481 4.50992 18.9354 5.47352 18.6406ZM32.7035 20.2049C32.6745 19.304 33.2835 18.5062 34.1371 18.4564C34.8251 18.5743 35.4941 19.175 35.4397 19.9856C35.5027 21.0562 34.3107 21.7839 33.4679 21.2808C33.0729 21.0635 32.8703 20.625 32.7035 20.2049ZM0.533917 19.1694C1.13832 18.8839 1.88592 19.4507 1.74792 20.1772C1.71552 20.9997 0.593517 21.3159 0.181317 20.6287C-0.182883 20.1514 0.0351167 19.4155 0.533917 19.1694ZM38.6425 19.1529C39.0681 18.825 39.7509 19.0607 39.9195 19.5988C40.2055 20.1865 39.6811 20.9917 39.0699 20.8923C38.2119 20.9769 37.9343 19.5618 38.6425 19.1529ZM16.2365 23.1012C17.8269 22.6536 19.5365 24.0888 19.5465 25.8611C19.6503 27.652 17.9665 29.2401 16.3385 28.8265C15.0801 28.6072 14.0927 27.2953 14.1335 25.9191C14.1301 24.6029 15.0479 23.3795 16.2365 23.1012ZM22.5349 23.0975C24.1491 22.6092 25.9097 24.0702 25.8841 25.8834C25.9693 27.6412 24.3381 29.1759 22.7441 28.8272C21.2441 28.6172 20.1373 26.8336 20.5561 25.2583C20.7675 24.2085 21.5779 23.3549 22.5349 23.0975ZM10.3911 24.1884C11.5081 23.9821 12.5553 25.3308 12.1023 26.4787C11.7719 27.7018 10.1271 28.0336 9.39992 27.0345C8.54692 26.075 9.18372 24.3209 10.3911 24.1884ZM28.8621 24.2423C29.8581 23.7908 31.0807 24.7233 31.0041 25.8932C31.0441 27.181 29.5347 28.0691 28.5607 27.3174C27.4575 26.6425 27.6583 24.6564 28.8621 24.2423ZM34.0249 29.8466C33.6349 29.0598 34.3433 28.017 35.1505 28.1626C35.5523 28.1553 35.8333 28.4979 36.0905 28.7854C36.1433 29.2516 36.2319 29.8079 35.8743 30.1672C35.3887 30.8323 34.2887 30.6425 34.0249 29.8466ZM4.43152 28.3817C5.18592 27.8382 6.27152 28.6488 6.10192 29.6033C6.01172 30.4475 5.02912 30.93 4.38192 30.451C3.68732 30.0161 3.71292 28.778 4.43152 28.3817ZM19.3355 30.1488C20.3231 29.6772 21.5813 30.6077 21.4877 31.7849C21.5609 33.0858 20.0047 33.9867 19.0391 33.2055C17.9665 32.5347 18.1453 30.5613 19.3355 30.1488ZM12.4325 31.8917C13.2737 31.4126 14.4025 32.2399 14.3259 33.2588C14.3515 34.0953 13.5971 34.8083 12.8343 34.6847C12.2025 34.67 11.7905 34.057 11.5879 33.4741C11.5983 32.8388 11.8399 32.1313 12.4325 31.8917ZM26.4153 31.9064C27.2803 31.3278 28.5097 32.1588 28.4279 33.2484C28.4501 34.3871 27.0607 35.1165 26.2553 34.3685C25.4755 33.7821 25.5707 32.3726 26.4153 31.9064ZM28.8469 38.4122C28.4621 37.7821 28.9151 37.023 29.5399 36.8793C30.0423 36.9899 30.5735 37.3988 30.4679 38.0291C30.3947 38.8821 29.2419 39.1438 28.8469 38.4122ZM9.54472 37.865C9.69792 37.3657 10.0691 36.8694 10.6123 36.9992C11.4041 37.0601 11.6391 38.3516 10.9461 38.7497C10.3229 39.2044 9.59992 38.5817 9.54472 37.865ZM18.8569 38.438C19.0085 37.6992 19.8921 37.3399 20.4745 37.7323C20.8593 37.9111 20.9717 38.3772 21.0705 38.7733C21.0177 38.9795 20.9705 39.186 20.9241 39.3923C20.6857 39.6981 20.3793 40.004 19.9825 39.993C19.2451 40.0865 18.5799 39.1843 18.8569 38.438Z" fill="#3CC8C8"/>
</g>
</g>
<defs>
<filter id="filter0_dd_0_1328" x="-23.0001" y="-12.0003" width="85.9999" height="86" filterUnits="userSpaceOnUse" color-interpolation-filters="sRGB">
<feFlood flood-opacity="0" result="BackgroundImageFix"/>
<feColorMatrix in="SourceAlpha" type="matrix" values="0 0 0 0 0 0 0 0 0 0 0 0 0 0 0 0 0 0 127 0" result="hardAlpha"/>
<feOffset dy="11"/>
<feGaussianBlur stdDeviation="11.5"/>
<feComposite in2="hardAlpha" operator="out"/>
<feColorMatrix type="matrix" values="0 0 0 0 0.235294 0 0 0 0 0.784314 0 0 0 0 0.784314 0 0 0 0.13 0"/>
<feBlend mode="normal" in2="BackgroundImageFix" result="effect1_dropShadow_0_1328"/>
<feColorMatrix in="SourceAlpha" type="matrix" values="0 0 0 0 0 0 0 0 0 0 0 0 0 0 0 0 0 0 127 0" result="hardAlpha"/>
<feOffset dy="4"/>
<feGaussianBlur stdDeviation="2"/>
<feComposite in2="hardAlpha" operator="out"/>
<feColorMatrix type="matrix" values="0 0 0 0 0 0 0 0 0 0 0 0 0 0 0 0 0 0 0.12 0"/>
<feBlend mode="normal" in2="effect1_dropShadow_0_1328" result="effect2_dropShadow_0_1328"/>
<feBlend mode="normal" in="SourceGraphic" in2="effect2_dropShadow_0_1328" result="shape"/>
</filter>
<clipPath id="clip0_0_1328">
<rect width="40" height="40" fill="white"/>
</clipPath>
</defs>
</svg>
