<svg width="102" height="154" viewBox="0 0 102 154" fill="none" xmlns="http://www.w3.org/2000/svg">
<path d="M47.7699 45.8716C57.8785 45.8716 66.0732 37.6769 66.0732 27.5682C66.0732 17.4596 57.8785 9.26489 47.7699 9.26489C37.6612 9.26489 29.4666 17.4596 29.4666 27.5682C29.4666 37.6769 37.6612 45.8716 47.7699 45.8716Z" fill="white"/>
<path d="M59.5 79.3333H79.3333V83.2999H59.5V79.3333Z" fill="white"/>
<path d="M42.4999 84.9999V93.4999C42.4999 94.2514 42.7985 94.9721 43.3298 95.5034C43.8612 96.0348 44.5818 96.3333 45.3333 96.3333H93.4999C94.2514 96.3333 94.9721 96.0348 95.5034 95.5034C96.0348 94.9721 96.3333 94.2514 96.3333 93.4999V65.1666C96.3333 64.4152 96.0348 63.6945 95.5034 63.1631C94.9721 62.6318 94.2514 62.3333 93.4999 62.3333H73.6666V58.1683C73.6666 57.4168 73.3681 56.6962 72.8368 56.1648C72.3054 55.6334 71.5847 55.3349 70.8333 55.3349C70.0818 55.3349 69.3612 55.6334 68.8298 56.1648C68.2985 56.6962 67.9999 57.4168 67.9999 58.1683V62.3333H62.3333V52.1899C57.5186 51.4036 52.6484 51.0056 47.7699 50.9999C37.0112 50.9542 26.373 53.2656 16.6033 57.7716C14.9953 58.5304 13.6388 59.7346 12.6946 61.2412C11.7505 62.7478 11.2583 64.4937 11.2766 66.2716V84.9999H42.4999ZM90.6666 90.6666H48.1666V67.9999H67.9999V69.1899C67.9999 69.9414 68.2985 70.6621 68.8298 71.1934C69.3612 71.7248 70.0818 72.0233 70.8333 72.0233C71.5847 72.0233 72.3054 71.7248 72.8368 71.1934C73.3681 70.6621 73.6666 69.9414 73.6666 69.1899V67.9999H90.6666V90.6666Z" fill="white"/>
<path d="M9.68701 153V129.16H14.039V139.56H24.183V129.16H28.567V153H24.183V143.4H14.039V153H9.68701Z" fill="#FDFDFD"/>
<path d="M32.9638 153V135.592H37.1558V153H32.9638ZM32.9638 133.64V129.16H37.1558V133.64H32.9638Z" fill="#FDFDFD"/>
<path d="M41.1863 153V135.592H45.1223V139.464L44.8023 138.888C45.2076 137.587 45.8369 136.68 46.6903 136.168C47.5649 135.656 48.6103 135.4 49.8263 135.4H50.8503V139.112H49.3463C48.1516 139.112 47.1916 139.485 46.4663 140.232C45.7409 140.957 45.3783 141.981 45.3783 143.304V153H41.1863Z" fill="#FDFDFD"/>
<path d="M61.571 153.384C59.779 153.384 58.211 152.979 56.867 152.168C55.523 151.357 54.4777 150.259 53.731 148.872C52.9843 147.485 52.611 145.949 52.611 144.264C52.611 142.515 52.9843 140.968 53.731 139.624C54.499 138.259 55.5337 137.181 56.835 136.392C58.1577 135.603 59.6297 135.208 61.251 135.208C62.6163 135.208 63.811 135.432 64.835 135.88C65.8803 136.328 66.7657 136.947 67.491 137.736C68.2163 138.525 68.771 139.432 69.155 140.456C69.539 141.459 69.731 142.547 69.731 143.72C69.731 144.019 69.7097 144.328 69.667 144.648C69.6457 144.968 69.5923 145.245 69.507 145.48H56.067V142.28H67.139L65.155 143.784C65.347 142.803 65.2937 141.928 64.995 141.16C64.7177 140.392 64.2483 139.784 63.587 139.336C62.947 138.888 62.1683 138.664 61.251 138.664C60.3763 138.664 59.5977 138.888 58.915 139.336C58.2323 139.763 57.7097 140.403 57.347 141.256C57.0057 142.088 56.8777 143.101 56.963 144.296C56.8777 145.363 57.0163 146.312 57.379 147.144C57.763 147.955 58.3177 148.584 59.043 149.032C59.7897 149.48 60.643 149.704 61.603 149.704C62.563 149.704 63.3737 149.501 64.035 149.096C64.7177 148.691 65.251 148.147 65.635 147.464L69.027 149.128C68.6857 149.96 68.1523 150.696 67.427 151.336C66.7017 151.976 65.8377 152.477 64.835 152.84C63.8537 153.203 62.7657 153.384 61.571 153.384Z" fill="#FDFDFD"/>
<path d="M81.1648 153.384C79.4794 153.384 77.9754 152.989 76.6528 152.2C75.3301 151.389 74.2848 150.291 73.5168 148.904C72.7488 147.517 72.3648 145.981 72.3648 144.296C72.3648 142.589 72.7488 141.053 73.5168 139.688C74.2848 138.323 75.3301 137.235 76.6528 136.424C77.9968 135.613 79.4901 135.208 81.1328 135.208C82.4554 135.208 83.6288 135.475 84.6528 136.008C85.6981 136.52 86.5194 137.245 87.1168 138.184L86.4768 139.048V128.776H90.6688V153H86.7008V149.64L87.1488 150.472C86.5514 151.411 85.7194 152.136 84.6528 152.648C83.5861 153.139 82.4234 153.384 81.1648 153.384ZM81.6128 149.544C82.5728 149.544 83.4154 149.32 84.1408 148.872C84.8661 148.424 85.4314 147.805 85.8368 147.016C86.2634 146.227 86.4768 145.32 86.4768 144.296C86.4768 143.293 86.2634 142.397 85.8368 141.608C85.4314 140.797 84.8661 140.168 84.1408 139.72C83.4154 139.272 82.5728 139.048 81.6128 139.048C80.6741 139.048 79.8314 139.283 79.0848 139.752C78.3381 140.2 77.7514 140.819 77.3248 141.608C76.9194 142.376 76.7168 143.272 76.7168 144.296C76.7168 145.32 76.9194 146.227 77.3248 147.016C77.7514 147.805 78.3381 148.424 79.0848 148.872C79.8314 149.32 80.6741 149.544 81.6128 149.544Z" fill="#FDFDFD"/>
</svg>
