<svg width="15" height="10" viewBox="0 0 15 10" fill="none" xmlns="http://www.w3.org/2000/svg">
<path d="M14.9997 1.13649C15.0046 0.91495 14.9404 0.697396 14.8158 0.514074C14.6912 0.330752 14.5125 0.190771 14.3046 0.113593C14.0967 0.0364144 13.87 0.0258738 13.6559 0.0834361C13.4417 0.140998 13.251 0.263803 13.1099 0.434777L7.51725 6.95841L1.92658 0.434777C1.83959 0.316506 1.72916 0.217456 1.60209 0.143832C1.47502 0.0702072 1.33407 0.0235938 1.18814 0.00691008C1.04221 -0.00977367 0.894433 0.00383209 0.754007 0.0468752C0.613583 0.0899182 0.483522 0.161471 0.37205 0.257053C0.26058 0.352636 0.170158 0.470188 0.106256 0.602349C0.0423532 0.73451 0.00646223 0.878433 0.000799137 1.0251C-0.00486396 1.17177 0.0197558 1.31803 0.0732776 1.45472C0.126799 1.59141 0.207985 1.71558 0.311755 1.81946L6.7067 9.28843C6.80687 9.40572 6.93119 9.49991 7.07131 9.56449C7.21142 9.62907 7.36393 9.66252 7.51824 9.66252C7.67254 9.66252 7.82505 9.62907 7.96517 9.56449C8.10528 9.49991 8.22973 9.40572 8.3299 9.28843L14.731 1.81946C14.8987 1.63079 14.994 1.38878 15 1.13649H14.9997Z" fill="#171725"/>
</svg>
