<svg width="32" height="32" viewBox="0 0 32 32" fill="none" xmlns="http://www.w3.org/2000/svg">
<path fill-rule="evenodd" clip-rule="evenodd" d="M28.3638 19.6469C28.9145 19.6883 29.3265 20.1696 29.2851 20.7203L29.0318 24.0656C28.8225 26.8256 26.4931 28.9869 23.7265 28.9869H8.2598C5.49314 28.9869 3.1638 26.8256 2.95447 24.0656L2.70114 20.7203C2.6598 20.1696 3.07314 19.6883 3.6238 19.6469C4.17714 19.6269 4.65447 20.0176 4.69714 20.5696L4.94914 23.9136C5.0798 25.6363 6.53314 26.9869 8.2598 26.9869H23.7265C25.4531 26.9869 26.9078 25.6363 27.0371 23.9136L27.2905 20.5696C27.3331 20.0176 27.8225 19.6256 28.3638 19.6469ZM17.7134 2.66681C19.7173 2.66681 21.3775 4.1685 21.6275 6.10551L24.2535 6.10668C27.0482 6.10668 29.3202 8.38534 29.3202 11.188V15.7733C29.3202 16.1293 29.1309 16.4573 28.8255 16.636C25.5345 18.5633 21.3654 19.6875 16.9929 19.8374L16.9934 22.2356C16.9934 22.7876 16.5454 23.2356 15.9934 23.2356C15.4414 23.2356 14.9934 22.7876 14.9934 22.2356L14.9925 19.8378C10.6244 19.6892 6.45508 18.5648 3.16154 16.636C2.85487 16.4573 2.66687 16.1293 2.66687 15.7733V11.1747C2.66687 8.38001 4.94554 6.10668 7.74687 6.10668L10.3593 6.10551C10.6093 4.1685 12.2695 2.66681 14.2734 2.66681H17.7134ZM24.2535 8.10668H7.74687C6.0482 8.10668 4.66687 9.48268 4.66687 11.1747V15.1907C7.83182 16.9104 11.8218 17.8529 15.9749 17.8547L15.9934 17.8529L16.0082 17.8535L16.6431 17.8469C20.5708 17.7533 24.3177 16.8214 27.3202 15.1907V11.188C27.3202 9.48801 25.9455 8.10668 24.2535 8.10668ZM17.7134 4.66681H14.2734C13.3756 4.66681 12.6177 5.27784 12.3939 6.10585H19.5929C19.3691 5.27784 18.6112 4.66681 17.7134 4.66681Z" fill="#0D0140"/>
</svg>
