<svg width="32" height="32" viewBox="0 0 32 32" fill="none" xmlns="http://www.w3.org/2000/svg">
<path d="M15.6074 0.0946941C16.3048 -0.298899 17.1562 0.614175 16.7856 1.36829C16.5704 1.98301 15.7544 2.14647 15.3376 1.6779C14.896 1.2282 15.04 0.339369 15.6074 0.0946941ZM8.10579 0.969846C8.52947 0.781101 9.06579 1.20119 9.02259 1.70093C9.06755 2.24344 8.45459 2.64275 8.02275 2.38491C7.45059 2.14508 7.51603 1.13989 8.10579 0.969846ZM23.47 2.40015C22.8079 2.31357 22.7031 1.18699 23.3405 0.960149C23.8349 0.699196 24.2885 1.18855 24.3608 1.69573C24.2572 2.12881 23.9221 2.52534 23.47 2.40015ZM9.81267 4.42526C10.521 3.94041 11.5317 4.66249 11.4228 5.55288C11.386 6.45192 10.2826 6.97279 9.66003 6.365C9.05811 5.88759 9.14931 4.79236 9.81267 4.42526ZM20.6256 4.93972C20.9416 4.05833 22.2221 4.03166 22.5818 4.88967C22.9373 5.55738 22.5 6.38422 21.8666 6.61123C21.0276 6.78075 20.2306 5.79911 20.6256 4.93972ZM14.704 6.56119C14.6972 5.80361 15.3348 5.23911 16 5.18751C16.4413 5.28327 16.9223 5.48673 17.1116 5.96863C17.4644 6.6334 17.1511 7.54872 16.5136 7.85383C16.2221 8.03062 15.8775 7.9643 15.56 7.9437C15.0748 7.68586 14.6661 7.18023 14.704 6.56119ZM3.54803 7.66508C4.19507 7.23461 5.06803 8.02024 4.82307 8.78093C4.68819 9.43894 3.87091 9.70664 3.40371 9.28656C2.90499 8.89296 2.98403 7.94664 3.54803 7.66508ZM27.504 7.6637C28.053 7.2024 28.9589 7.73158 28.8935 8.48171C28.9303 9.16569 28.1471 9.68153 27.6021 9.32933C27.002 9.03738 26.9407 8.03807 27.504 7.6637ZM17.8413 9.0256C18.7472 8.6734 19.8232 9.09487 20.3396 9.96898C21.0207 11.0376 20.6583 12.6649 19.6013 13.2781C18.5061 14.0033 16.9069 13.3885 16.5024 12.0649C16.0432 10.88 16.7122 9.39703 17.8413 9.0256ZM12.5261 9.14214C13.5301 8.62924 14.8813 9.05954 15.3663 10.1711C15.937 11.253 15.4957 12.7595 14.4754 13.3181C13.4538 13.9459 12.0125 13.4699 11.5181 12.3084C10.9637 11.1851 11.456 9.65937 12.5261 9.14214ZM7.20403 11.1113C7.28035 10.4112 7.89059 9.95565 8.50627 9.90855C9.16963 9.99513 9.69955 10.5527 9.77171 11.2793C9.72819 11.9986 9.21459 12.7016 8.51027 12.6973C7.73539 12.7695 7.05603 11.9352 7.20403 11.1113ZM22.9237 10.0608C23.7192 9.55963 24.8239 10.2892 24.7885 11.2782C24.8431 12.3262 23.6205 13.0647 22.8284 12.45C22.0055 11.9382 22.0696 10.4966 22.9237 10.0608ZM10.3631 13.7543C11.2935 13.4772 12.3573 13.9518 12.8136 14.8774C13.3135 15.809 13.1092 17.1032 12.3328 17.7865C11.3372 18.7887 9.50083 18.3863 8.97091 17.0185C8.36195 15.7647 9.10163 14.0843 10.3631 13.7543ZM20.4445 13.7491C21.349 13.4691 22.4116 13.8464 22.8978 14.7382C23.5407 15.7581 23.2338 17.2793 22.2767 17.9368C21.2741 18.7002 19.7212 18.2994 19.1695 17.1056C18.5007 15.8708 19.1736 14.1257 20.4445 13.7491ZM4.37891 14.9127C5.18259 14.5837 6.07347 15.5435 5.74787 16.4059C5.54899 17.1915 4.52595 17.4819 3.99747 16.9027C3.37907 16.3588 3.60803 15.1485 4.37891 14.9127ZM26.1629 16.1641C26.1397 15.4434 26.6269 14.8052 27.3098 14.7653C27.8602 14.8597 28.3954 15.3402 28.3519 15.9887C28.4023 16.8452 27.4487 17.4273 26.7744 17.0249C26.4584 16.8511 26.2964 16.5002 26.1629 16.1641ZM0.427231 15.3357C0.910751 15.1073 1.50883 15.5608 1.39843 16.142C1.37251 16.8 0.474911 17.053 0.145151 16.5032C-0.146209 16.1214 0.028191 15.5326 0.427231 15.3357ZM30.9141 15.3226C31.2546 15.0602 31.8008 15.2488 31.9357 15.6793C32.1645 16.1494 31.745 16.7936 31.256 16.7141C30.5696 16.7818 30.3476 15.6497 30.9141 15.3226ZM12.9893 18.4812C14.2616 18.1231 15.6293 19.2713 15.6373 20.6892C15.7204 22.1219 14.3733 23.3924 13.0709 23.0614C12.0642 22.886 11.2743 21.8365 11.3069 20.7356C11.3042 19.6826 12.0384 18.7039 12.9893 18.4812ZM18.028 18.4782C19.3194 18.0876 20.7279 19.2564 20.7074 20.707C20.7756 22.1132 19.4706 23.3409 18.1954 23.062C16.9954 22.894 16.11 21.4672 16.445 20.2069C16.6141 19.3671 17.2624 18.6841 18.028 18.4782ZM8.31299 19.351C9.20659 19.1859 10.0444 20.2649 9.68195 21.1832C9.41763 22.1617 8.10179 22.4272 7.52003 21.6279C6.83763 20.8602 7.34707 19.4569 8.31299 19.351ZM23.0898 19.3941C23.8866 19.0329 24.8647 19.7788 24.8034 20.7148C24.8354 21.7451 23.6279 22.4556 22.8487 21.8542C21.9661 21.3143 22.1268 19.7253 23.0898 19.3941ZM27.22 23.8776C26.908 23.2481 27.4748 22.4138 28.1205 22.5304C28.442 22.5245 28.6668 22.7986 28.8725 23.0285C28.9148 23.4015 28.9856 23.8466 28.6996 24.134C28.3111 24.6661 27.4311 24.5143 27.22 23.8776ZM3.54531 22.7056C4.14883 22.2708 5.01731 22.9193 4.88163 23.6829C4.80947 24.3582 4.02339 24.7442 3.50563 24.361C2.94995 24.0131 2.97043 23.0227 3.54531 22.7056ZM15.4685 24.1193C16.2586 23.742 17.2652 24.4864 17.1903 25.4282C17.2488 26.4689 16.0039 27.1896 15.2314 26.5646C14.3733 26.028 14.5164 24.4493 15.4685 24.1193ZM9.94611 25.5136C10.6191 25.1304 11.5221 25.7922 11.4608 26.6072C11.4813 27.2765 10.8778 27.8469 10.2676 27.748C9.76211 27.7362 9.43251 27.2459 9.27043 26.7795C9.27875 26.2713 9.47203 25.7053 9.94611 25.5136ZM21.1324 25.5253C21.8244 25.0625 22.8079 25.7272 22.7424 26.5989C22.7602 27.5099 21.6487 28.0935 21.0044 27.495C20.3805 27.0259 20.4567 25.8983 21.1324 25.5253ZM23.0776 30.73C22.7698 30.2259 23.1322 29.6187 23.632 29.5037C24.034 29.5922 24.4589 29.9193 24.3744 30.4235C24.3159 31.1059 23.3936 31.3153 23.0776 30.73ZM7.63587 30.2923C7.75843 29.8928 8.05539 29.4957 8.48995 29.5996C9.12339 29.6483 9.31139 30.6815 8.75699 31C8.25843 31.3638 7.68003 30.8656 7.63587 30.2923ZM15.0856 30.7506C15.2069 30.1596 15.9138 29.8722 16.3797 30.1861C16.6876 30.3292 16.7775 30.702 16.8565 31.0188C16.8143 31.1839 16.7765 31.3491 16.7394 31.5141C16.5487 31.7588 16.3036 32.0034 15.9861 31.9946C15.3962 32.0694 14.864 31.3477 15.0856 30.7506Z" fill="#3CC8C8"/>
</svg>
