<svg width="24" height="24" viewBox="0 0 24 24" fill="none" xmlns="http://www.w3.org/2000/svg">
<path d="M9.86002 18C9.72291 17.9996 9.58735 17.971 9.46177 17.9159C9.33618 17.8609 9.22326 17.7806 9.13002 17.68L4.27002 12.51C4.08835 12.3164 3.99103 12.0586 3.99947 11.7932C4.00791 11.5278 4.12142 11.2767 4.31502 11.095C4.50863 10.9134 4.76648 10.816 5.03184 10.8245C5.29721 10.8329 5.54835 10.9464 5.73002 11.14L9.85003 15.53L18.26 6.33003C18.3454 6.22375 18.4515 6.13605 18.572 6.0723C18.6925 6.00854 18.8247 5.9701 18.9606 5.95931C19.0965 5.94853 19.2331 5.96564 19.3622 6.00958C19.4912 6.05353 19.6099 6.12339 19.7109 6.21488C19.8119 6.30636 19.8932 6.41754 19.9497 6.54158C20.0062 6.66561 20.0368 6.79989 20.0395 6.93617C20.0423 7.07245 20.0171 7.20784 19.9656 7.33404C19.9141 7.46024 19.8373 7.57458 19.74 7.67003L10.6 17.67C10.5077 17.7724 10.3951 17.8545 10.2695 17.9113C10.1439 17.9681 10.0079 17.9983 9.87002 18H9.86002Z" fill="#00C566"/>
</svg>
