<svg width="27" height="18" viewBox="0 0 27 18" fill="none" xmlns="http://www.w3.org/2000/svg">
<path d="M0.5 0V18" stroke="#E3E7EC"/>
<path fill-rule="evenodd" clip-rule="evenodd" d="M21.5409 10.281C22.8279 10.281 23.8749 11.3227 23.8749 12.603C23.8749 13.8832 22.8279 14.925 21.5409 14.925C20.2532 14.925 19.2054 13.8832 19.2054 12.603C19.2054 11.3227 20.2532 10.281 21.5409 10.281ZM21.5409 11.406C20.8734 11.406 20.3304 11.943 20.3304 12.603C20.3304 13.2637 20.8734 13.8 21.5409 13.8C22.2077 13.8 22.7499 13.2637 22.7499 12.603C22.7499 11.943 22.2077 11.406 21.5409 11.406ZM16.0602 12.0696C16.3707 12.0696 16.6227 12.3216 16.6227 12.6321C16.6227 12.9426 16.3707 13.1946 16.0602 13.1946H11.3345C11.024 13.1946 10.772 12.9426 10.772 12.6321C10.772 12.3216 11.024 12.0696 11.3345 12.0696H16.0602ZM13.0847 3C14.3725 3 15.4195 4.0425 15.4195 5.32275C15.4195 6.603 14.3725 7.644 13.0847 7.644C11.7977 7.644 10.75 6.603 10.75 5.32275C10.75 4.0425 11.7977 3 13.0847 3ZM13.0847 4.125C12.418 4.125 11.875 4.662 11.875 5.32275C11.875 5.98275 12.418 6.519 13.0847 6.519C13.7522 6.519 14.2945 5.98275 14.2945 5.32275C14.2945 4.662 13.7522 4.125 13.0847 4.125ZM22.8933 4.8003C23.2038 4.8003 23.4558 5.0523 23.4558 5.3628C23.4558 5.6733 23.2038 5.9253 22.8933 5.9253H18.1683C17.8578 5.9253 17.6058 5.6733 17.6058 5.3628C17.6058 5.0523 17.8578 4.8003 18.1683 4.8003H22.8933Z" fill="#0D0140"/>
</svg>
