<svg width="24" height="24" viewBox="0 0 24 24" fill="none" xmlns="http://www.w3.org/2000/svg">
<g clip-path="url(#clip0_0_2840)">
<path d="M20.5201 15.2099L18.7201 13.3999V8.93989C18.744 7.28372 18.1679 5.6748 17.0982 4.41023C16.0285 3.14566 14.5373 2.31083 12.9001 2.05989C11.9499 1.93476 10.9839 2.01371 10.0667 2.29147C9.14942 2.56923 8.30194 3.03942 7.5808 3.67066C6.85965 4.30189 6.28142 5.07967 5.88468 5.95209C5.48794 6.82451 5.28182 7.7715 5.28007 8.72989V13.3999L3.48007 15.2099C3.25398 15.4398 3.10066 15.7312 3.03927 16.0477C2.97789 16.3642 3.01117 16.6918 3.13495 16.9895C3.25873 17.2872 3.46752 17.5419 3.73522 17.7216C4.00292 17.9013 4.31766 17.9981 4.64007 17.9999H8.00007V18.3399C8.04678 19.3551 8.49403 20.3104 9.2438 20.9964C9.99357 21.6825 10.9847 22.0433 12.0001 21.9999C13.0154 22.0433 14.0066 21.6825 14.7563 20.9964C15.5061 20.3104 15.9534 19.3551 16.0001 18.3399V17.9999H19.3601C19.6825 17.9981 19.9972 17.9013 20.2649 17.7216C20.5326 17.5419 20.7414 17.2872 20.8652 16.9895C20.989 16.6918 21.0223 16.3642 20.9609 16.0477C20.8995 15.7312 20.7462 15.4398 20.5201 15.2099ZM14.0001 18.3399C13.9446 18.8209 13.7057 19.262 13.3331 19.5712C12.9606 19.8804 12.4831 20.034 12.0001 19.9999C11.5171 20.034 11.0396 19.8804 10.667 19.5712C10.2944 19.262 10.0555 18.8209 10.0001 18.3399V17.9999H14.0001V18.3399ZM5.51007 15.9999L6.69007 14.8199C6.87724 14.6338 7.02574 14.4126 7.127 14.1689C7.22826 13.9251 7.28028 13.6638 7.28007 13.3999V8.72989C7.28062 8.05529 7.42546 7.38862 7.70487 6.7746C7.98428 6.16059 8.3918 5.61345 8.90007 5.16989C9.40149 4.71558 9.99565 4.37564 10.6414 4.17363C11.2872 3.97161 11.9691 3.91233 12.6401 3.99989C13.7966 4.18767 14.8463 4.78691 15.596 5.68727C16.3457 6.58764 16.7449 7.72853 16.7201 8.89989V13.3999C16.7186 13.6631 16.769 13.924 16.8685 14.1677C16.9681 14.4114 17.1147 14.633 17.3001 14.8199L18.4901 15.9999H5.51007Z" fill="#0D0140"/>
</g>
<defs>
<clipPath id="clip0_0_2840">
<rect width="24" height="24" fill="white"/>
</clipPath>
</defs>
</svg>
