<svg width="24" height="24" viewBox="0 0 24 24" fill="none" xmlns="http://www.w3.org/2000/svg">
<g clip-path="url(#clip0_0_1827)">
<path d="M16 12C16.0005 12.2337 15.9191 12.4601 15.77 12.64L10.77 18.64C10.6003 18.8442 10.3564 18.9727 10.092 18.9971C9.82753 19.0214 9.56425 18.9398 9.36003 18.77C9.15581 18.6003 9.02739 18.3564 9.00301 18.092C8.97863 17.8275 9.06029 17.5642 9.23003 17.36L13.71 12L9.39003 6.64003C9.30697 6.53774 9.24493 6.42004 9.2075 6.29371C9.17007 6.16737 9.15798 6.03488 9.17192 5.90385C9.18586 5.77282 9.22555 5.64584 9.28873 5.5302C9.3519 5.41456 9.4373 5.31255 9.54003 5.23003C9.64285 5.13845 9.76348 5.06909 9.89435 5.0263C10.0252 4.98351 10.1635 4.9682 10.3006 4.98135C10.4377 4.99449 10.5705 5.03579 10.6909 5.10268C10.8112 5.16956 10.9165 5.26058 11 5.37003L15.83 11.37C15.9555 11.5551 16.0154 11.7769 16 12Z" fill="#0D0140"/>
</g>
<defs>
<clipPath id="clip0_0_1827">
<rect width="24" height="24" fill="white" transform="matrix(0 -1 1 0 0 24)"/>
</clipPath>
</defs>
</svg>
