<svg width="24" height="24" viewBox="0 0 24 24" fill="none" xmlns="http://www.w3.org/2000/svg">
<path d="M8.53429 4.96997C8.32648 4.9654 8.12242 5.02564 7.95046 5.1424C7.77851 5.25917 7.6472 5.4267 7.57481 5.62154C7.50242 5.81638 7.49253 6.0289 7.54652 6.22962C7.60052 6.43034 7.71571 6.60917 7.87608 6.74139L13.9952 11.9836L7.87608 17.2239C7.76514 17.3054 7.67224 17.409 7.60318 17.5281C7.53412 17.6472 7.49039 17.7793 7.47474 17.9161C7.45909 18.0529 7.47186 18.1914 7.51223 18.323C7.5526 18.4546 7.61972 18.5765 7.70938 18.681C7.79903 18.7855 7.9093 18.8703 8.03326 18.9302C8.15723 18.9901 8.29223 19.0237 8.42981 19.029C8.56738 19.0343 8.70457 19.0112 8.83278 18.9611C8.961 18.9109 9.07747 18.8348 9.17491 18.7375L16.1808 12.7433C16.2908 12.6494 16.3791 12.5329 16.4397 12.4016C16.5003 12.2702 16.5317 12.1273 16.5317 11.9826C16.5317 11.838 16.5003 11.6951 16.4397 11.5637C16.3791 11.4324 16.2908 11.3157 16.1808 11.2219L9.17491 5.22188C8.99793 5.06468 8.77093 4.97531 8.53429 4.96974V4.96997Z" fill="#0D0140"/>
</svg>
