<svg width="24" height="24" viewBox="0 0 24 24" fill="none" xmlns="http://www.w3.org/2000/svg">
<path fill-rule="evenodd" clip-rule="evenodd" d="M12.4836 2C13.6166 2 19.5616 4.041 20.3486 4.828C21.0046 5.484 20.9946 6.014 20.9486 8.554C20.9306 9.572 20.9056 10.959 20.9056 12.879C20.9056 19.761 13.0356 22.223 12.7006 22.324C12.6296 22.346 12.5566 22.356 12.4836 22.356C12.4106 22.356 12.3376 22.346 12.2666 22.324C11.9316 22.223 4.06162 19.761 4.06162 12.879C4.06162 10.962 4.03662 9.575 4.01862 8.557C4.01041 8.10289 4.00334 7.71298 4.00102 7.37507L4.00073 6.99377C4.00931 5.74113 4.12687 5.32 4.61962 4.828C5.40462 4.041 11.3496 2 12.4836 2ZM12.4836 3.5C11.6356 3.5 6.28562 5.384 5.66862 5.899C5.48662 6.082 5.47962 6.4 5.51862 8.529C5.53662 9.555 5.56162 10.949 5.56162 12.879C5.56162 18.08 11.2836 20.389 12.4826 20.814C13.6806 20.387 19.4056 18.065 19.4056 12.879C19.4056 10.947 19.4306 9.552 19.4496 8.526C19.4876 6.399 19.4806 6.081 19.2876 5.889C18.6826 5.384 13.3316 3.5 12.4836 3.5ZM16.2051 9.3395C16.4981 9.6325 16.4981 10.1075 16.2051 10.4005L12.3071 14.2995C12.1951 14.4123 12.0505 14.4854 11.8952 14.5102L11.7771 14.5195C11.5781 14.5195 11.3871 14.4405 11.2461 14.2995L9.35412 12.4055C9.06212 12.1125 9.06212 11.6365 9.35512 11.3445C9.64712 11.0515 10.1231 11.0515 10.4161 11.3445L11.7771 12.7075L15.1451 9.3395C15.4381 9.0465 15.9121 9.0465 16.2051 9.3395Z" fill="#0D0140"/>
</svg>
