<svg width="24" height="24" viewBox="0 0 24 24" fill="none" xmlns="http://www.w3.org/2000/svg">
<path fill-rule="evenodd" clip-rule="evenodd" d="M11.7484 1.00024C14.6214 1.00024 17.3214 2.11724 19.3494 4.14624C23.5414 8.33824 23.5414 15.1582 19.3494 19.3502C17.2944 21.4062 14.5274 22.4942 11.7244 22.4942C10.1964 22.4942 8.65844 22.1712 7.21944 21.5052C6.79544 21.3352 6.39844 21.1752 6.11344 21.1752C5.78544 21.1772 5.34444 21.3292 4.91844 21.4762C4.04444 21.7762 2.95644 22.1502 2.15144 21.3482C1.34944 20.5452 1.71944 19.4602 2.01744 18.5872C2.16444 18.1572 2.31544 17.7132 2.31544 17.3772C2.31544 17.1012 2.18244 16.7492 1.97844 16.2422C0.105437 12.1972 0.971437 7.32225 4.14844 4.14724C6.17644 2.11824 8.87544 1.00024 11.7484 1.00024ZM11.7494 2.50024C9.27644 2.50024 6.95344 3.46224 5.20844 5.20824C2.47444 7.94025 1.73044 12.1352 3.35544 15.6482C3.58944 16.2272 3.81544 16.7912 3.81544 17.3772C3.81544 17.9622 3.61444 18.5512 3.43744 19.0712C3.29144 19.4992 3.07044 20.1452 3.21244 20.2872C3.35144 20.4312 4.00144 20.2042 4.43044 20.0572C4.94544 19.8812 5.52944 19.6792 6.10844 19.6752C6.68844 19.6752 7.23544 19.8952 7.81444 20.1282C11.3614 21.7682 15.5564 21.0222 18.2894 18.2902C21.8954 14.6822 21.8954 8.81325 18.2894 5.20724C16.5434 3.46124 14.2214 2.50024 11.7494 2.50024ZM15.6963 11.1629C16.2483 11.1629 16.6963 11.6099 16.6963 12.1629C16.6963 12.7159 16.2483 13.1629 15.6963 13.1629C15.1443 13.1629 14.6923 12.7159 14.6923 12.1629C14.6923 11.6099 15.1353 11.1629 15.6873 11.1629H15.6963ZM11.6875 11.1629C12.2395 11.1629 12.6875 11.6099 12.6875 12.1629C12.6875 12.7159 12.2395 13.1629 11.6875 13.1629C11.1355 13.1629 10.6835 12.7159 10.6835 12.1629C10.6835 11.6099 11.1255 11.1629 11.6785 11.1629H11.6875ZM7.67834 11.1629C8.23034 11.1629 8.67834 11.6099 8.67834 12.1629C8.67834 12.7159 8.23034 13.1629 7.67834 13.1629C7.12634 13.1629 6.67434 12.7159 6.67434 12.1629C6.67434 11.6099 7.11734 11.1629 7.66934 11.1629H7.67834Z" fill="#9CA4AB"/>
</svg>
