<svg width="32" height="32" viewBox="0 0 32 32" fill="none" xmlns="http://www.w3.org/2000/svg">
<path d="M5.69989 28.9172C5.59943 28.853 5.56803 28.7245 5.6371 28.6253C5.70617 28.5319 5.8443 28.5027 5.95104 28.5669C6.01382 28.6078 6.08289 28.6486 6.15823 28.6895C6.67309 28.9814 7.15655 29.1274 7.5521 29.1274C7.90999 29.1274 8.20509 28.9989 8.38717 28.7479C8.39973 28.7304 8.41229 28.7187 8.41229 28.707C8.46252 28.6253 8.50647 28.5436 8.53158 28.4618C8.58181 28.2925 8.57553 28.1174 8.50019 27.9597C8.42484 27.7904 8.26788 27.6328 8.02929 27.4985C7.87232 27.4109 7.6714 27.3292 7.43281 27.265C6.82378 27.1073 6.37799 26.8797 6.13312 26.5819C5.86941 26.2491 5.85058 25.8521 6.13312 25.3675C6.32148 25.0464 6.70448 24.8479 7.19422 24.8129C7.61489 24.7837 8.12347 24.8771 8.63832 25.1223C8.75134 25.1749 8.79529 25.3033 8.73878 25.4026C8.68227 25.5077 8.54414 25.5485 8.4374 25.496C7.99789 25.2858 7.57722 25.2099 7.23189 25.2333C6.89912 25.2566 6.64169 25.3792 6.53495 25.5719C6.34659 25.893 6.34659 26.144 6.50356 26.3367C6.67936 26.5585 7.04981 26.7337 7.55838 26.868C7.83465 26.938 8.06696 27.0373 8.2616 27.1482C8.58181 27.3292 8.79529 27.5569 8.9083 27.8021C9.0276 28.0531 9.04016 28.3275 8.95853 28.5844C8.92086 28.7012 8.86435 28.8238 8.78901 28.9347C8.77017 28.9581 8.75762 28.9814 8.75134 28.9931C8.48135 29.3668 8.0544 29.5536 7.53955 29.5536C7.06237 29.5536 6.50356 29.3901 5.91336 29.0573C5.85685 29.0106 5.78151 28.9697 5.69989 28.9172Z" fill="#EA501F"/>
<path d="M9.71191 25.0114C9.71191 24.9005 9.81237 24.8129 9.93795 24.8129C10.0635 24.8129 10.164 24.9005 10.164 25.0114V29.3493C10.164 29.4602 10.0635 29.5478 9.93795 29.5478C9.81237 29.5478 9.71191 29.4602 9.71191 29.3493V25.0114Z" fill="#EA501F"/>
<path d="M10.1766 27.7145C10.095 27.8021 9.95686 27.8196 9.8564 27.7437C9.76222 27.6678 9.74338 27.5394 9.825 27.446C10.1703 27.0548 10.5596 26.8154 10.9426 26.7103C11.2189 26.6344 11.4889 26.6286 11.7212 26.687C11.966 26.7512 12.1795 26.8796 12.3302 27.0781C12.4746 27.265 12.5562 27.5043 12.5562 27.7904V29.3434C12.5562 29.4602 12.4558 29.5536 12.3302 29.5536C12.2046 29.5536 12.1042 29.4602 12.1042 29.3434V27.7904C12.1042 27.5919 12.0539 27.4343 11.966 27.3175C11.8781 27.2066 11.7588 27.1307 11.6082 27.0898C11.4512 27.049 11.2691 27.0548 11.0745 27.1073C10.7731 27.1949 10.4592 27.3934 10.1766 27.7145Z" fill="#EA501F"/>
<path d="M14.7726 26.6461C15.2059 26.6461 15.5951 26.8096 15.8777 27.0723C16.1602 27.335 16.336 27.697 16.336 28.0998C16.336 28.5027 16.1602 28.8647 15.8777 29.1274C15.5951 29.3901 15.2059 29.5536 14.7726 29.5536C14.3394 29.5536 13.9501 29.3901 13.6676 29.1274C13.385 28.8647 13.2092 28.5027 13.2092 28.0998C13.2092 27.697 13.385 27.335 13.6676 27.0723C13.9501 26.8096 14.3457 26.6461 14.7726 26.6461ZM15.5637 27.3642C15.3628 27.1774 15.0803 27.0606 14.7726 27.0606C14.465 27.0606 14.1887 27.1774 13.9815 27.3642C13.7806 27.551 13.655 27.8138 13.655 28.0998C13.655 28.3859 13.7806 28.6486 13.9815 28.8355C14.1824 29.0223 14.465 29.1391 14.7726 29.1391C15.0803 29.1391 15.3565 29.0223 15.5637 28.8355C15.7647 28.6486 15.8902 28.3859 15.8902 28.0998C15.8902 27.8138 15.7647 27.551 15.5637 27.3642Z" fill="#EA501F"/>
<path d="M16.9763 26.8563C16.9763 26.7395 17.0768 26.6461 17.2024 26.6461C17.3279 26.6461 17.4284 26.7395 17.4284 26.8563V27.119C17.4472 27.1015 17.4598 27.084 17.4786 27.0723C17.7612 26.8096 18.1504 26.6461 18.5837 26.6461C19.0169 26.6461 19.4062 26.8096 19.6887 27.0723C19.9713 27.335 20.1471 27.697 20.1471 28.0998C20.1471 28.5027 19.9713 28.8647 19.6887 29.1274C19.4062 29.3901 19.0169 29.5536 18.5837 29.5536C18.1504 29.5536 17.7612 29.3901 17.4786 29.1274C17.4598 29.1099 17.4472 29.0924 17.4284 29.0807V30.9898C17.4284 31.1066 17.3279 31.2 17.2024 31.2C17.0768 31.2 16.9763 31.1066 16.9763 30.9898V26.8563ZM19.3685 27.3642C19.1676 27.1774 18.885 27.0606 18.5774 27.0606C18.2697 27.0606 17.9935 27.1774 17.7863 27.3642C17.5854 27.551 17.4598 27.8138 17.4598 28.0998C17.4598 28.3859 17.5854 28.6486 17.7863 28.8355C17.9872 29.0223 18.2697 29.1391 18.5774 29.1391C18.885 29.1391 19.1613 29.0223 19.3685 28.8355C19.5694 28.6486 19.695 28.3859 19.695 28.0998C19.695 27.8138 19.5694 27.551 19.3685 27.3642Z" fill="#EA501F"/>
<path d="M22.2694 26.6461C22.6524 26.6461 23.004 26.7862 23.2614 27.0314C23.4749 27.2299 23.5628 27.4284 23.6381 27.6386C23.8328 28.2283 23.4623 28.2049 23.3493 28.2049H21.2711C21.2899 28.3451 21.3276 28.4735 21.3715 28.5903C21.4531 28.7712 21.5724 28.9055 21.7231 28.9989C21.8801 29.0924 22.081 29.1391 22.3133 29.1391C22.5645 29.1391 22.8596 29.0748 23.1861 28.9464C23.2991 28.8997 23.4309 28.9522 23.4812 29.0573C23.5314 29.1624 23.4749 29.285 23.3619 29.3317C22.9852 29.4777 22.6335 29.5477 22.3196 29.5536C21.9994 29.5594 21.7169 29.4894 21.4845 29.3492C21.2522 29.2091 21.0513 29.0165 20.9571 28.7479C20.7437 28.1582 20.7374 27.5744 21.2773 27.0314C21.5285 26.7804 21.8864 26.6461 22.2694 26.6461ZM22.9475 27.3292C22.7654 27.1657 22.5268 27.0665 22.2694 27.0665C22.012 27.0665 21.7734 27.1657 21.5913 27.3292C21.4594 27.4518 21.3527 27.6036 21.2962 27.7787H23.2489C23.1798 27.6036 23.0793 27.4518 22.9475 27.3292Z" fill="#EA501F"/>
<path d="M25.6976 26.6461C26.0806 26.6461 26.4322 26.7862 26.6896 27.0314C26.9031 27.2299 26.991 27.4284 27.0664 27.6386C27.261 28.2283 26.8906 28.2049 26.7775 28.2049H24.6993C24.7181 28.3451 24.7558 28.4735 24.7997 28.5903C24.8814 28.7712 25.0007 28.9055 25.1514 28.9989C25.3083 29.0924 25.5092 29.1391 25.7416 29.1391C25.9927 29.1391 26.2878 29.0748 26.6143 28.9464C26.7273 28.8997 26.8592 28.9522 26.9094 29.0573C26.9596 29.1624 26.9031 29.285 26.7901 29.3317C26.4134 29.4777 26.0618 29.5477 25.7478 29.5536C25.4276 29.5594 25.1451 29.4894 24.9128 29.3492C24.6805 29.2091 24.4795 29.0165 24.3854 28.7479C24.1719 28.1582 24.1656 27.5744 24.7056 27.0314C24.9567 26.7804 25.3146 26.6461 25.6976 26.6461ZM26.3757 27.3292C26.1936 27.1657 25.955 27.0665 25.6976 27.0665C25.4402 27.0665 25.2016 27.1657 25.0195 27.3292C24.8877 27.4518 24.7809 27.6036 24.7244 27.7787H26.6771C26.608 27.6036 26.5076 27.4518 26.3757 27.3292Z" fill="#EA501F"/>
<path d="M7.28821 7.66593H12.0161C12.1605 6.17718 12.6063 4.84021 13.2467 3.80684C14.0943 2.44069 15.2998 1.59998 16.6623 1.59998C18.0248 1.59998 19.224 2.44652 20.0779 3.80684C20.7184 4.83437 21.1641 6.17718 21.3086 7.66593H26.0301C26.5889 7.66593 27.0912 8.09213 27.0473 8.61173L26.0992 20.913C25.9799 22.4543 24.9376 23.3358 23.4245 23.3358H9.90015C8.21746 23.3358 7.32588 22.2441 7.22542 20.913L6.27106 8.61757C6.23339 8.09796 6.7294 7.66593 7.28821 7.66593ZM13.1965 7.66593H20.1156C19.9775 6.37568 19.5945 5.23138 19.0482 4.35564C18.4203 3.33394 17.5664 2.69757 16.6623 2.69757C15.7519 2.69757 14.9043 3.33394 14.2638 4.36147C13.7176 5.23138 13.3409 6.38152 13.1965 7.66593Z" fill="#EA501F"/>
<path d="M13.2281 19.0214C13.0083 18.8813 12.9518 18.6069 13.1025 18.4025C13.2532 18.1982 13.5483 18.1456 13.768 18.2857C13.9062 18.3733 14.0506 18.4609 14.2076 18.5485C15.3126 19.1732 16.3298 19.4826 17.1774 19.4826C17.9434 19.4826 18.565 19.214 18.9605 18.6711C18.9856 18.6302 19.0108 18.6069 19.017 18.5893C19.1301 18.42 19.2117 18.239 19.2682 18.0639C19.3812 17.7019 19.3624 17.3283 19.2054 16.9897C19.0359 16.6335 18.7094 16.2891 18.2008 16.003C17.8618 15.8103 17.4411 15.641 16.9325 15.5126C15.6391 15.174 14.6847 14.6952 14.1699 14.053C13.6048 13.3466 13.5609 12.4942 14.1636 11.4608C14.5654 10.7777 15.388 10.3515 16.4302 10.2756C17.3281 10.2114 18.408 10.4099 19.5068 10.9295C19.7454 11.0405 19.8396 11.309 19.714 11.5309C19.5884 11.7527 19.3059 11.8403 19.0673 11.7235C18.1317 11.2798 17.2402 11.1105 16.4993 11.1631C15.7898 11.2156 15.2498 11.4725 15.0112 11.8812C14.6094 12.5642 14.6157 13.1014 14.9422 13.51C15.3189 13.9829 16.1037 14.3508 17.1962 14.6368C17.7864 14.7945 18.2887 14.993 18.7031 15.2265C19.3875 15.6118 19.8458 16.0964 20.0907 16.6218C20.3418 17.1648 20.3732 17.737 20.2037 18.2974C20.1284 18.5485 20.0091 18.7995 19.8458 19.0447C19.8082 19.0973 19.783 19.1381 19.7642 19.1673C19.1803 19.9672 18.2824 20.3642 17.1899 20.37C16.1665 20.37 14.9736 20.0197 13.7178 19.3074C13.5609 19.2257 13.3976 19.1323 13.2281 19.0214Z" fill="white"/>
</svg>
